<svg width="681" height="470" viewBox="0 0 681 470" fill="none" xmlns="http://www.w3.org/2000/svg">
<path d="M289.08 469.38C276.1 469.38 263.3 465.95 252.06 459.46L28.79 330.56C11.03 320.31 0 301.2 0 280.69C0 260.18 11.03 241.07 28.8 230.82L354.9 42.5401C366.14 36.0501 378.94 32.6201 391.92 32.6201C404.9 32.6201 417.7 36.0501 428.94 42.5401L652.2 171.44C669.97 181.69 681 200.8 681 221.31C681 241.82 669.97 260.93 652.2 271.18L326.1 459.46C314.86 465.95 302.06 469.38 289.08 469.38Z" fill="white"/>
<path d="M356.2 45.4099C367.11 39.1099 379.58 36.4099 392.1 36.2499C404.08 36.0999 417.55 40.3699 427.92 46.3599L644.96 171.67C653.15 176.4 660.95 183.96 665.66 191.84C670.62 200.15 673.06 209.91 672.82 219.67C672.36 238.6 660.07 257.72 643.68 267.19L326.67 450.21C316.3 456.2 302.83 460.32 290.85 460.32C290.3 460.32 289.69 460.35 289.14 460.34C277.19 460.21 265.31 457.23 254.87 451.2L36.4897 325.13C27.4097 319.89 18.7997 311.14 14.0497 302.13C10.0097 294.47 8.07972 285.68 8.31972 276.95C8.82972 258.03 21.2997 238.76 37.6997 229.3L356.2 45.4099Z" fill="#FDFDFE"/>
<path d="M357.51 48.2702C368.09 42.1602 380.23 40.1902 392.3 39.8802C403.28 39.6002 417.41 44.6902 426.92 50.1802L637.74 171.9C645.24 176.23 653.68 184.03 658.1 191.19C663.04 199.18 665.14 208.75 664.67 218.02C663.79 235.35 650.21 254.5 635.18 263.18L327.25 440.97C317.74 446.46 303.61 451.27 292.63 451.27C292.13 451.27 291.48 451.34 290.98 451.34C279.44 451.38 267.84 448.82 257.69 442.96L44.19 319.69C35.87 314.89 26.4 305.79 21.9 297.62C17.82 290.22 16.17 281.54 16.65 273.21C17.63 255.88 31.58 236.45 46.61 227.78L357.51 48.2702Z" fill="#FBFCFD"/>
<path d="M358.81 51.14C369.06 45.22 380.86 43.97 392.48 43.51C402.46 43.11 417.25 49 425.9 53.99L630.51 172.12C637.33 176.06 646.41 184.09 650.53 190.53C655.44 198.21 657.21 207.57 656.5 216.37C655.23 232.1 640.33 251.28 626.67 259.17L327.82 431.72C319.18 436.71 304.39 442.2 294.4 442.2C293.95 442.2 293.27 442.3 292.81 442.31C281.67 442.53 270.36 440.39 260.5 434.69L51.8898 314.26C44.3198 309.89 33.9698 300.46 29.7398 293.11C25.6198 285.96 24.2498 277.42 24.9598 269.47C26.3598 253.76 41.8398 234.15 55.5098 226.26L358.81 51.14Z" fill="#F9FAFC"/>
<path d="M360.11 54.0103C370.03 48.2803 381.48 47.7603 392.66 47.1403C401.63 46.6403 417.1 53.3203 424.88 57.8103L623.28 172.36C629.42 175.9 639.15 184.15 642.96 189.89C647.86 197.27 649.28 206.38 648.33 214.74C646.73 228.85 630.45 248.08 618.15 255.18L328.39 422.47C320.61 426.96 305.16 433.14 296.17 433.14C295.76 433.14 295.05 433.28 294.65 433.3C283.9 433.69 272.89 431.97 263.32 426.45L59.5896 308.82C52.7796 304.89 41.5296 295.13 37.5896 288.59C33.4296 281.68 32.3396 273.32 33.2896 265.72C35.0496 251.63 52.1195 231.83 64.4195 224.73L360.11 54.0103Z" fill="#F7F9FA"/>
<path d="M361.41 56.88C371 51.34 382.09 51.55 392.84 50.78C400.81 50.21 416.94 57.65 423.86 61.64L616.04 172.6C621.5 175.75 631.91 184.21 635.38 189.25C640.26 196.33 641.35 205.16 640.15 213.1C638.28 225.58 620.56 244.87 609.62 251.18L328.97 413.23C322.05 417.22 305.94 424.09 297.95 424.09C297.59 424.09 296.85 424.27 296.49 424.29C286.13 424.85 275.43 423.56 266.15 418.2L67.2804 303.39C61.2304 299.9 49.0504 289.82 45.4204 284.08C41.2104 277.41 40.4104 269.27 41.6004 261.99C43.6404 249.54 62.3804 229.53 73.3104 223.22L361.41 56.88Z" fill="#F5F7F9"/>
<path d="M362.71 59.7499C371.97 54.3999 382.7 55.3399 393.02 54.4099C399.98 53.7799 416.79 61.9599 422.84 65.4599L608.81 172.83C613.58 175.59 624.69 184.25 627.81 188.6C632.68 195.39 634.81 204.3 631.99 211.46C631.99 222.5 610.68 241.66 601.12 247.19L329.53 403.99C323.48 407.48 306.7 415.04 299.71 415.04C299.39 415.04 298.62 415.26 298.31 415.29C288.32 416.02 277.94 415.15 268.95 409.96L74.9803 297.95C69.6803 294.89 56.5503 284.51 53.2703 279.56C49.0003 273.12 47.1003 264.8 49.9303 258.24C49.9303 247.2 72.6603 227.21 82.2203 221.69L362.71 59.7499Z" fill="#F3F6F8"/>
<path d="M364.02 62.6202C372.95 57.4602 383.3 59.1302 393.22 58.0402C399.17 57.3902 416.65 66.2802 421.84 69.2802L601.59 173.06C605.68 175.42 617.5 184.27 620.25 187.95C625.12 194.46 627.13 203.17 623.83 209.82C623.83 219.29 600.81 238.46 592.61 243.19L330.11 394.74C324.92 397.74 307.49 405.97 301.49 405.97C301.22 405.97 300.42 406.24 300.15 406.26C290.52 407.16 280.47 406.71 271.77 401.69L82.68 292.52C78.14 289.9 64.02 279.23 61.11 275.05C56.78 268.82 54.95 260.63 58.24 254.5C58.24 245.03 82.9201 224.91 91.1201 220.17L364.02 62.6202Z" fill="#F2F4F7"/>
<path d="M365.32 65.4902C373.92 60.5202 383.88 62.9202 393.4 61.6702C398.35 61.0202 416.5 70.6002 420.82 73.0902L594.36 173.28C597.77 175.25 610.33 184.27 612.68 187.28C617.55 193.51 619.43 202.03 615.66 208.16C615.66 216.05 590.93 235.23 584.1 239.17L330.69 385.49C326.37 387.99 308.27 396.91 303.28 396.91C303.05 396.91 302.23 397.22 302 397.25C292.72 398.33 283.01 398.3 274.6 393.44L90.3799 287.08C86.5999 284.9 71.4599 273.96 68.9599 270.53C64.5699 264.51 62.7999 256.45 66.5699 250.76C66.5699 242.87 93.1999 222.6 100.03 218.65L365.32 65.4902Z" fill="#F0F3F6"/>
<path d="M366.62 68.3501C374.9 63.5701 384.45 66.7001 393.58 65.3001C397.53 64.6901 416.34 74.9201 419.8 76.9101L587.12 173.51C589.85 175.09 603.17 184.27 605.1 186.63C609.98 192.6 611.73 200.9 607.49 206.51C607.49 212.82 581.05 232.01 575.58 235.16L331.26 376.24C327.8 378.24 309.04 387.85 305.05 387.85C304.87 387.85 304.01 388.21 303.83 388.23C294.88 389.48 285.53 389.87 277.41 385.18L98.0797 281.65C95.0497 279.9 78.3397 269.05 76.7997 266.02C71.3297 261.13 70.6496 252.28 74.8896 247.02C74.8896 240.71 103.47 220.29 108.93 217.14L366.62 68.3501Z" fill="#EEF1F5"/>
<path d="M367.92 71.2203C375.87 66.6303 385.41 65.8403 393.76 68.9303C396.76 68.9303 416.18 79.2303 418.78 80.7303L579.89 173.75C581.94 174.93 596.38 184.01 597.53 185.99C603.39 190.7 604.03 199.79 599.32 204.88C599.32 209.61 571.16 228.81 567.07 231.17L331.83 366.99C329.24 368.49 309.81 378.79 306.82 378.79C306.68 378.79 305.8 379.22 305.66 379.22C297.45 382.24 288.05 381.46 280.23 376.94L105.77 276.21C103.5 274.9 85.7897 263.77 84.6397 261.5C78.9997 256.95 78.4997 248.1 83.2097 243.27C83.2097 238.54 113.74 217.97 117.84 215.61L367.92 71.2203Z" fill="#ECF0F3"/>
<path d="M369.23 74.0901C376.85 69.6901 386.07 69.1601 393.95 72.5601C395.95 72.5601 416.04 83.5501 417.77 84.5501L572.66 173.98C574.02 174.77 589.2 184.02 589.96 185.34C595.91 189.66 596.34 198.66 591.15 203.24C591.15 206.4 561.28 225.6 558.55 227.18L332.41 357.74C330.68 358.74 310.59 369.73 308.6 369.73C308.51 369.73 307.6 370.2 307.51 370.2C299.72 373.55 290.6 373.03 283.06 368.68L113.49 270.78C111.98 269.91 93.2704 258.51 92.5104 256.99C86.7104 252.78 86.3704 243.93 91.5504 239.53C91.5504 236.37 124.03 215.66 126.76 214.09L369.23 74.0901Z" fill="#EAEEF2"/>
<path d="M370.53 76.96C377.82 72.75 386.72 72.49 394.14 76.2C395.14 76.2 415.89 87.88 416.76 88.38L565.44 174.22C566.12 174.61 582.02 184.04 582.4 184.7C588.44 188.63 588.65 197.55 583 201.6C583 203.18 551.42 222.39 550.05 223.18L332.98 348.5C332.12 349 311.37 360.67 310.37 360.67C310.32 360.67 309.38 361.19 309.34 361.19C301.97 364.88 293.12 364.61 285.87 360.43L121.18 265.34C120.42 264.9 100.72 253.23 100.34 252.47C94.3803 248.6 94.2103 239.75 99.8603 235.79C99.8603 234.21 134.29 213.36 135.65 212.57L370.53 76.96Z" fill="#E8EDF1"/>
<path d="M574.82 199.95L311.17 352.17C304.21 356.19 295.64 356.19 288.68 352.17L108.18 247.96C102.06 244.42 102.06 235.59 108.18 232.05L371.83 79.8299C378.79 75.8099 387.36 75.8099 394.32 79.8299L574.83 184.04C580.95 187.58 580.95 196.42 574.82 199.95Z" fill="#E6EBF0"/>
<path d="M590.22 208.8L397.03 97.2602C389.58 92.9602 380.41 92.9602 372.96 97.2602L90.7802 260.18C87.5102 262.07 85.8702 265.38 85.8702 268.69C85.8702 269.88 85.8502 274.65 85.8702 275.91C85.9402 279.15 87.5702 282.36 90.7802 284.21L283.97 395.75C291.42 400.05 300.59 400.05 308.04 395.75L590.22 232.83C593.3 231.05 594.93 228.03 595.11 224.92C595.19 223.53 595.16 218.33 595.12 217.05C595.04 213.82 593.41 210.64 590.22 208.8Z" fill="white"/>
<path d="M590.221 225.82L308.041 388.74C300.591 393.04 291.421 393.04 283.971 388.74L90.7807 277.2C84.2307 273.42 84.2307 263.96 90.7807 260.17L372.961 97.2602C380.411 92.9602 389.581 92.9602 397.031 97.2602L590.221 208.8C596.771 212.58 596.771 222.04 590.221 225.82Z" fill="#F0F3F7"/>
<path d="M373.841 98.7701C375.621 97.7401 377.521 96.9901 379.471 96.5201C381.441 96.0401 383.451 95.8601 385.431 95.9501C389.131 95.9101 394.021 97.5301 397.341 99.4501L586.901 208.9C588.611 209.89 590.331 211.68 591.081 213.27C593.031 217.4 591.981 222.79 587.481 225.39L308.501 386.45C304.991 388.48 299.701 390.18 295.781 390.03C293.911 390.07 292.031 389.86 290.181 389.4C288.341 388.93 286.541 388.21 284.841 387.23L93.9309 277C87.5309 273.31 87.5309 264.07 93.9309 260.38L373.841 98.7701Z" fill="#EDF0F4"/>
<path d="M374.711 100.29C376.461 99.2803 378.331 98.5703 380.251 98.1703C382.191 97.7603 384.161 97.6703 386.081 97.8703C389.251 97.8403 394.791 100 397.631 101.65L583.581 209C585.051 209.85 587.131 211.79 587.821 213.12C589.881 217.08 589.141 222.4 584.731 224.94L308.961 384.17C305.951 385.91 299.891 388.25 296.531 388.12C294.711 388.28 292.851 388.17 291.011 387.77C289.181 387.37 287.391 386.68 285.721 385.72L97.0706 276.8C90.8306 273.2 90.8306 264.19 97.0706 260.59L374.711 100.29Z" fill="#EBEEF2"/>
<path d="M375.591 101.8C377.301 100.81 379.151 100.14 381.051 99.8103C382.961 99.4703 384.891 99.4703 386.751 99.7903C389.391 99.7603 395.571 102.47 397.941 103.84L580.271 209.11C581.491 209.82 583.961 211.9 584.581 212.99C586.761 216.8 586.331 222.02 582.011 224.52L309.421 381.88C306.911 383.33 300.081 386.31 297.281 386.2C295.511 386.48 293.671 386.47 291.841 386.13C290.021 385.8 288.241 385.14 286.591 384.2L100.221 276.6C94.1411 273.09 94.1411 264.31 100.221 260.8L375.591 101.8Z" fill="#E8EBF0"/>
<path d="M376.461 103.32C378.131 102.35 379.961 101.72 381.831 101.46C383.711 101.19 385.601 101.28 387.391 101.71C389.511 101.69 396.331 104.94 398.221 106.04L576.921 209.22C577.901 209.79 580.761 212.01 581.291 212.86C583.601 216.54 583.461 221.65 579.231 224.09L309.881 379.59C307.871 380.75 300.271 384.37 298.031 384.28C296.311 384.68 294.491 384.76 292.671 384.5C290.861 384.23 289.091 383.62 287.461 382.68L103.361 276.39C97.4306 272.97 97.4306 264.41 103.361 260.99L376.461 103.32Z" fill="#E5E9ED"/>
<path d="M377.341 104.84C378.981 103.89 380.791 103.31 382.631 103.1C384.481 102.9 386.341 103.08 388.061 103.63C389.651 103.61 397.111 107.41 398.541 108.23L573.621 209.31C574.351 209.73 577.761 212.01 578.051 212.71C581.161 215.72 580.641 221.25 576.511 223.64L310.341 377.31C308.831 378.18 300.461 382.44 298.781 382.37C297.111 382.89 295.301 383.07 293.511 382.87C291.711 382.67 289.951 382.09 288.351 381.17L106.511 276.18C100.741 272.85 100.741 264.52 106.511 261.19L377.341 104.84Z" fill="#E2E6EB"/>
<path d="M378.211 106.35C379.811 105.43 381.601 104.88 383.411 104.74C385.231 104.6 387.051 104.88 388.711 105.54C389.771 105.53 397.881 109.87 398.831 110.42L570.291 209.41C570.781 209.69 574.591 212.1 574.781 212.56C578.141 215.31 577.801 220.86 573.751 223.19L310.801 375.02C309.801 375.6 300.651 380.49 299.531 380.45C297.911 381.09 296.121 381.37 294.341 381.23C292.551 381.1 290.791 380.56 289.221 379.65L109.661 275.98C104.051 272.74 104.051 264.64 109.661 261.4L378.211 106.35Z" fill="#E0E3E8"/>
<path d="M379.091 107.87C380.651 106.97 382.421 106.46 384.211 106.39C386.001 106.32 387.781 106.69 389.381 107.46C389.911 107.45 398.671 112.34 399.141 112.61L566.981 209.51C567.221 209.65 571.441 212.19 571.541 212.42C575.151 214.91 574.981 220.47 571.031 222.76L311.271 372.73C310.771 373.02 300.851 378.55 300.291 378.53C298.711 379.29 296.951 379.66 295.181 379.6C293.401 379.53 291.651 379.03 290.101 378.13L112.811 275.78C107.351 272.63 107.351 264.76 112.811 261.61L379.091 107.87Z" fill="#DDE1E5"/>
<path d="M296 377.97C294.24 377.97 292.49 377.5 290.97 376.62L115.96 275.57C110.66 272.51 110.66 264.86 115.96 261.8L379.97 109.38C381.5 108.5 383.24 108.03 385 108.03C386.76 108.03 388.51 108.5 390.03 109.38L568.27 212.29C572.13 214.52 572.13 220.1 568.27 222.33L301.04 376.62C299.51 377.5 297.77 377.97 296 377.97Z" fill="#DADEE3"/>
<path d="M590.22 175.8L397.03 64.2602C389.58 59.9602 380.41 59.9602 372.96 64.2602L90.7802 227.18C87.5102 229.07 85.8702 232.38 85.8702 235.69C85.8702 236.88 85.8502 241.65 85.8702 242.91C85.9402 246.15 87.5702 249.36 90.7802 251.21L283.97 362.75C291.42 367.05 300.59 367.05 308.04 362.75L590.22 199.83C593.3 198.05 594.93 195.03 595.11 191.92C595.19 190.53 595.16 185.33 595.12 184.05C595.04 180.82 593.41 177.64 590.22 175.8Z" fill="white"/>
<path d="M590.221 192.82L308.041 355.74C300.591 360.04 291.421 360.04 283.971 355.74L90.7807 244.2C84.2307 240.42 84.2307 230.96 90.7807 227.17L372.961 64.2602C380.411 59.9602 389.581 59.9602 397.031 64.2602L590.221 175.8C596.771 179.58 596.771 189.04 590.221 192.82Z" fill="#F0F3F7"/>
<path d="M373.841 65.7701C375.621 64.7401 377.521 63.9901 379.471 63.5201C381.441 63.0401 383.451 62.8601 385.431 62.9501C389.131 62.9101 394.021 64.5301 397.341 66.4501L586.901 175.9C588.611 176.89 590.331 178.68 591.081 180.27C593.031 184.4 591.981 189.79 587.481 192.39L308.501 353.45C304.991 355.48 299.701 357.18 295.781 357.03C293.911 357.07 292.031 356.86 290.181 356.4C288.341 355.93 286.541 355.21 284.841 354.23L93.9309 244C87.5309 240.31 87.5309 231.07 93.9309 227.38L373.841 65.7701Z" fill="#EDF0F4"/>
<path d="M374.711 67.2903C376.461 66.2803 378.331 65.5703 380.251 65.1703C382.191 64.7603 384.161 64.6703 386.081 64.8703C389.251 64.8403 394.791 67.0003 397.631 68.6503L583.581 176C585.051 176.85 587.131 178.79 587.821 180.12C589.881 184.08 589.141 189.4 584.731 191.94L308.961 351.17C305.951 352.91 299.891 355.25 296.531 355.12C294.711 355.28 292.851 355.17 291.011 354.77C289.181 354.37 287.391 353.68 285.721 352.72L97.0706 243.8C90.8306 240.2 90.8306 231.19 97.0706 227.59L374.711 67.2903Z" fill="#EBEEF2"/>
<path d="M375.591 68.8003C377.301 67.8103 379.151 67.1403 381.051 66.8103C382.961 66.4703 384.891 66.4703 386.751 66.7903C389.391 66.7603 395.571 69.4703 397.941 70.8403L580.271 176.11C581.491 176.82 583.961 178.9 584.581 179.99C586.761 183.8 586.331 189.02 582.011 191.52L309.421 348.88C306.911 350.33 300.081 353.31 297.281 353.2C295.511 353.48 293.671 353.47 291.841 353.13C290.021 352.8 288.241 352.14 286.591 351.2L100.221 243.6C94.1411 240.09 94.1411 231.31 100.221 227.8L375.591 68.8003Z" fill="#E8EBF0"/>
<path d="M376.461 70.3201C378.131 69.3501 379.961 68.7201 381.831 68.4601C383.711 68.1901 385.601 68.2801 387.391 68.7101C389.511 68.6901 396.331 71.9401 398.221 73.0401L576.921 176.22C577.901 176.79 580.761 179.01 581.291 179.86C583.601 183.54 583.461 188.65 579.231 191.09L309.881 346.59C307.871 347.75 300.271 351.37 298.031 351.28C296.311 351.68 294.491 351.76 292.671 351.5C290.861 351.23 289.091 350.62 287.461 349.68L103.361 243.39C97.4306 239.97 97.4306 231.41 103.361 227.99L376.461 70.3201Z" fill="#E5E9ED"/>
<path d="M377.341 71.8401C378.981 70.8901 380.791 70.3101 382.631 70.1001C384.481 69.9001 386.341 70.0801 388.061 70.6301C389.651 70.6101 397.111 74.4101 398.541 75.2301L573.621 176.31C574.351 176.73 577.761 179.01 578.051 179.71C581.161 182.72 580.641 188.25 576.511 190.64L310.341 344.31C308.831 345.18 300.461 349.44 298.781 349.37C297.111 349.89 295.301 350.07 293.511 349.87C291.711 349.67 289.951 349.09 288.351 348.17L106.511 243.18C100.741 239.85 100.741 231.52 106.511 228.19L377.341 71.8401Z" fill="#E2E6EB"/>
<path d="M378.211 73.3503C379.811 72.4303 381.601 71.8803 383.411 71.7403C385.231 71.6003 387.051 71.8803 388.711 72.5403C389.771 72.5303 397.881 76.8703 398.831 77.4203L570.291 176.41C570.781 176.69 574.591 179.1 574.781 179.56C578.141 182.31 577.801 187.86 573.751 190.19L310.801 342.02C309.801 342.6 300.651 347.49 299.531 347.45C297.911 348.09 296.121 348.37 294.341 348.23C292.551 348.1 290.791 347.56 289.221 346.65L109.661 242.98C104.051 239.74 104.051 231.64 109.661 228.4L378.211 73.3503Z" fill="#E0E3E8"/>
<path d="M379.091 74.8702C380.651 73.9702 382.421 73.4602 384.211 73.3902C386.001 73.3202 387.781 73.6902 389.381 74.4602C389.911 74.4502 398.671 79.3402 399.141 79.6102L566.981 176.51C567.221 176.65 571.441 179.19 571.541 179.42C575.151 181.91 574.981 187.47 571.031 189.76L311.271 339.73C310.771 340.02 300.851 345.55 300.291 345.53C298.711 346.29 296.951 346.66 295.181 346.6C293.401 346.53 291.651 346.03 290.101 345.13L112.811 242.78C107.351 239.63 107.351 231.76 112.811 228.61L379.091 74.8702Z" fill="#DDE1E5"/>
<path d="M296 344.97C294.24 344.97 292.49 344.5 290.97 343.62L115.96 242.57C110.66 239.51 110.66 231.86 115.96 228.8L379.96 76.3803C381.49 75.5003 383.23 75.0303 384.99 75.0303C386.75 75.0303 388.5 75.5003 390.02 76.3803L568.26 179.29C572.12 181.52 572.12 187.1 568.26 189.33L301.04 343.62C299.51 344.5 297.77 344.97 296 344.97Z" fill="#DADEE3"/>
<path d="M590.22 142.8L397.03 31.2602C389.58 26.9602 380.41 26.9602 372.96 31.2602L90.7802 194.18C87.5102 196.07 85.8702 199.38 85.8702 202.69C85.8702 203.88 85.8502 208.65 85.8702 209.91C85.9402 213.15 87.5702 216.36 90.7802 218.21L283.97 329.75C291.42 334.05 300.59 334.05 308.04 329.75L590.22 166.83C593.3 165.05 594.93 162.03 595.11 158.92C595.19 157.53 595.16 152.33 595.12 151.05C595.04 147.82 593.41 144.64 590.22 142.8Z" fill="white"/>
<path d="M590.22 159.82L308.04 322.74C300.59 327.04 291.42 327.04 283.97 322.74L90.7797 211.2C84.2297 207.42 84.2297 197.96 90.7797 194.17L372.96 31.2602C380.41 26.9602 389.58 26.9602 397.03 31.2602L590.22 142.8C596.77 146.58 596.77 156.04 590.22 159.82Z" fill="url(#paint0_linear)"/>
<path d="M375.01 30.3302L86.4701 196.92C80.8301 200.18 80.8601 205.47 86.5301 208.75L91.8401 211.82L400.81 33.4402L395.5 30.3702C389.82 27.0902 380.65 27.0802 375.01 30.3302Z" fill="#37424A"/>
<path d="M218.79 219.52L216.211 221.01L162.521 190.01L165.101 188.52L218.79 219.52Z" fill="#51C4F5"/>
<path d="M369.15 86.7101L320.09 115.03C319.14 115.58 317.59 115.58 316.64 115.02C315.68 114.47 315.68 113.58 316.63 113.03L365.69 84.7101C366.64 84.1601 368.19 84.1601 369.14 84.7201C370.09 85.2801 370.1 86.1601 369.15 86.7101Z" fill="#E5E9ED"/>
<path d="M380.38 88.2301L326.8 118.92C325.85 119.47 324.3 119.46 323.35 118.91C322.4 118.36 322.4 117.47 323.35 116.92C323.35 116.92 323.35 116.92 323.36 116.92L376.93 86.2401C377.88 85.6901 379.43 85.7001 380.38 86.2501C381.33 86.7901 381.33 87.6801 380.38 88.2301Z" fill="#E5E9ED"/>
<path d="M380.85 95.4601L333.52 122.79C332.57 123.34 331.02 123.34 330.07 122.78C329.11 122.23 329.11 121.34 330.06 120.79L377.39 93.4601C378.34 92.9101 379.89 92.9101 380.84 93.4701C381.79 94.0301 381.81 94.9101 380.85 95.4601Z" fill="#E5E9ED"/>
<path d="M381.54 102.81L340.23 126.66C339.28 127.21 337.73 127.21 336.78 126.65C335.83 126.09 335.82 125.21 336.77 124.66L378.08 100.81C379.03 100.26 380.58 100.26 381.53 100.82C382.49 101.37 382.49 102.26 381.54 102.81Z" fill="#E5E9ED"/>
<path d="M362.44 121.59L346.95 130.53C346 131.08 344.45 131.08 343.5 130.52C342.55 129.96 342.54 129.08 343.49 128.53L358.98 119.59C359.93 119.04 361.48 119.04 362.43 119.6C363.38 120.15 363.39 121.04 362.44 121.59Z" fill="#E5E9ED"/>
<path d="M421.17 126.68L380.72 150.03C379.77 150.58 378.22 150.58 377.27 150.02C376.31 149.47 376.31 148.58 377.26 148.03L417.71 124.68C418.66 124.13 420.21 124.13 421.16 124.69C422.11 125.24 422.12 126.13 421.17 126.68Z" fill="#E5E9ED"/>
<path d="M436.49 125.59L387.43 153.91C386.48 154.46 384.93 154.46 383.98 153.9C383.02 153.35 383.02 152.46 383.97 151.91L433.03 123.59C433.98 123.04 435.53 123.04 436.48 123.6C437.43 124.15 437.44 125.04 436.49 125.59Z" fill="#E5E9ED"/>
<path d="M440.62 130.95L394.15 157.78C393.2 158.33 391.65 158.33 390.7 157.77C389.74 157.22 389.74 156.33 390.69 155.78L437.16 128.95C438.11 128.4 439.66 128.4 440.61 128.96C441.56 129.51 441.57 130.41 440.62 130.95Z" fill="#E5E9ED"/>
<path d="M450.77 132.84L400.85 161.66C399.9 162.21 398.35 162.21 397.4 161.65C396.44 161.1 396.44 160.21 397.39 159.66L447.31 130.84C448.26 130.29 449.81 130.29 450.76 130.85C451.72 131.4 451.72 132.29 450.77 132.84Z" fill="#E5E9ED"/>
<path d="M431.66 151.62L407.56 165.53C406.61 166.08 405.06 166.08 404.11 165.52C403.15 164.97 403.15 164.08 404.1 163.53L428.2 149.62C429.15 149.07 430.7 149.07 431.65 149.63C432.61 150.18 432.61 151.07 431.66 151.62Z" fill="#E5E9ED"/>
<path d="M484.36 158.2L439.61 184.04C438.66 184.59 437.11 184.59 436.16 184.03C435.2 183.48 435.2 182.59 436.15 182.04L480.9 156.2C481.85 155.65 483.4 155.65 484.35 156.21C485.3 156.77 485.31 157.65 484.36 158.2Z" fill="#E5E9ED"/>
<path d="M488.49 163.56L446.32 187.91C445.37 188.46 443.82 188.46 442.87 187.9C441.91 187.35 441.91 186.46 442.86 185.91L485.03 161.56C485.98 161.01 487.53 161.01 488.48 161.57C489.44 162.12 489.44 163.01 488.49 163.56Z" fill="#E5E9ED"/>
<path d="M502.09 163.46L453.03 191.78C452.08 192.33 450.53 192.33 449.58 191.77C448.62 191.22 448.62 190.33 449.57 189.78L498.63 161.46C499.58 160.91 501.13 160.91 502.08 161.47C503.03 162.02 503.04 162.91 502.09 163.46Z" fill="#E5E9ED"/>
<path d="M498.47 173.3L459.74 195.66C458.79 196.21 457.24 196.21 456.29 195.65C455.34 195.09 455.33 194.21 456.28 193.66L495.01 171.3C495.96 170.75 497.51 170.75 498.46 171.31C499.41 171.87 499.42 172.75 498.47 173.3Z" fill="#E5E9ED"/>
<path d="M481.09 191.09L466.46 199.54C465.51 200.09 463.96 200.09 463.01 199.53C462.06 198.97 462.05 198.09 463 197.54L477.63 189.09C478.58 188.54 480.13 188.54 481.08 189.1C482.03 189.65 482.04 190.54 481.09 191.09Z" fill="#E5E9ED"/>
<path d="M294.29 131.94L246.96 159.27C245.53 160.09 243.21 160.09 241.78 159.26C240.35 158.43 240.34 157.09 241.76 156.27L289.09 128.94C290.52 128.12 292.84 128.12 294.27 128.95C295.7 129.78 295.72 131.11 294.29 131.94Z" fill="#DBDFE3"/>
<path d="M307.25 133.45L254.75 163.76C253.32 164.58 251 164.58 249.57 163.75C248.14 162.92 248.13 161.58 249.55 160.76L302.05 130.45C303.48 129.63 305.8 129.63 307.23 130.46C308.66 131.29 308.67 132.63 307.25 133.45Z" fill="#DBDFE3"/>
<path d="M309.02 141.43L262.55 168.26C261.12 169.08 258.8 169.08 257.37 168.25C255.94 167.42 255.93 166.08 257.35 165.26L303.82 138.43C305.25 137.61 307.57 137.61 309 138.44C310.44 139.27 310.44 140.61 309.02 141.43Z" fill="#DBDFE3"/>
<path d="M322.84 142.45L270.34 172.76C268.91 173.58 266.59 173.58 265.16 172.75C263.73 171.92 263.72 170.58 265.14 169.76L317.64 139.45C319.07 138.63 321.39 138.63 322.82 139.46C324.25 140.29 324.26 141.63 322.84 142.45Z" fill="#DBDFE3"/>
<path d="M302.23 163.35L278.13 177.26C276.7 178.08 274.38 178.08 272.95 177.25C271.52 176.42 271.51 175.08 272.93 174.26L297.03 160.35C298.46 159.53 300.78 159.53 302.21 160.36C303.65 161.19 303.66 162.53 302.23 163.35Z" fill="#DBDFE3"/>
<path d="M248.212 185.767C248.255 177.98 237.356 171.608 223.869 171.535C210.382 171.462 199.415 177.715 199.372 185.503C199.33 193.29 210.229 199.662 223.716 199.735C237.203 199.808 248.17 193.555 248.212 185.767Z" fill="#E5E9ED"/>
<path d="M278.55 254.02L275.971 255.51L222.271 224.51L224.861 223.02L278.55 254.02Z" fill="#4AE086"/>
<path d="M343.72 172.4L306.71 193.77C305.28 194.59 302.96 194.59 301.53 193.76C300.1 192.93 300.09 191.59 301.51 190.77L338.52 169.4C339.95 168.58 342.27 168.58 343.7 169.41C345.13 170.24 345.14 171.57 343.72 172.4Z" fill="#DBDFE3"/>
<path d="M360.98 171.43L314.51 198.26C313.08 199.08 310.76 199.08 309.33 198.25C307.9 197.42 307.89 196.08 309.31 195.26L355.78 168.43C357.21 167.61 359.53 167.61 360.96 168.44C362.39 169.27 362.41 170.61 360.98 171.43Z" fill="#DBDFE3"/>
<path d="M364.47 178.42L322.3 202.77C320.87 203.59 318.55 203.59 317.12 202.76C315.69 201.93 315.68 200.59 317.1 199.77L359.27 175.42C360.7 174.6 363.02 174.6 364.45 175.43C365.88 176.26 365.9 177.59 364.47 178.42Z" fill="#DBDFE3"/>
<path d="M357.63 191.36L330.09 207.26C328.66 208.08 326.34 208.08 324.91 207.25C323.48 206.42 323.47 205.08 324.89 204.26L352.43 188.36C353.86 187.54 356.18 187.54 357.61 188.37C359.04 189.2 359.06 190.54 357.63 191.36Z" fill="#DBDFE3"/>
<path d="M351.66 203.81L337.89 211.76C336.46 212.58 334.14 212.58 332.71 211.75C331.28 210.92 331.27 209.58 332.69 208.76L346.46 200.81C347.89 199.99 350.21 199.99 351.64 200.82C353.08 201.65 353.08 202.99 351.66 203.81Z" fill="#DBDFE3"/>
<path d="M307.968 220.273C308.01 212.486 297.111 206.113 283.625 206.04C270.138 205.967 259.17 212.221 259.128 220.008C259.086 227.795 269.985 234.167 283.472 234.24C296.959 234.313 307.926 228.06 307.968 220.273Z" fill="#E5E9ED"/>
<path d="M338.3 288.52L335.72 290.01L282.03 259.01L284.61 257.52L338.3 288.52Z" fill="#FF7AA7"/>
<path d="M415.52 199.94L366.46 228.26C365.03 229.08 362.71 229.08 361.28 228.25C359.85 227.42 359.84 226.08 361.26 225.26L410.32 196.94C411.75 196.12 414.07 196.12 415.5 196.95C416.94 197.78 416.95 199.12 415.52 199.94Z" fill="#DBDFE3"/>
<path d="M429.34 200.96L374.26 232.76C372.83 233.58 370.51 233.58 369.08 232.75C367.65 231.92 367.64 230.58 369.06 229.76L424.14 197.96C425.57 197.14 427.89 197.14 429.32 197.97C430.76 198.8 430.77 200.14 429.34 200.96Z" fill="#DBDFE3"/>
<path d="M434.55 206.95L382.05 237.26C380.62 238.08 378.3 238.08 376.87 237.25C375.44 236.42 375.43 235.08 376.85 234.26L429.35 203.95C430.78 203.13 433.1 203.13 434.53 203.96C435.96 204.79 435.98 206.13 434.55 206.95Z" fill="#DBDFE3"/>
<path d="M444.931 209.96L389.851 241.76C388.421 242.58 386.101 242.58 384.671 241.75C383.241 240.92 383.231 239.58 384.651 238.76L439.731 206.96C441.161 206.14 443.481 206.14 444.911 206.97C446.341 207.8 446.361 209.14 444.931 209.96Z" fill="#DBDFE3"/>
<path d="M420.88 232.85L397.64 246.27C396.21 247.09 393.89 247.09 392.46 246.26C391.03 245.43 391.02 244.09 392.44 243.27L415.68 229.85C417.11 229.03 419.43 229.03 420.86 229.86C422.3 230.69 422.31 232.03 420.88 232.85Z" fill="#DBDFE3"/>
<path d="M367.725 254.767C367.767 246.98 356.868 240.608 343.381 240.535C329.895 240.462 318.927 246.715 318.885 254.503C318.843 262.29 329.742 268.662 343.229 268.735C356.715 268.808 367.683 262.555 367.725 254.767Z" fill="#E5E9ED"/>
<path opacity="0.3" d="M519.03 431.57L502.13 421.81C497.95 419.4 498.47 415.18 503.3 412.39L517.66 404.1C522.49 401.31 529.79 401.01 533.97 403.42L550.87 413.18C555.05 415.59 554.53 419.81 549.7 422.6L535.34 430.89C530.51 433.68 523.21 433.99 519.03 431.57Z" fill="#DBDFE3"/>
<path opacity="0.3" d="M271.43 446.17L262.21 440.85C259.93 439.53 260.22 437.23 262.85 435.71L270.68 431.19C273.31 429.67 277.3 429.5 279.58 430.82L288.8 436.14C291.08 437.46 290.79 439.76 288.16 441.28L280.33 445.8C277.69 447.33 273.71 447.49 271.43 446.17Z" fill="#DBDFE3"/>
<path opacity="0.3" d="M151.43 73.1698L142.21 67.8498C139.93 66.5298 140.22 64.2298 142.85 62.7098L150.68 58.1898C153.31 56.6698 157.3 56.4998 159.58 57.8198L168.8 63.1398C171.08 64.4598 170.79 66.7598 168.16 68.2798L160.33 72.7998C157.69 74.3298 153.71 74.4898 151.43 73.1698Z" fill="#ACDFE3"/>
<path opacity="0.3" d="M609.84 66.53L604.27 63.31C602.89 62.51 603.06 61.12 604.66 60.2L609.39 57.47C610.98 56.55 613.39 56.45 614.77 57.25L620.34 60.47C621.72 61.27 621.55 62.66 619.95 63.58L615.22 66.31C613.63 67.22 611.22 67.32 609.84 66.53Z" fill="#ACDFE3"/>
<path opacity="0.3" d="M77.0301 399.57L60.1301 389.81C55.9501 387.4 56.4701 383.18 61.3001 380.39L75.6601 372.1C80.4901 369.31 87.7901 369.01 91.9701 371.42L108.87 381.18C113.05 383.59 112.53 387.81 107.7 390.6L93.3401 398.89C88.5101 401.68 81.2101 401.99 77.0301 399.57Z" fill="#ACDFE3"/>
<path opacity="0.5" d="M558 392C608.81 392 650 366.928 650 336C650 305.072 608.81 280 558 280C507.19 280 466 305.072 466 336C466 366.928 507.19 392 558 392Z" fill="url(#paint1_radial)"/>
<path d="M625.61 321.62C625.62 317.97 623.44 314.48 618.93 311.88L574.07 285.98C564.13 280.24 546.76 280.96 535.28 287.59L496.49 309.98C490.22 313.6 487 318.23 487 322.63C487 323.28 487.03 325.78 487.03 326.39C487.03 330.03 489.21 333.51 493.71 336.11L538.57 362.01C548.51 367.75 565.88 367.03 577.36 360.4L616.15 338.01C622.38 334.41 625.6 329.81 625.64 325.44C625.64 324.77 625.61 322.22 625.61 321.62Z" fill="white"/>
<path d="M538.57 358.28L493.71 332.38C483.77 326.64 485.02 316.61 496.49 309.99L535.28 287.6C546.76 280.97 564.12 280.25 574.07 285.99L618.93 311.89C628.87 317.63 627.62 327.66 616.15 334.28L577.36 356.67C565.88 363.3 548.51 364.02 538.57 358.28Z" fill="url(#paint2_linear)"/>
<path opacity="0.2" d="M588 226H527V327L588 325.64V226Z" fill="url(#paint3_linear)"/>
<path d="M580.28 314.32L550.99 297.41L526.97 326.84L542.78 335.97C553.18 341.98 570.06 342.01 580.4 336.04C590.74 330.07 590.68 320.32 580.28 314.32Z" fill="#00CB51"/>
<path opacity="0.5" d="M114 243C164.81 243 206 217.928 206 187C206 156.072 164.81 131 114 131C63.1898 131 22 156.072 22 187C22 217.928 63.1898 243 114 243Z" fill="url(#paint4_radial)"/>
<path d="M142.34 123.42L69.5304 81.3799C59.2704 75.4499 50.9404 80.1999 50.9404 91.9799V125.84C50.9404 137.62 59.2604 151.97 69.5304 157.9L108.13 180.18L122.83 205.53L137.53 197.15L142.35 199.93C152.61 205.86 160.94 201.11 160.94 189.33V155.47C160.93 143.7 152.61 129.35 142.34 123.42Z" fill="white"/>
<path d="M137.34 126.42L64.5304 84.3799C54.2704 78.4499 45.9404 83.1999 45.9404 94.9799V128.84C45.9404 140.62 54.2604 154.97 64.5304 160.9L103.13 183.18L117.83 208.53L132.53 200.15L137.35 202.93C147.61 208.86 155.94 204.11 155.94 192.33V158.47C155.93 146.7 147.61 132.35 137.34 126.42Z" fill="url(#paint5_linear)"/>
<path d="M105.32 180.99L66.0304 158.3C56.7704 152.95 48.9404 139.46 48.9404 128.84V94.9801C48.9404 88.6201 51.6504 84.8301 56.1804 84.8301C58.2204 84.8301 60.5904 85.5701 63.0204 86.9801L135.83 129.02C145.09 134.37 152.92 147.86 152.92 158.48V192.34C152.92 195.68 152.17 198.38 150.74 200.16C149.5 201.7 147.8 202.49 145.68 202.49C143.64 202.49 141.27 201.75 138.84 200.34L132.53 196.7L118.92 204.46L105.32 180.99Z" fill="#FAAF40"/>
<path opacity="0.5" d="M502 150C552.81 150 594 124.928 594 94C594 63.0721 552.81 38 502 38C451.19 38 410 63.0721 410 94C410 124.928 451.19 150 502 150Z" fill="url(#paint6_radial)"/>
<path d="M552.79 71.2701L516.76 50.4701C508.77 45.8601 494.83 46.4401 485.61 51.7601L454.45 69.7501C449.59 72.5601 447.03 76.1201 446.85 79.5401C446.81 80.3301 446.8 83.4401 446.83 84.2201C446.94 87.0401 448.71 89.7201 452.21 91.7401L488.24 112.54C496.23 117.15 510.17 116.57 519.39 111.25L550.55 93.2601C555.57 90.3601 558.13 86.6601 558.16 83.1501C558.16 82.4701 558.17 79.8501 558.18 79.2101C558.22 76.2301 556.46 73.3901 552.79 71.2701Z" fill="white"/>
<path d="M550.55 89.2601L519.39 107.25C510.17 112.57 496.22 113.15 488.24 108.54L452.21 87.7401C444.22 83.1301 445.23 75.0801 454.45 69.7501L485.61 51.7601C494.83 46.4401 508.78 45.8601 516.76 50.4701L552.79 71.2701C560.78 75.8801 559.77 83.9301 550.55 89.2601Z" fill="url(#paint7_linear)"/>
<path d="M485.61 69.7498C476.36 75.0898 476.4 83.8098 485.72 89.1898C495.03 94.5698 510.14 94.5898 519.39 89.2498C528.64 83.9098 528.6 75.1898 519.28 69.8098C509.97 64.4298 494.87 64.4098 485.61 69.7498ZM511.62 84.7698C510.32 85.5198 508.21 85.5198 506.91 84.7598C505.61 83.9998 505.6 82.7898 506.9 82.0398C508.2 81.2898 510.31 81.2898 511.61 82.0498C512.91 82.7998 512.92 84.0198 511.62 84.7698ZM505.68 78.3298C505.24 79.0198 505.55 79.3298 506.04 79.6098L507.13 80.2398L503.77 82.1798L502.15 81.2498C500.68 80.3998 500.17 79.1698 500.82 78.0398L501.15 77.4598C501.33 77.1498 501.19 76.8198 500.79 76.5898C499.86 76.0498 498.35 76.0498 497.42 76.5798C496.49 77.1098 496.5 77.9898 497.43 78.5198L494.07 80.4598C491.28 78.8498 491.26 76.2298 494.04 74.6298C496.82 73.0298 501.35 73.0398 504.14 74.6498C505.84 75.6198 506.43 77.0298 505.68 78.3298Z" fill="#26A9E0"/>
<defs>
<linearGradient id="paint0_linear" x1="303.223" y1="72.4427" x2="384.182" y2="299.523" gradientUnits="userSpaceOnUse">
<stop stop-color="#F2F5F7"/>
<stop offset="1" stop-color="#FAFAFA"/>
</linearGradient>
<radialGradient id="paint1_radial" cx="0" cy="0" r="1" gradientUnits="userSpaceOnUse" gradientTransform="translate(558 336.002) scale(92 56.0004)">
<stop stop-color="#3C6478"/>
<stop offset="1" stop-color="#FAFAFA" stop-opacity="0"/>
</radialGradient>
<linearGradient id="paint2_linear" x1="546.592" y1="288.93" x2="565.679" y2="354.092" gradientUnits="userSpaceOnUse">
<stop stop-color="#F2F5F7"/>
<stop offset="1" stop-color="#FAFAFA"/>
</linearGradient>
<linearGradient id="paint3_linear" x1="557.5" y1="327" x2="557.5" y2="226" gradientUnits="userSpaceOnUse">
<stop stop-color="#00FD23"/>
<stop offset="1" stop-color="#FAFAFA" stop-opacity="0"/>
</linearGradient>
<radialGradient id="paint4_radial" cx="0" cy="0" r="1" gradientUnits="userSpaceOnUse" gradientTransform="translate(114 187.001) scale(92 56.0004)">
<stop stop-color="#3C6478"/>
<stop offset="1" stop-color="#FAFAFA" stop-opacity="0"/>
</radialGradient>
<linearGradient id="paint5_linear" x1="82.0209" y1="87.2755" x2="122.321" y2="207.411" gradientUnits="userSpaceOnUse">
<stop stop-color="#F2F5F7"/>
<stop offset="1" stop-color="#FAFAFA"/>
</linearGradient>
<radialGradient id="paint6_radial" cx="0" cy="0" r="1" gradientUnits="userSpaceOnUse" gradientTransform="translate(502 93.9999) scale(92 56.0004)">
<stop stop-color="#3C6478"/>
<stop offset="1" stop-color="#FAFAFA" stop-opacity="0"/>
</radialGradient>
<linearGradient id="paint7_linear" x1="527.461" y1="107.826" x2="521.67" y2="48.6521" gradientUnits="userSpaceOnUse">
<stop stop-color="#F2F5F7"/>
<stop offset="1" stop-color="#FAFAFA"/>
</linearGradient>
</defs>
</svg>
