<svg width="3344" height="552" viewBox="0 0 3344 552" fill="none" xmlns="http://www.w3.org/2000/svg">
<path fill-rule="evenodd" clip-rule="evenodd" d="M824 120H875.785L1039.29 372.743V120H1080.94V432H1031.8L865.869 179.469V432H824V120ZM1239.06 120H1472.96V158.23H1281.43V252.956H1458.55V289.062H1281.43V394.832H1476.24V432H1239.06V120ZM1851.76 157.168V120H1594.82V157.168H1701.52V432H1745.07V157.168H1851.76ZM2090.08 395.894C2104.6 395.894 2116.54 394.407 2125.89 391.434C2142.57 385.911 2156.23 375.292 2166.87 359.575C2175.36 346.973 2181.47 330.832 2185.21 311.15C2187.37 299.398 2188.44 288.496 2188.44 278.442C2188.44 239.787 2180.64 209.77 2165.04 188.389C2149.43 167.009 2124.3 156.319 2089.65 156.319H2013.5V395.894H2090.08ZM1970.35 120H2098.71C2142.28 120 2176.08 135.221 2200.09 165.664C2221.52 193.133 2232.23 228.318 2232.23 271.221C2232.23 304.354 2225.91 334.301 2213.25 361.062C2190.96 408.354 2152.64 432 2098.27 432H1970.35V120ZM2494.45 166.301L2543.19 304.142H2442.64L2494.45 166.301ZM2520.9 120H2471.71L2350.82 432H2395.42L2430.18 338.549H2557.18L2589.76 432H2637.41L2520.9 120ZM3249.78 304.142L3201.03 166.301L3149.22 304.142H3249.78ZM3178.3 120H3227.48L3344 432H3296.34L3263.77 338.549H3136.76L3102.01 432H3057.41L3178.3 120ZM2978.35 157.168V120H2716.47V157.168H2825.22V432H2869.6V157.168H2978.35Z" fill="white"/>
<path fill-rule="evenodd" clip-rule="evenodd" d="M413.367 552H277.808L0 0H394.341C547.677 0.290068 671.919 128.207 672 286.01C671.754 433.069 556.08 552 413.367 552Z" fill="white"/>
</svg>
