<svg width="1088" height="584" viewBox="0 0 1088 584" fill="none" xmlns="http://www.w3.org/2000/svg">
<g clip-path="url(#clip0)">
<path d="M1004.5 232H456.5C410.384 232 373 269.384 373 315.5C373 361.616 410.384 399 456.5 399H1004.5C1050.62 399 1088 361.616 1088 315.5C1088 269.384 1050.62 232 1004.5 232Z" fill="#EDF9F2"/>
<path d="M922 327H336C279.115 327 233 373.115 233 430C233 486.885 279.115 533 336 533H922C978.885 533 1025 486.885 1025 430C1025 373.115 978.885 327 922 327Z" fill="#EDF9F2"/>
<path d="M1082.53 0H0C0 76.77 153.34 139 342.5 139C346.93 139 351.33 138.95 355.71 138.89C434 169.51 552 189 684 189C871.31 189 1030.45 149.74 1088 95.11V4.89C1086.27 3.24333 1084.45 1.61333 1082.53 0Z" fill="#EBF8FF"/>
<path d="M351 42H258C254.686 42 252 44.6863 252 48C252 51.3137 254.686 54 258 54H351C354.314 54 357 51.3137 357 48C357 44.6863 354.314 42 351 42Z" fill="#E3F2FA"/>
<path d="M407.5 61H241.5C233.492 61 227 67.4919 227 75.5C227 83.5081 233.492 90 241.5 90H407.5C415.508 90 422 83.5081 422 75.5C422 67.4919 415.508 61 407.5 61Z" fill="#E3F2FA"/>
<path d="M398 93H267C262.582 93 259 96.5817 259 101C259 105.418 262.582 109 267 109H398C402.418 109 406 105.418 406 101C406 96.5817 402.418 93 398 93Z" fill="#E3F2FA"/>
<path d="M341.5 54H265.5C266.428 54 267.319 54.3688 267.975 55.0251C268.631 55.6815 269 56.5717 269 57.5C269 58.4283 268.631 59.3185 267.975 59.9749C267.319 60.6312 266.428 61 265.5 61H341.5C340.572 61 339.681 60.6312 339.025 59.9749C338.369 59.3185 338 58.4283 338 57.5C338 56.5717 338.369 55.6815 339.025 55.0251C339.681 54.3688 340.572 54 341.5 54Z" fill="#E3F2FA"/>
<path d="M389.5 90H277.5C277.898 90 278.279 90.158 278.561 90.4393C278.842 90.7206 279 91.1022 279 91.5C279 91.8978 278.842 92.2794 278.561 92.5607C278.279 92.842 277.898 93 277.5 93H389.5C389.102 93 388.721 92.842 388.439 92.5607C388.158 92.2794 388 91.8978 388 91.5C388 91.1022 388.158 90.7206 388.439 90.4393C388.721 90.158 389.102 90 389.5 90Z" fill="#E3F2FA"/>
<path d="M357 33H264C260.686 33 258 35.6863 258 39C258 42.3137 260.686 45 264 45H357C360.314 45 363 42.3137 363 39C363 35.6863 360.314 33 357 33Z" fill="white"/>
<path d="M413.5 52H247.5C239.492 52 233 58.4919 233 66.5C233 74.5081 239.492 81 247.5 81H413.5C421.508 81 428 74.5081 428 66.5C428 58.4919 421.508 52 413.5 52Z" fill="white"/>
<path d="M404 84H273C268.582 84 265 87.5817 265 92C265 96.4183 268.582 100 273 100H404C408.418 100 412 96.4183 412 92C412 87.5817 408.418 84 404 84Z" fill="white"/>
<path d="M347.5 45H271.5C272.428 45 273.319 45.3688 273.975 46.0251C274.631 46.6815 275 47.5717 275 48.5C275 49.4283 274.631 50.3185 273.975 50.9749C273.319 51.6312 272.428 52 271.5 52H347.5C346.572 52 345.681 51.6312 345.025 50.9749C344.369 50.3185 344 49.4283 344 48.5C344 47.5717 344.369 46.6815 345.025 46.0251C345.681 45.3688 346.572 45 347.5 45Z" fill="white"/>
<path d="M395.5 81H283.5C283.898 81 284.279 81.158 284.561 81.4393C284.842 81.7206 285 82.1022 285 82.5C285 82.8978 284.842 83.2794 284.561 83.5607C284.279 83.842 283.898 84 283.5 84H395.5C395.102 84 394.721 83.842 394.439 83.5607C394.158 83.2794 394 82.8978 394 82.5C394 82.1022 394.158 81.7206 394.439 81.4393C394.721 81.158 395.102 81 395.5 81Z" fill="white"/>
<path d="M1110.5 250H477.5C471.701 250 467 254.701 467 260.5C467 266.299 471.701 271 477.5 271H1110.5C1116.3 271 1121 266.299 1121 260.5C1121 254.701 1116.3 250 1110.5 250Z" fill="#C4ECD4"/>
<path d="M1002 30H805C798.373 30 793 35.3726 793 42C793 48.6274 798.373 54 805 54H1002C1008.63 54 1014 48.6274 1014 42C1014 35.3726 1008.63 30 1002 30Z" fill="#E3F2FA"/>
<path d="M1052 62H909C903.477 62 899 66.4772 899 72C899 77.5228 903.477 82 909 82H1052C1057.52 82 1062 77.5228 1062 72C1062 66.4772 1057.52 62 1052 62Z" fill="#E3F2FA"/>
<path d="M994 58C994 56.9391 994.421 55.9217 995.172 55.1716C995.922 54.4214 996.939 54 998 54H908C909.061 54 910.078 54.4214 910.828 55.1716C911.579 55.9217 912 56.9391 912 58C912 59.0609 911.579 60.0783 910.828 60.8284C910.078 61.5786 909.061 62 908 62H998C996.939 62 995.922 61.5786 995.172 60.8284C994.421 60.0783 994 59.0609 994 58Z" fill="#E3F2FA"/>
<path d="M975 25.05V25H887V25.05C887.565 25.1648 888.073 25.4714 888.438 25.9179C888.803 26.3644 889.003 26.9233 889.003 27.5C889.003 28.0767 888.803 28.6356 888.438 29.0821C888.073 29.5286 887.565 29.8352 887 29.95V30H975C974.435 29.8852 973.927 29.5786 973.562 29.1321C973.197 28.6856 972.997 28.1267 972.997 27.55C972.997 26.9733 973.197 26.4144 973.562 25.9679C973.927 25.5214 974.435 25.2148 975 25.1V25.05Z" fill="#E3F2FA"/>
<path d="M1040.54 12H864.46C863.989 13.4978 863.877 15.0855 864.134 16.6346C864.391 18.1836 865.008 19.6505 865.937 20.9163C866.866 22.1822 868.08 23.2115 869.481 23.921C870.882 24.6304 872.43 25.0001 874 25H1031C1032.57 25.0001 1034.12 24.6304 1035.52 23.921C1036.92 23.2115 1038.13 22.1822 1039.06 20.9163C1039.99 19.6505 1040.61 18.1836 1040.87 16.6346C1041.12 15.0855 1041.01 13.4978 1040.54 12Z" fill="#E3F2FA"/>
<path d="M1011 18H814C807.373 18 802 23.3726 802 30C802 36.6274 807.373 42 814 42H1011C1017.63 42 1023 36.6274 1023 30C1023 23.3726 1017.63 18 1011 18Z" fill="white"/>
<path d="M1061 50H918C912.477 50 908 54.4772 908 60C908 65.5228 912.477 70 918 70H1061C1066.52 70 1071 65.5228 1071 60C1071 54.4772 1066.52 50 1061 50Z" fill="white"/>
<path d="M1003 46C1003 44.9391 1003.42 43.9217 1004.17 43.1716C1004.92 42.4214 1005.94 42 1007 42H917C918.061 42 919.078 42.4214 919.828 43.1716C920.579 43.9217 921 44.9391 921 46C921 47.0609 920.579 48.0783 919.828 48.8284C919.078 49.5786 918.061 50 917 50H1007C1005.94 50 1004.92 49.5786 1004.17 48.8284C1003.42 48.0783 1003 47.0609 1003 46Z" fill="white"/>
<path d="M984 13.05V13H896V13.05C896.565 13.1648 897.073 13.4714 897.438 13.9179C897.803 14.3644 898.003 14.9233 898.003 15.5C898.003 16.0767 897.803 16.6356 897.438 17.0821C897.073 17.5286 896.565 17.8352 896 17.95V18H984C983.435 17.8852 982.927 17.5786 982.562 17.1321C982.197 16.6856 981.997 16.1267 981.997 15.55C981.997 14.9733 982.197 14.4144 982.562 13.9679C982.927 13.5214 983.435 13.2148 984 13.1V13.05Z" fill="white"/>
<path d="M1049.54 0H873.46C872.989 1.49783 872.877 3.08554 873.134 4.63458C873.391 6.18362 874.008 7.65045 874.937 8.91632C875.866 10.1822 877.08 11.2115 878.481 11.921C879.882 12.6305 881.43 13.0001 883 13H1040C1041.57 13.0001 1043.12 12.6305 1044.52 11.921C1045.92 11.2115 1047.13 10.1822 1048.06 8.91632C1048.99 7.65045 1049.61 6.18362 1049.87 4.63458C1050.12 3.08554 1050.01 1.49783 1049.54 0V0Z" fill="white"/>
<path d="M744.09 97H512.91C509.646 97 507 99.646 507 102.91V244.09C507 247.354 509.646 250 512.91 250H744.09C747.354 250 750 247.354 750 244.09V102.91C750 99.646 747.354 97 744.09 97Z" fill="#5F7A94"/>
<path d="M512.91 97H744.09C745.657 97 747.161 97.6227 748.269 98.731C749.377 99.8393 750 101.343 750 102.91V103H507V102.91C507 101.343 507.623 99.8393 508.731 98.731C509.839 97.6227 511.343 97 512.91 97Z" fill="#546C82"/>
<path opacity="0.5" d="M513 101C513.552 101 514 100.552 514 100C514 99.4477 513.552 99 513 99C512.448 99 512 99.4477 512 100C512 100.552 512.448 101 513 101Z" fill="#00FF00"/>
<path opacity="0.5" d="M517 101C517.552 101 518 100.552 518 100C518 99.4477 517.552 99 517 99C516.448 99 516 99.4477 516 100C516 100.552 516.448 101 517 101Z" fill="#FFFF00"/>
<path opacity="0.5" d="M521 101C521.552 101 522 100.552 522 100C522 99.4477 521.552 99 521 99C520.448 99 520 99.4477 520 100C520 100.552 520.448 101 521 101Z" fill="#FF0000"/>
<path d="M629 189C648.882 189 665 172.882 665 153C665 133.118 648.882 117 629 117C609.118 117 593 133.118 593 153C593 172.882 609.118 189 629 189Z" fill="#6784A1"/>
<path d="M629 153L594.27 143.51C594.896 141.237 595.74 139.031 596.79 136.92C597.841 134.802 599.097 132.793 600.54 130.92L629 153Z" fill="#00AB44"/>
<path d="M629 179C643.359 179 655 167.359 655 153C655 138.641 643.359 127 629 127C614.641 127 603 138.641 603 153C603 167.359 614.641 179 629 179Z" fill="#5F7A94"/>
<path d="M628 162L665 136V189H627L628 162Z" fill="#5F7A94"/>
<path d="M628 162L591 136V189H629L628 162Z" fill="#5F7A94"/>
<path d="M569 153C576.18 153 582 147.18 582 140C582 132.82 576.18 127 569 127C561.82 127 556 132.82 556 140C556 147.18 561.82 153 569 153Z" stroke="#6784A1" stroke-width="4" stroke-miterlimit="10"/>
<path d="M569 127C571.341 126.999 573.639 127.631 575.651 128.828C577.662 130.025 579.314 131.743 580.43 133.8C581.547 135.858 582.087 138.179 581.993 140.518C581.9 142.857 581.177 145.128 579.9 147.09" stroke="#00AB44" stroke-width="4" stroke-linecap="round" stroke-linejoin="round"/>
<path d="M533 153C540.18 153 546 147.18 546 140C546 132.82 540.18 127 533 127C525.82 127 520 132.82 520 140C520 147.18 525.82 153 533 153Z" stroke="#6784A1" stroke-width="4" stroke-miterlimit="10"/>
<path d="M723 153C730.18 153 736 147.18 736 140C736 132.82 730.18 127 723 127C715.82 127 710 132.82 710 140C710 147.18 715.82 153 723 153Z" stroke="#6784A1" stroke-width="4" stroke-miterlimit="10"/>
<path d="M687 153C694.18 153 700 147.18 700 140C700 132.82 694.18 127 687 127C679.82 127 674 132.82 674 140C674 147.18 679.82 153 687 153Z" stroke="#6784A1" stroke-width="4" stroke-miterlimit="10"/>
<path d="M687 127C689.129 127 691.225 127.522 693.104 128.521C694.984 129.52 696.59 130.965 697.78 132.73" stroke="#00AB44" stroke-width="4" stroke-linecap="round" stroke-linejoin="round"/>
<path d="M533 127C535.016 126.997 537.005 127.463 538.81 128.361C540.615 129.259 542.186 130.565 543.399 132.175C544.613 133.785 545.435 135.655 545.802 137.637C546.168 139.619 546.068 141.66 545.511 143.597C544.953 145.534 543.952 147.315 542.588 148.799C541.223 150.283 539.532 151.429 537.649 152.147C535.765 152.865 533.74 153.136 531.734 152.936C529.728 152.737 527.796 152.074 526.09 151" stroke="#00AB44" stroke-width="4" stroke-linecap="round" stroke-linejoin="round"/>
<path d="M723 127C725.571 127 728.085 127.762 730.222 129.191C732.36 130.619 734.026 132.65 735.01 135.025C735.994 137.401 736.252 140.014 735.75 142.536C735.249 145.058 734.01 147.374 732.192 149.192C730.374 151.01 728.058 152.249 725.536 152.75C723.014 153.252 720.401 152.994 718.025 152.01C715.65 151.026 713.619 149.36 712.191 147.222C710.762 145.085 710 142.571 710 140" stroke="#00AB44" stroke-width="4" stroke-linecap="round" stroke-linejoin="round"/>
<path d="M736 168H521V199H736V168Z" fill="#6784A1"/>
<path d="M736 206H521V237H736V206Z" fill="#6784A1"/>
<path d="M521 196.33L526 191L530 195L539 183L545 188L549 183L555 179L560 181L564 179L567 182L572 185L577 183L580 188L584 191L588 189L592 193L597 191L600 195H605L610 190L613 188L618 185L620 182L625.08 178.79L627.18 182.77L633 183L637 187L640 188L646 183L650 188L654 192H660L662 195L666 196H671L676 195L679 197L686 191L689 195L694 194L699 196L702 197L706 194L709 196L711 197L718 194L719 190L724 187L727 188L730 191L734 190L736 183.87V199H521V196.33Z" fill="#7393B3"/>
<path d="M521 212.42L524 217L527 216L531 218L534 222H539L542 220H547L549 223L551 227L554 229L557 226L560 229L564 233L568 229L572 225L576 226L580 223L584 225L589 230L597 223L599 228L603 232L609 234L614 233L616 234L621 235L624 233H628L634 235L640 234L642 233L644 226L650 222L653 227L656 232L657 228L660 223L661 216L664 220L665 226L669 231L671 234L673 230L675 226L677 229L680 231L684 234L689 235L698 231L700 229L703 227L706 229L708 232L713 229L717 228L721 229L727 225L730 222H734L736 220V237H521V212.42Z" fill="#7393B3"/>
<path d="M626.62 156L596.69 128.35C596.598 128.257 596.547 128.131 596.547 128C596.547 127.869 596.598 127.743 596.69 127.65C596.769 127.559 596.88 127.5 597 127.485C597.12 127.471 597.241 127.501 597.34 127.57L631.38 150C632.239 150.564 632.84 151.445 633.049 152.452C633.258 153.458 633.059 154.506 632.495 155.365C631.931 156.224 631.05 156.825 630.043 157.034C629.037 157.243 627.989 157.044 627.13 156.48C626.947 156.335 626.776 156.174 626.62 156Z" fill="#7597B8"/>
<path opacity="0.1" d="M744.09 97H628V250H744.09C745.657 249.997 747.158 249.374 748.266 248.266C749.374 247.158 749.997 245.657 750 244.09V102.91C749.997 101.343 749.374 99.8417 748.266 98.7339C747.158 97.6261 745.657 97.0026 744.09 97Z" fill="#313C45"/>
<path opacity="0.2" d="M744.09 97H705.5C717 226 547 255 507 219V244.09C507.003 245.657 507.626 247.158 508.734 248.266C509.842 249.374 511.343 249.997 512.91 250H744.09C745.657 249.997 747.158 249.374 748.266 248.266C749.374 247.158 749.997 245.657 750 244.09V102.91C749.997 101.343 749.374 99.8417 748.266 98.7339C747.158 97.6261 745.657 97.0026 744.09 97Z" fill="#546C82"/>
<path opacity="0.3" d="M670 250H744.09C745.657 249.997 747.158 249.374 748.266 248.266C749.374 247.158 749.997 245.657 750 244.09V102.91C749.997 101.343 749.374 99.8417 748.266 98.7339C747.158 97.6261 745.657 97.0026 744.09 97H670" fill="#313C45"/>
<path d="M941 83H694C690.686 83 688 85.6863 688 89V244C688 247.314 690.686 250 694 250H941C944.314 250 947 247.314 947 244V89C947 85.6863 944.314 83 941 83Z" fill="white"/>
<path d="M949 244V89C949 84.5817 945.418 81 941 81L694 81C689.582 81 686 84.5817 686 89V244C686 248.418 689.582 252 694 252L941 252C945.418 252 949 248.418 949 244Z" fill="#546C82"/>
<path d="M941 83H694C690.686 83 688 85.6863 688 89V244C688 247.314 690.686 250 694 250H941C944.314 250 947 247.314 947 244V89C947 85.6863 944.314 83 941 83Z" fill="white"/>
<path d="M694 83H733V250H694C692.409 250 690.883 249.368 689.757 248.243C688.632 247.117 688 245.591 688 244V89C688 87.4087 688.632 85.8826 689.757 84.7574C690.883 83.6321 692.409 83 694 83Z" fill="#EBF2FA"/>
<path d="M947 89H688C688 87.4087 688.632 85.8826 689.757 84.7574C690.883 83.6321 692.409 83 694 83H941C942.591 83 944.117 83.6321 945.243 84.7574C946.368 85.8826 947 87.4087 947 89Z" fill="#546C82"/>
<path d="M694 83H941C942.591 83 944.117 83.6321 945.243 84.7574C946.368 85.8826 947 87.4087 947 89H688" fill="#546C82"/>
<g opacity="0.5">
<path opacity="0.5" d="M694 87C694.552 87 695 86.5523 695 86C695 85.4477 694.552 85 694 85C693.448 85 693 85.4477 693 86C693 86.5523 693.448 87 694 87Z" fill="#FF0000"/>
<path opacity="0.5" d="M698 87C698.552 87 699 86.5523 699 86C699 85.4477 698.552 85 698 85C697.448 85 697 85.4477 697 86C697 86.5523 697.448 87 698 87Z" fill="#FFFF00"/>
<path opacity="0.5" d="M702 87C702.552 87 703 86.5523 703 86C703 85.4477 702.552 85 702 85C701.448 85 701 85.4477 701 86C701 86.5523 701.448 87 702 87Z" fill="#00FF00"/>
</g>
<path d="M754.12 149H947V191H754.12C752.762 191 751.46 190.461 750.5 189.5C749.539 188.54 749 187.238 749 185.88V154.12C749 152.762 749.539 151.46 750.5 150.5C751.46 149.539 752.762 149 754.12 149Z" fill="#F4F8FC"/>
<path opacity="0.2" d="M760 191H754.12C752.762 191 751.46 190.461 750.5 189.5C749.539 188.54 749 187.238 749 185.88V154.12C749 152.762 749.539 151.46 750.5 150.5C751.46 149.539 752.762 149 754.12 149H760V191Z" fill="#FF4136"/>
<path d="M754.12 199H947V241H754.12C752.762 241 751.46 240.461 750.5 239.5C749.539 238.54 749 237.238 749 235.88V204.12C749 202.762 749.539 201.46 750.5 200.5C751.46 199.539 752.762 199 754.12 199Z" fill="#F4F8FC"/>
<path opacity="0.2" d="M760 241H754.12C752.762 241 751.46 240.461 750.5 239.5C749.539 238.54 749 237.238 749 235.88V204.12C749 202.762 749.539 201.46 750.5 200.5C751.46 199.539 752.762 199 754.12 199H760V241Z" fill="#FFC300"/>
<path d="M866 105H749V118H866V105Z" fill="#F4F8FC"/>
<path opacity="0.2" d="M937 105H924V118H937V105Z" fill="#00AB44"/>
<path opacity="0.03" d="M941 83H935.22C923.44 203 760 271 688 232V244C688 245.591 688.632 247.117 689.757 248.243C690.883 249.368 692.409 250 694 250H941C942.591 250 944.117 249.368 945.243 248.243C946.368 247.117 947 245.591 947 244V89C947 87.4087 946.368 85.8826 945.243 84.7574C944.117 83.6321 942.591 83 941 83Z" fill="#546C82"/>
<path d="M995 162H974V250H995V162Z" fill="#7799BA"/>
<path d="M990 168H978C976.895 168 976 168.895 976 170C976 171.105 976.895 172 978 172H990C991.105 172 992 171.105 992 170C992 168.895 991.105 168 990 168Z" fill="#7EA2C7"/>
<path d="M989 173H979C978.448 173 978 173.448 978 174C978 174.552 978.448 175 979 175H989C989.552 175 990 174.552 990 174C990 173.448 989.552 173 989 173Z" fill="#7EA2C7"/>
<path opacity="0.2" d="M995 162H985V250H995V162Z" fill="#5B7081"/>
<path d="M974 158H967V250H974V158Z" fill="#00AB44"/>
<path opacity="0.2" d="M974 158H971V250H974V158Z" fill="#5B7081"/>
<path d="M967 145H937V250H967V145Z" fill="#6784A1"/>
<path d="M960 157C960 155.343 958.657 154 957 154C955.343 154 954 155.343 954 157V183C954 184.657 955.343 186 957 186C958.657 186 960 184.657 960 183V157Z" fill="#7292B3"/>
<path d="M950 157C950 155.343 948.657 154 947 154C945.343 154 944 155.343 944 157V193C944 194.657 945.343 196 947 196C948.657 196 950 194.657 950 193V157Z" fill="#7292B3"/>
<path opacity="0.5" d="M967 145H952V250H967V145Z" fill="#5B7081"/>
<path d="M1051 222V220H978C974.022 220 970.206 221.58 967.393 224.393C964.58 227.206 963 231.022 963 235C963 238.978 964.58 242.794 967.393 245.607C970.206 248.42 974.022 250 978 250H1051V248C1047.69 248 1045 242.18 1045 235C1045 227.82 1047.69 222 1051 222Z" fill="#00D154"/>
<path d="M1045 235C1045 227.82 1047.69 222 1051 222H978C974.552 222 971.246 223.37 968.808 225.808C966.37 228.246 965 231.552 965 235C965 238.448 966.37 241.754 968.808 244.192C971.246 246.63 974.552 248 978 248H1051C1047.69 248 1045 242.18 1045 235Z" fill="#F6F7F7"/>
<path d="M1046.28 227H967.77C967.516 227.321 967.279 227.655 967.06 228H1046C1046.05 227.65 1046.16 227.32 1046.28 227ZM1045.28 231H965.64C965.53 231.33 965.44 231.66 965.36 232H1045.17C1045.2 231.66 1045.24 231.33 1045.29 231H1045.28ZM1045.67 229H966.47C966.3 229.33 966.14 229.66 965.99 230H1045.45C1045.53 229.66 1045.6 229.33 1045.68 229H1045.67ZM1048.67 223H973C972.337 223.281 971.699 223.616 971.09 224H1047.8C1048.06 223.638 1048.36 223.303 1048.69 223H1048.67ZM1047.15 225H969.71C969.334 225.312 968.977 225.646 968.64 226H1046.64C1046.8 225.656 1046.97 225.322 1047.17 225H1047.15ZM1045.06 233H965.17C965.17 233.33 965.08 233.66 965.05 234H1045.05C1045 233.66 1045.05 233.33 1045.08 233H1045.06ZM1046.26 243H967.77C968.05 243.35 968.33 243.68 968.64 244H1046.64C1046.54 243.68 1046.4 243.35 1046.28 243H1046.26ZM1047.15 245H969.71C970.152 245.362 970.616 245.696 971.1 246H1047.81C1047.58 245.68 1047.36 245.346 1047.17 245H1047.15ZM1045.66 241H966.46C966.64 241.34 966.83 241.68 967.04 242H1046C1045.85 241.68 1045.76 241.34 1045.68 241H1045.66ZM1044.98 235H965C965 235.34 965 235.67 965 236H1045C1045 235.67 1045 235.34 1045 235H1044.98ZM1048.67 247H973C974.584 247.66 976.284 248 978 248H1051C1050.13 247.969 1049.31 247.612 1048.69 247H1048.67ZM1045.27 239H965.64C965.75 239.34 965.87 239.67 966 240H1045.46C1045.4 239.67 1045.34 239.34 1045.29 239H1045.27ZM1045.06 237H965.17C965.22 237.34 965.29 237.67 965.36 238H1045.17C1045.13 237.67 1045.1 237.34 1045.08 237H1045.06Z" fill="#ECEDED"/>
<path opacity="0.1" d="M978 220C974.84 220.005 971.762 221.009 969.205 222.867C966.649 224.725 964.745 227.344 963.765 230.348C962.784 233.353 962.778 236.59 963.747 239.599C964.716 242.607 966.611 245.232 969.16 247.1C969.061 246.404 969.007 245.703 969 245C969 241.022 970.58 237.206 973.393 234.393C976.206 231.58 980.022 230 984 230H1045.46C1046.37 225.3 1048.46 222 1051 222V220H978Z" fill="#5B7081"/>
<path d="M1045 205V204H979C976.878 204 974.843 204.843 973.343 206.343C971.843 207.843 971 209.878 971 212C971 214.122 971.843 216.157 973.343 217.657C974.843 219.157 976.878 220 979 220H1045V219C1043.34 219 1042 215.87 1042 212C1042 208.13 1043.34 205 1045 205Z" fill="#6784A1"/>
<path d="M1045 205V204H979C976.878 204 974.843 204.843 973.343 206.343C971.843 207.843 971 209.878 971 212C971 214.122 971.843 216.157 973.343 217.657C974.843 219.157 976.878 220 979 220H1045V219C1043.34 219 1042 215.87 1042 212C1042 208.13 1043.34 205 1045 205Z" fill="#6784A1"/>
<path d="M1042 212C1042 208.13 1043.34 205 1045 205H979C977.143 205 975.363 205.737 974.05 207.05C972.737 208.363 972 210.143 972 212C972 213.857 972.737 215.637 974.05 216.95C975.363 218.263 977.143 219 979 219H1045C1043.34 219 1042 215.87 1042 212Z" fill="#F6F7F7"/>
<path d="M1042 212C1042 208.13 1043.34 205 1045 205H979C977.143 205 975.363 205.737 974.05 207.05C972.737 208.363 972 210.143 972 212C972 213.857 972.737 215.637 974.05 216.95C975.363 218.263 977.143 219 979 219H1045C1043.34 219 1042 215.87 1042 212Z" fill="#F6F7F7"/>
<path d="M1042.13 210H972.32C972.219 210.327 972.142 210.661 972.09 211H1042C1042.06 210.66 1042.08 210.32 1042.13 210ZM1042.54 208H973.28C973.059 208.318 972.861 208.652 972.69 209H1042.29C1042.36 208.65 1042.45 208.31 1042.54 208ZM1043.46 206H975.46C974.992 206.282 974.56 206.618 974.17 207H1042.94C1043.08 206.651 1043.25 206.316 1043.46 206ZM1043.46 218H975.46C976.547 218.653 977.792 218.999 979.06 219H1045.06C1044.73 218.978 1044.41 218.875 1044.13 218.701C1043.86 218.526 1043.62 218.285 1043.46 218ZM1042.54 216H973.28C973.53 216.36 973.815 216.695 974.13 217H1042.9C1042.76 216.673 1042.64 216.339 1042.54 216ZM1042 212H972C971.99 212.167 971.99 212.333 972 212.5C972.01 212.668 972.03 212.835 972.06 213H1042C1042 212.67 1042 212.34 1042 212ZM1042.13 214H972.31C972.414 214.341 972.541 214.676 972.69 215H1042.29C1042.23 214.68 1042.17 214.35 1042.13 214Z" fill="#ECEDED"/>
<path opacity="0.1" d="M979 204C977.107 204.004 975.277 204.679 973.835 205.906C972.393 207.132 971.432 208.83 971.124 210.697C970.816 212.565 971.18 214.481 972.151 216.106C973.123 217.73 974.639 218.958 976.43 219.57C976.149 218.742 976.004 217.874 976 217C976 214.878 976.843 212.843 978.343 211.343C979.843 209.843 981.878 209 984 209H1042.29C1042.77 206.64 1043.8 205 1045 205V204H979Z" fill="#5B7081"/>
<path d="M784 283H637C630.925 283 626 287.925 626 294C626 300.075 630.925 305 637 305H784C790.075 305 795 300.075 795 294C795 287.925 790.075 283 784 283Z" fill="#DEF4E7"/>
<path d="M1086 292H982C973.163 292 966 299.163 966 308C966 316.837 973.163 324 982 324H1086C1094.84 324 1102 316.837 1102 308C1102 299.163 1094.84 292 1086 292Z" fill="#DEF4E7"/>
<path d="M914.5 339H571.5C550.237 339 533 356.237 533 377.5C533 398.763 550.237 416 571.5 416H914.5C935.763 416 953 398.763 953 377.5C953 356.237 935.763 339 914.5 339Z" fill="#DEF4E7"/>
<path d="M846 466H514C486.386 466 464 488.386 464 516C464 543.614 486.386 566 514 566H846C873.614 566 896 543.614 896 516C896 488.386 873.614 466 846 466Z" fill="#DEF4E7"/>
<path d="M803 374H669.46C668.349 374 667.249 374.219 666.222 374.644C665.196 375.069 664.263 375.692 663.478 376.478C662.692 377.263 662.069 378.196 661.644 379.223C661.219 380.249 661 381.349 661 382.46V547.54C661 548.651 661.219 549.751 661.644 550.778C662.069 551.804 662.692 552.737 663.478 553.522C664.263 554.308 665.196 554.931 666.222 555.356C667.249 555.781 668.349 556 669.46 556H797C803.217 555.999 809.244 558.144 814.063 562.072C818.882 566 822.197 571.47 823.45 577.56C823.738 579.087 824.55 580.466 825.746 581.459C826.942 582.452 828.446 582.997 830 583V401C830 393.839 827.155 386.972 822.092 381.908C817.028 376.845 810.161 374 803 374Z" fill="#00AB44"/>
<path d="M803 365H670V547H797C800.501 546.996 803.969 547.675 807.21 549C812.338 550.553 817.05 553.243 820.996 556.868C824.941 560.493 828.019 564.961 830 569.94V392C830 384.839 827.155 377.972 822.092 372.908C817.028 367.845 810.161 365 803 365Z" fill="#EEEFF0"/>
<path d="M803 346H678V528H797C800.501 527.996 803.969 528.675 807.21 530C812.338 531.553 817.05 534.243 820.996 537.868C824.941 541.493 828.019 545.961 830 550.94V373C830 365.839 827.155 358.972 822.092 353.908C817.028 348.845 810.161 346 803 346Z" fill="white"/>
<path d="M857 374H990.54C992.784 374 994.936 374.891 996.522 376.478C998.109 378.064 999 380.216 999 382.46V547.54C999 549.784 998.109 551.936 996.522 553.522C994.936 555.109 992.784 556 990.54 556H863C856.783 555.999 850.756 558.144 845.937 562.072C841.118 566 837.803 571.47 836.55 577.56C836.263 579.079 835.459 580.451 834.273 581.443C833.088 582.435 831.595 582.985 830.05 583V401C830.05 393.848 832.888 386.988 837.94 381.926C842.993 376.864 849.848 374.013 857 374Z" fill="#008F39"/>
<path d="M857 365H990V547H863C859.499 546.996 856.031 547.675 852.79 549C847.662 550.553 842.95 553.243 839.004 556.868C835.059 560.493 831.981 564.961 830 569.94V392C830 384.839 832.845 377.972 837.908 372.908C842.972 367.845 849.839 365 857 365Z" fill="#DDDEDF"/>
<path d="M857 346H982V528H863C859.499 527.996 856.031 528.675 852.79 530C847.662 531.553 842.95 534.243 839.004 537.868C835.059 541.493 831.981 545.961 830 550.94V373C830 365.839 832.845 358.972 837.908 353.908C842.972 348.845 849.839 346 857 346Z" fill="#F6F7F7"/>
<path d="M678 528L670 547V365L678 346V528Z" fill="#F6F7F7"/>
<path d="M982 528L990 547V365L982 346V528Z" fill="#E5E6E6"/>
<path d="M802 370H697V450H802V370Z" fill="#DEF4E7"/>
<path d="M961 433H858V513H961V433Z" fill="#D5EBDE"/>
<path d="M792 459C792 459.796 791.684 460.559 791.121 461.121C790.559 461.684 789.796 462 789 462H700C699.204 462 698.441 461.684 697.879 461.121C697.316 460.559 697 459.796 697 459C697 458.204 697.316 457.441 697.879 456.879C698.441 456.316 699.204 456 700 456H789C789.796 456 790.559 456.316 791.121 456.879C791.684 457.441 792 458.204 792 459Z" fill="#F2F2F2"/>
<path d="M800 469C800 469.796 799.684 470.559 799.121 471.121C798.559 471.684 797.796 472 797 472H700C699.204 472 698.441 471.684 697.879 471.121C697.316 470.559 697 469.796 697 469C697 468.204 697.316 467.441 697.879 466.879C698.441 466.316 699.204 466 700 466H797C797.796 466 798.559 466.316 799.121 466.879C799.684 467.441 800 468.204 800 469Z" fill="#F2F2F2"/>
<path d="M789 479C789 479.796 788.684 480.559 788.121 481.121C787.559 481.684 786.796 482 786 482H700C699.204 482 698.441 481.684 697.879 481.121C697.316 480.559 697 479.796 697 479C697 478.204 697.316 477.441 697.879 476.879C698.441 476.316 699.204 476 700 476H786C786.796 476 787.559 476.316 788.121 476.879C788.684 477.441 789 478.204 789 479Z" fill="#F2F2F2"/>
<path d="M782 489C782 489.796 781.684 490.559 781.121 491.121C780.559 491.684 779.796 492 779 492H700C699.204 492 698.441 491.684 697.879 491.121C697.316 490.559 697 489.796 697 489C697 488.204 697.316 487.441 697.879 486.879C698.441 486.316 699.204 486 700 486H779C779.796 486 780.559 486.316 781.121 486.879C781.684 487.441 782 488.204 782 489Z" fill="#F2F2F2"/>
<path d="M758 499C758 499.796 757.684 500.559 757.121 501.121C756.559 501.684 755.796 502 755 502H700C699.204 502 698.441 501.684 697.879 501.121C697.316 500.559 697 499.796 697 499C697 498.204 697.316 497.441 697.879 496.879C698.441 496.316 699.204 496 700 496H755C755.796 496 756.559 496.316 757.121 496.879C757.684 497.441 758 498.204 758 499Z" fill="#F2F2F2"/>
<path d="M953 374C953 374.796 952.684 375.559 952.121 376.121C951.559 376.684 950.796 377 950 377H861C860.204 377 859.441 376.684 858.879 376.121C858.316 375.559 858 374.796 858 374C858 373.204 858.316 372.441 858.879 371.879C859.441 371.316 860.204 371 861 371H950C950.796 371 951.559 371.316 952.121 371.879C952.684 372.441 953 373.204 953 374Z" fill="#EBEBEB"/>
<path d="M961 384C961 384.796 960.684 385.559 960.121 386.121C959.559 386.684 958.796 387 958 387H861C860.204 387 859.441 386.684 858.879 386.121C858.316 385.559 858 384.796 858 384C858 383.204 858.316 382.441 858.879 381.879C859.441 381.316 860.204 381 861 381H958C958.796 381 959.559 381.316 960.121 381.879C960.684 382.441 961 383.204 961 384Z" fill="#EBEBEB"/>
<path d="M950 394C950 394.796 949.684 395.559 949.121 396.121C948.559 396.684 947.796 397 947 397H861C860.204 397 859.441 396.684 858.879 396.121C858.316 395.559 858 394.796 858 394C858 393.204 858.316 392.441 858.879 391.879C859.441 391.316 860.204 391 861 391H947C947.796 391 948.559 391.316 949.121 391.879C949.684 392.441 950 393.204 950 394Z" fill="#EBEBEB"/>
<path d="M943 404C943 404.796 942.684 405.559 942.121 406.121C941.559 406.684 940.796 407 940 407H861C860.204 407 859.441 406.684 858.879 406.121C858.316 405.559 858 404.796 858 404C858 403.204 858.316 402.441 858.879 401.879C859.441 401.316 860.204 401 861 401H940C940.796 401 941.559 401.316 942.121 401.879C942.684 402.441 943 403.204 943 404Z" fill="#EBEBEB"/>
<path d="M919 414C919 414.796 918.684 415.559 918.121 416.121C917.559 416.684 916.796 417 916 417H861C860.204 417 859.441 416.684 858.879 416.121C858.316 415.559 858 414.796 858 414C858 413.204 858.316 412.441 858.879 411.879C859.441 411.316 860.204 411 861 411H916C916.796 411 917.559 411.316 918.121 411.879C918.684 412.441 919 413.204 919 414Z" fill="#EBEBEB"/>
<path d="M603 250V256" stroke="#89C7A1" stroke-width="4" stroke-linecap="round" stroke-linejoin="round"/>
<path d="M603 267.82C602.636 273.564 600.095 278.952 595.896 282.888C591.697 286.823 586.155 289.009 580.4 289H504C500.817 289 497.765 290.264 495.515 292.515C493.264 294.765 492 297.817 492 301C492 304.183 493.264 307.235 495.515 309.485C497.765 311.736 500.817 313 504 313H649.5C652.55 313 655.475 314.212 657.632 316.368C659.788 318.525 661 321.45 661 324.5C661 327.55 659.788 330.475 657.632 332.632C655.475 334.788 652.55 336 649.5 336H601.72C593.307 336 585.239 339.342 579.291 345.291C573.342 351.239 570 359.307 570 367.72V405.28C570 413.693 573.342 421.761 579.291 427.709C585.239 433.658 593.307 437 601.72 437H672.09" stroke="#89C7A1" stroke-width="4" stroke-linecap="round" stroke-linejoin="round" stroke-dasharray="11.82 11.82"/>
<path d="M678 437H684" stroke="#89C7A1" stroke-width="4" stroke-linecap="round" stroke-linejoin="round"/>
<path d="M827.06 250V256" stroke="#89C7A1" stroke-width="4" stroke-linecap="round" stroke-linejoin="round"/>
<path d="M828.05 267.84C829.335 271.674 831.792 275.007 835.074 277.368C838.356 279.73 842.297 281 846.34 281H927C929.652 281 932.196 282.054 934.071 283.929C935.946 285.804 937 288.348 937 291C937 293.652 935.946 296.196 934.071 298.071C932.196 299.946 929.652 301 927 301H814.5C811.45 301 808.525 302.212 806.368 304.368C804.212 306.525 803 309.45 803 312.5C803 315.55 804.212 318.475 806.368 320.632C808.525 322.788 811.45 324 814.5 324H995.73C1000.62 323.999 1005.47 324.962 1009.99 326.834C1014.52 328.707 1018.63 331.452 1022.09 334.913C1025.55 338.374 1028.29 342.483 1030.17 347.006C1032.04 351.528 1033 356.375 1033 361.27V475.73C1033 480.625 1032.04 485.472 1030.17 489.994C1028.29 494.517 1025.55 498.626 1022.09 502.087C1018.63 505.548 1014.52 508.293 1009.99 510.166C1005.47 512.038 1000.62 513.001 995.73 513H983" stroke="#89C7A1" stroke-width="4" stroke-linecap="round" stroke-linejoin="round" stroke-dasharray="11.94 11.94"/>
<path d="M977 513H971" stroke="#89C7A1" stroke-width="4" stroke-linecap="round" stroke-linejoin="round"/>
<path opacity="0.05" d="M826 81H949V252H826V81Z" fill="#313C45"/>
</g>
<defs>
<clipPath id="clip0">
<path d="M0 0H1088V584H0V0Z" fill="white"/>
</clipPath>
</defs>
</svg>
