<svg xmlns="http://www.w3.org/2000/svg" width="1088" height="584" fill="none"><g clip-path="url(#clip0)"><path fill="#EDF9F2" d="M1004.5 232h-548c-46.116 0-83.5 37.384-83.5 83.5s37.384 83.5 83.5 83.5h548c46.12 0 83.5-37.384 83.5-83.5s-37.38-83.5-83.5-83.5z"/><path fill="#EDF9F2" d="M922 327H336c-56.885 0-103 46.115-103 103s46.115 103 103 103h586c56.885 0 103-46.115 103-103s-46.115-103-103-103z"/><path fill="#EBF8FF" d="M1082.53 0H0c0 76.77 153.34 139 342.5 139 4.43 0 8.83-.05 13.21-.11C434 169.51 552 189 684 189c187.31 0 346.45-39.26 404-93.89V4.89a118.466 118.466 0 00-5.47-4.89z"/><path fill="#E3F2FA" d="M351 42h-93a6 6 0 100 12h93a6 6 0 100-12zm56.5 19h-166c-8.008 0-14.5 6.492-14.5 14.5S233.492 90 241.5 90h166c8.008 0 14.5-6.492 14.5-14.5S415.508 61 407.5 61zM398 93H267a8 8 0 000 16h131a8 8 0 000-16zm-56.5-39h-76a3.5 3.5 0 012.475 1.025A3.502 3.502 0 01269 57.5c0 .928-.369 1.819-1.025 2.475A3.5 3.5 0 01265.5 61h76a3.5 3.5 0 01-2.475-1.025A3.502 3.502 0 01338 57.5c0-.928.369-1.819 1.025-2.475A3.5 3.5 0 01341.5 54zm48 36h-112c.398 0 .779.158 1.061.44a1.501 1.501 0 010 2.12 1.502 1.502 0 01-1.061.44h112c-.398 0-.779-.158-1.061-.44a1.501 1.501 0 010-2.12A1.502 1.502 0 01389.5 90z"/><path fill="#fff" d="M357 33h-93a6 6 0 100 12h93a6 6 0 100-12zm56.5 19h-166c-8.008 0-14.5 6.492-14.5 14.5S239.492 81 247.5 81h166c8.008 0 14.5-6.492 14.5-14.5S421.508 52 413.5 52zM404 84H273a8 8 0 000 16h131a8 8 0 000-16zm-56.5-39h-76a3.5 3.5 0 012.475 1.025A3.502 3.502 0 01275 48.5c0 .928-.369 1.819-1.025 2.475A3.5 3.5 0 01271.5 52h76a3.5 3.5 0 01-2.475-1.025A3.502 3.502 0 01344 48.5c0-.928.369-1.819 1.025-2.475A3.5 3.5 0 01347.5 45zm48 36h-112c.398 0 .779.158 1.061.44a1.501 1.501 0 010 2.12 1.502 1.502 0 01-1.061.44h112c-.398 0-.779-.158-1.061-.44a1.501 1.501 0 010-2.12A1.502 1.502 0 01395.5 81z"/><path fill="#C4ECD4" d="M1110.5 250h-633c-5.799 0-10.5 4.701-10.5 10.5s4.701 10.5 10.5 10.5h633c5.8 0 10.5-4.701 10.5-10.5s-4.7-10.5-10.5-10.5z"/><path fill="#E3F2FA" d="M1002 30H805c-6.627 0-12 5.373-12 12s5.373 12 12 12h197c6.63 0 12-5.373 12-12s-5.37-12-12-12zm50 32H909c-5.523 0-10 4.477-10 10s4.477 10 10 10h143c5.52 0 10-4.477 10-10s-4.48-10-10-10zM994 58c0-1.06.421-2.078 1.172-2.828A3.998 3.998 0 01998 54h-90c1.061 0 2.078.421 2.828 1.172A3.997 3.997 0 01912 58a3.997 3.997 0 01-1.172 2.828A3.998 3.998 0 01908 62h90a3.998 3.998 0 01-2.828-1.172A3.997 3.997 0 01994 58zm-19-32.95V25h-88v.05a2.5 2.5 0 011.438.868 2.5 2.5 0 010 3.164 2.5 2.5 0 01-1.438.868V30h88a2.5 2.5 0 01-1.438-.868 2.5 2.5 0 01-.565-1.582c0-.577.2-1.136.565-1.582A2.5 2.5 0 01975 25.1v-.05z"/><path fill="#E3F2FA" d="M1040.54 12H864.46a10.003 10.003 0 001.477 8.916A10.002 10.002 0 00874 25h157a10.003 10.003 0 004.52-1.079c1.4-.71 2.61-1.739 3.54-3.005a10.039 10.039 0 001.81-4.281c.25-1.55.14-3.137-.33-4.635z"/><path fill="#fff" d="M1011 18H814c-6.627 0-12 5.373-12 12s5.373 12 12 12h197c6.63 0 12-5.373 12-12s-5.37-12-12-12zm50 32H918c-5.523 0-10 4.477-10 10s4.477 10 10 10h143c5.52 0 10-4.477 10-10s-4.48-10-10-10zM1003 46c0-1.06.42-2.078 1.17-2.828A4.005 4.005 0 011007 42h-90c1.061 0 2.078.421 2.828 1.172A3.997 3.997 0 01921 46a3.997 3.997 0 01-1.172 2.828A3.998 3.998 0 01917 50h90c-1.06 0-2.08-.421-2.83-1.172A3.999 3.999 0 011003 46zm-19-32.95V13h-88v.05a2.5 2.5 0 011.438.868 2.5 2.5 0 010 3.164 2.5 2.5 0 01-1.438.868V18h88a2.5 2.5 0 01-1.438-.868 2.5 2.5 0 01-.565-1.582c0-.577.2-1.136.565-1.582A2.5 2.5 0 01984 13.1v-.05z"/><path fill="#fff" d="M1049.54 0H873.46a10.003 10.003 0 001.477 8.916A10 10 0 00883 13h157c1.57 0 3.12-.37 4.52-1.079 1.4-.71 2.61-1.739 3.54-3.005a10.04 10.04 0 001.81-4.281c.25-1.55.14-3.137-.33-4.635z"/><path fill="#5F7A94" d="M744.09 97H512.91a5.91 5.91 0 00-5.91 5.91v141.18a5.91 5.91 0 005.91 5.91h231.18a5.91 5.91 0 005.91-5.91V102.91a5.91 5.91 0 00-5.91-5.91z"/><path fill="#546C82" d="M512.91 97h231.18a5.91 5.91 0 015.91 5.91v.09H507v-.09a5.91 5.91 0 015.91-5.91z"/><path fill="#0F0" d="M513 101a1 1 0 100-2 1 1 0 000 2z" opacity=".5"/><path fill="#FF0" d="M517 101a1 1 0 100-2 1 1 0 000 2z" opacity=".5"/><path fill="red" d="M521 101a1 1 0 100-2 1 1 0 000 2z" opacity=".5"/><path fill="#6784A1" d="M629 189c19.882 0 36-16.118 36-36s-16.118-36-36-36-36 16.118-36 36 16.118 36 36 36z"/><path fill="#00AB44" d="M629 153l-34.73-9.49a36.642 36.642 0 012.52-6.59 36.186 36.186 0 013.75-6L629 153z"/><path fill="#5F7A94" d="M629 179c14.359 0 26-11.641 26-26s-11.641-26-26-26-26 11.641-26 26 11.641 26 26 26z"/><path fill="#5F7A94" d="M628 162l37-26v53h-38l1-27z"/><path fill="#5F7A94" d="M628 162l-37-26v53h38l-1-27z"/><path stroke="#6784A1" stroke-miterlimit="10" stroke-width="4" d="M569 153c7.18 0 13-5.82 13-13s-5.82-13-13-13-13 5.82-13 13 5.82 13 13 13z"/><path stroke="#00AB44" stroke-linecap="round" stroke-linejoin="round" stroke-width="4" d="M569 127a12.998 12.998 0 016.651 1.828 13.005 13.005 0 014.779 4.972 12.99 12.99 0 011.563 6.718 12.995 12.995 0 01-2.093 6.572"/><path stroke="#6784A1" stroke-miterlimit="10" stroke-width="4" d="M533 153c7.18 0 13-5.82 13-13s-5.82-13-13-13-13 5.82-13 13 5.82 13 13 13zm190 0c7.18 0 13-5.82 13-13s-5.82-13-13-13-13 5.82-13 13 5.82 13 13 13zm-36 0c7.18 0 13-5.82 13-13s-5.82-13-13-13-13 5.82-13 13 5.82 13 13 13z"/><path stroke="#00AB44" stroke-linecap="round" stroke-linejoin="round" stroke-width="4" d="M687 127a13.002 13.002 0 0110.78 5.73M533 127a13 13 0 015.81 1.361 12.991 12.991 0 014.589 3.814 13.004 13.004 0 012.403 5.462 13.017 13.017 0 01-.291 5.96 13.01 13.01 0 01-2.923 5.202 13.007 13.007 0 01-4.939 3.348 12.991 12.991 0 01-5.915.789A13.003 13.003 0 01526.09 151M723 127c2.571 0 5.085.762 7.222 2.191a12.999 12.999 0 014.788 5.834 12.996 12.996 0 01.74 7.511 12.995 12.995 0 01-3.558 6.656 12.995 12.995 0 01-6.656 3.558 12.996 12.996 0 01-7.511-.74 12.999 12.999 0 01-5.834-4.788A12.993 12.993 0 01710 140"/><path fill="#6784A1" d="M736 168H521v31h215v-31zm0 38H521v31h215v-31z"/><path fill="#7393B3" d="M521 196.33l5-5.33 4 4 9-12 6 5 4-5 6-4 5 2 4-2 3 3 5 3 5-2 3 5 4 3 4-2 4 4 5-2 3 4h5l5-5 3-2 5-3 2-3 5.08-3.21 2.1 3.98 5.82.23 4 4 3 1 6-5 4 5 4 4h6l2 3 4 1h5l5-1 3 2 7-6 3 4 5-1 5 2 3 1 4-3 3 2 2 1 7-3 1-4 5-3 3 1 3 3 4-1 2-6.13V199H521v-2.67zm0 16.09l3 4.58 3-1 4 2 3 4h5l3-2h5l2 3 2 4 3 2 3-3 3 3 4 4 4-4 4-4 4 1 4-3 4 2 5 5 8-7 2 5 4 4 6 2 5-1 2 1 5 1 3-2h4l6 2 6-1 2-1 2-7 6-4 3 5 3 5 1-4 3-5 1-7 3 4 1 6 4 5 2 3 2-4 2-4 2 3 3 2 4 3 5 1 9-4 2-2 3-2 3 2 2 3 5-3 4-1 4 1 6-4 3-3h4l2-2v17H521v-24.58z"/><path fill="#7597B8" d="M626.62 156l-29.93-27.65a.497.497 0 01-.143-.35c0-.131.051-.257.143-.35a.492.492 0 01.65-.08L631.38 150a3.876 3.876 0 011.115 5.365 3.876 3.876 0 01-2.452 1.669 3.872 3.872 0 01-2.913-.554 4.134 4.134 0 01-.51-.48z"/><path fill="#313C45" d="M744.09 97H628v153h116.09a5.92 5.92 0 005.91-5.91V102.91a5.92 5.92 0 00-5.91-5.91z" opacity=".1"/><path fill="#546C82" d="M744.09 97H705.5C717 226 547 255 507 219v25.09a5.92 5.92 0 005.91 5.91h231.18a5.92 5.92 0 005.91-5.91V102.91a5.92 5.92 0 00-5.91-5.91z" opacity=".2"/><path fill="#313C45" d="M670 250h74.09a5.92 5.92 0 005.91-5.91V102.91a5.92 5.92 0 00-5.91-5.91H670" opacity=".3"/><path fill="#fff" d="M941 83H694a6 6 0 00-6 6v155a6 6 0 006 6h247a6 6 0 006-6V89a6 6 0 00-6-6z"/><path fill="#546C82" d="M949 244V89a8 8 0 00-8-8H694a8 8 0 00-8 8v155a8 8 0 008 8h247a8 8 0 008-8z"/><path fill="#fff" d="M941 83H694a6 6 0 00-6 6v155a6 6 0 006 6h247a6 6 0 006-6V89a6 6 0 00-6-6z"/><path fill="#EBF2FA" d="M694 83h39v167h-39a6.003 6.003 0 01-4.243-1.757A6.003 6.003 0 01688 244V89a6 6 0 011.757-4.243A6.002 6.002 0 01694 83z"/><path fill="#546C82" d="M947 89H688a6 6 0 011.757-4.243A6.002 6.002 0 01694 83h247c1.591 0 3.117.632 4.243 1.757A6 6 0 01947 89z"/><path fill="#546C82" d="M694 83h247c1.591 0 3.117.632 4.243 1.757A6 6 0 01947 89H688"/><g opacity=".5"><path fill="red" d="M694 87a1 1 0 100-2 1 1 0 000 2z" opacity=".5"/><path fill="#FF0" d="M698 87a1 1 0 100-2 1 1 0 000 2z" opacity=".5"/><path fill="#0F0" d="M702 87a1 1 0 100-2 1 1 0 000 2z" opacity=".5"/></g><path fill="#F4F8FC" d="M754.12 149H947v42H754.12a5.116 5.116 0 01-3.62-1.5 5.116 5.116 0 01-1.5-3.62v-31.76c0-1.358.539-2.66 1.5-3.62a5.116 5.116 0 013.62-1.5z"/><path fill="#FF4136" d="M760 191h-5.88a5.116 5.116 0 01-3.62-1.5 5.116 5.116 0 01-1.5-3.62v-31.76c0-1.358.539-2.66 1.5-3.62a5.116 5.116 0 013.62-1.5H760v42z" opacity=".2"/><path fill="#F4F8FC" d="M754.12 199H947v42H754.12a5.116 5.116 0 01-3.62-1.5 5.116 5.116 0 01-1.5-3.62v-31.76c0-1.358.539-2.66 1.5-3.62a5.116 5.116 0 013.62-1.5z"/><path fill="#FFC300" d="M760 241h-5.88a5.116 5.116 0 01-3.62-1.5 5.116 5.116 0 01-1.5-3.62v-31.76c0-1.358.539-2.66 1.5-3.62a5.116 5.116 0 013.62-1.5H760v42z" opacity=".2"/><path fill="#F4F8FC" d="M866 105H749v13h117v-13z"/><path fill="#00AB44" d="M937 105h-13v13h13v-13z" opacity=".2"/><path fill="#546C82" d="M941 83h-5.78C923.44 203 760 271 688 232v12c0 1.591.632 3.117 1.757 4.243A6.003 6.003 0 00694 250h247a6.003 6.003 0 004.243-1.757A6.003 6.003 0 00947 244V89a6 6 0 00-1.757-4.243A6.002 6.002 0 00941 83z" opacity=".03"/><path fill="#7799BA" d="M995 162h-21v88h21v-88z"/><path fill="#7EA2C7" d="M990 168h-12a2 2 0 100 4h12a2 2 0 100-4zm-1 5h-10a1 1 0 000 2h10a1 1 0 000-2z"/><path fill="#5B7081" d="M995 162h-10v88h10v-88z" opacity=".2"/><path fill="#00AB44" d="M974 158h-7v92h7v-92z"/><path fill="#5B7081" d="M974 158h-3v92h3v-92z" opacity=".2"/><path fill="#6784A1" d="M967 145h-30v105h30V145z"/><path fill="#7292B3" d="M960 157a3 3 0 10-6 0v26a3 3 0 106 0v-26zm-10 0a3 3 0 10-6 0v36a3 3 0 106 0v-36z"/><path fill="#5B7081" d="M967 145h-15v105h15V145z" opacity=".5"/><path fill="#00D154" d="M1051 222v-2h-73c-3.978 0-7.794 1.58-10.607 4.393A15.001 15.001 0 00963 235c0 3.978 1.58 7.794 4.393 10.607A15.001 15.001 0 00978 250h73v-2c-3.31 0-6-5.82-6-13s2.69-13 6-13z"/><path fill="#F6F7F7" d="M1045 235c0-7.18 2.69-13 6-13h-73a13 13 0 00-9.192 3.808A12.999 12.999 0 00965 235a13 13 0 003.808 9.192A12.999 12.999 0 00978 248h73c-3.31 0-6-5.82-6-13z"/><path fill="#ECEDED" d="M1046.28 227h-78.51c-.254.321-.491.655-.71 1H1046c.05-.35.16-.68.28-1zm-1 4h-79.64c-.11.33-.2.66-.28 1h79.81c.03-.34.07-.67.12-1h-.01zm.39-2h-79.2c-.17.33-.33.66-.48 1h79.46c.08-.34.15-.67.23-1h-.01zm3-6H973c-.663.281-1.301.616-1.91 1h76.71c.26-.362.56-.697.89-1h-.02zm-1.52 2h-77.44c-.376.312-.733.646-1.07 1h78c.16-.344.33-.678.53-1h-.02zm-2.09 8h-79.89c0 .33-.09.66-.12 1h80c-.05-.34 0-.67.03-1h-.02zm1.2 10h-78.49c.28.35.56.68.87 1h78c-.1-.32-.24-.65-.36-1h-.02zm.89 2h-77.44c.442.362.906.696 1.39 1h76.71c-.23-.32-.45-.654-.64-1h-.02zm-1.49-4h-79.2c.18.34.37.68.58 1H1046c-.15-.32-.24-.66-.32-1h-.02zm-.68-6H965v1h80v-1h-.02zm3.69 12H973c1.584.66 3.284 1 5 1h73a3.458 3.458 0 01-2.31-1h-.02zm-3.4-8h-79.63c.11.34.23.67.36 1h79.46c-.06-.33-.12-.66-.17-1h-.02zm-.21-2h-79.89c.05.34.12.67.19 1h79.81c-.04-.33-.07-.66-.09-1h-.02z"/><path fill="#5B7081" d="M978 220a15.003 15.003 0 00-8.795 2.867 15.001 15.001 0 00-5.44 7.481 14.995 14.995 0 00-.018 9.251 15.004 15.004 0 005.413 7.501 16.042 16.042 0 01-.16-2.1c0-3.978 1.58-7.794 4.393-10.607A15.001 15.001 0 01984 230h61.46c.91-4.7 3-8 5.54-8v-2h-73z" opacity=".1"/><path fill="#6784A1" d="M1045 205v-1h-66a8 8 0 00-5.657 2.343 8 8 0 000 11.314A8 8 0 00979 220h66v-1c-1.66 0-3-3.13-3-7s1.34-7 3-7z"/><path fill="#6784A1" d="M1045 205v-1h-66a8 8 0 00-5.657 2.343 8 8 0 000 11.314A8 8 0 00979 220h66v-1c-1.66 0-3-3.13-3-7s1.34-7 3-7z"/><path fill="#F6F7F7" d="M1042 212c0-3.87 1.34-7 3-7h-66a6.999 6.999 0 00-7 7 6.999 6.999 0 007 7h66c-1.66 0-3-3.13-3-7z"/><path fill="#F6F7F7" d="M1042 212c0-3.87 1.34-7 3-7h-66a6.999 6.999 0 00-7 7 6.999 6.999 0 007 7h66c-1.66 0-3-3.13-3-7z"/><path fill="#ECEDED" d="M1042.13 210h-69.81a6.967 6.967 0 00-.23 1H1042c.06-.34.08-.68.13-1zm.41-2h-69.26a7.718 7.718 0 00-.59 1h69.6c.07-.35.16-.69.25-1zm.92-2h-68c-.468.282-.9.618-1.29 1h68.77c.14-.349.31-.684.52-1zm0 12h-68a7.004 7.004 0 003.6 1h66a2.018 2.018 0 01-.93-.299 2.044 2.044 0 01-.67-.701zm-.92-2h-69.26c.25.36.535.695.85 1h68.77a9.037 9.037 0 01-.36-1zm-.54-4h-70a4.17 4.17 0 00.06 1H1042v-1zm.13 2h-69.82c.104.341.231.676.38 1h69.6c-.06-.32-.12-.65-.16-1z"/><path fill="#5B7081" d="M979 204a7.995 7.995 0 00-5.165 1.906 7.999 7.999 0 00-2.711 4.791 8.005 8.005 0 001.027 5.409 8.004 8.004 0 004.279 3.464A8.113 8.113 0 01976 217a8 8 0 018-8h58.29c.48-2.36 1.51-4 2.71-4v-1h-66z" opacity=".1"/><path fill="#DEF4E7" d="M784 283H637c-6.075 0-11 4.925-11 11s4.925 11 11 11h147c6.075 0 11-4.925 11-11s-4.925-11-11-11zm302 9H982c-8.837 0-16 7.163-16 16s7.163 16 16 16h104c8.84 0 16-7.163 16-16s-7.16-16-16-16zm-171.5 47h-343c-21.263 0-38.5 17.237-38.5 38.5s17.237 38.5 38.5 38.5h343c21.263 0 38.5-17.237 38.5-38.5S935.763 339 914.5 339zM846 466H514c-27.614 0-50 22.386-50 50s22.386 50 50 50h332c27.614 0 50-22.386 50-50s-22.386-50-50-50z"/><path fill="#00AB44" d="M803 374H669.46a8.468 8.468 0 00-3.238.644 8.447 8.447 0 00-2.744 1.834 8.44 8.44 0 00-1.834 2.745 8.459 8.459 0 00-.644 3.237v165.08c0 1.111.219 2.211.644 3.238a8.447 8.447 0 001.834 2.744 8.447 8.447 0 002.744 1.834 8.468 8.468 0 003.238.644H797a27 27 0 0126.45 21.56 6.676 6.676 0 002.296 3.899A6.68 6.68 0 00830 583V401a27.003 27.003 0 00-7.908-19.092A27.003 27.003 0 00803 374z"/><path fill="#EEEFF0" d="M803 365H670v182h127a26.898 26.898 0 0110.21 2 35.655 35.655 0 0113.786 7.868A35.653 35.653 0 01830 569.94V392a27.003 27.003 0 00-7.908-19.092A27.003 27.003 0 00803 365z"/><path fill="#fff" d="M803 346H678v182h119a26.898 26.898 0 0110.21 2 35.655 35.655 0 0113.786 7.868A35.653 35.653 0 01830 550.94V373a27.003 27.003 0 00-7.908-19.092A27.003 27.003 0 00803 346z"/><path fill="#008F39" d="M857 374h133.54c2.244 0 4.396.891 5.982 2.478A8.457 8.457 0 01999 382.46v165.08a8.457 8.457 0 01-2.478 5.982A8.457 8.457 0 01990.54 556H863a27 27 0 00-26.45 21.56 6.68 6.68 0 01-6.5 5.44V401a27.002 27.002 0 017.89-19.074A27.001 27.001 0 01857 374z"/><path fill="#DDDEDF" d="M857 365h133v182H863a26.898 26.898 0 00-10.21 2 35.655 35.655 0 00-13.786 7.868A35.653 35.653 0 00830 569.94V392a27.003 27.003 0 017.908-19.092A27.003 27.003 0 01857 365z"/><path fill="#F6F7F7" d="M857 346h125v182H863a26.898 26.898 0 00-10.21 2 35.655 35.655 0 00-13.786 7.868A35.653 35.653 0 00830 550.94V373a27.003 27.003 0 017.908-19.092A27.003 27.003 0 01857 346zM678 528l-8 19V365l8-19v182z"/><path fill="#E5E6E6" d="M982 528l8 19V365l-8-19v182z"/><path fill="#DEF4E7" d="M802 370H697v80h105v-80z"/><path fill="#D5EBDE" d="M961 433H858v80h103v-80z"/><path fill="#F2F2F2" d="M792 459c0 .796-.316 1.559-.879 2.121A2.996 2.996 0 01789 462h-89a2.996 2.996 0 01-2.121-.879A2.996 2.996 0 01697 459c0-.796.316-1.559.879-2.121A2.996 2.996 0 01700 456h89c.796 0 1.559.316 2.121.879.563.562.879 1.325.879 2.121zm8 10c0 .796-.316 1.559-.879 2.121A2.996 2.996 0 01797 472h-97a2.996 2.996 0 01-2.121-.879A2.996 2.996 0 01697 469c0-.796.316-1.559.879-2.121A2.996 2.996 0 01700 466h97c.796 0 1.559.316 2.121.879.563.562.879 1.325.879 2.121zm-11 10c0 .796-.316 1.559-.879 2.121A2.996 2.996 0 01786 482h-86a2.996 2.996 0 01-2.121-.879A2.996 2.996 0 01697 479c0-.796.316-1.559.879-2.121A2.996 2.996 0 01700 476h86c.796 0 1.559.316 2.121.879.563.562.879 1.325.879 2.121zm-7 10c0 .796-.316 1.559-.879 2.121A2.996 2.996 0 01779 492h-79a2.996 2.996 0 01-2.121-.879A2.996 2.996 0 01697 489c0-.796.316-1.559.879-2.121A2.996 2.996 0 01700 486h79c.796 0 1.559.316 2.121.879.563.562.879 1.325.879 2.121zm-24 10c0 .796-.316 1.559-.879 2.121A2.996 2.996 0 01755 502h-55a2.996 2.996 0 01-2.121-.879A2.996 2.996 0 01697 499c0-.796.316-1.559.879-2.121A2.996 2.996 0 01700 496h55c.796 0 1.559.316 2.121.879.563.562.879 1.325.879 2.121z"/><path fill="#EBEBEB" d="M953 374c0 .796-.316 1.559-.879 2.121A2.996 2.996 0 01950 377h-89a2.996 2.996 0 01-2.121-.879A2.996 2.996 0 01858 374c0-.796.316-1.559.879-2.121A2.996 2.996 0 01861 371h89c.796 0 1.559.316 2.121.879.563.562.879 1.325.879 2.121zm8 10c0 .796-.316 1.559-.879 2.121A2.996 2.996 0 01958 387h-97a2.996 2.996 0 01-2.121-.879A2.996 2.996 0 01858 384c0-.796.316-1.559.879-2.121A2.996 2.996 0 01861 381h97c.796 0 1.559.316 2.121.879.563.562.879 1.325.879 2.121zm-11 10c0 .796-.316 1.559-.879 2.121A2.996 2.996 0 01947 397h-86a2.996 2.996 0 01-2.121-.879A2.996 2.996 0 01858 394c0-.796.316-1.559.879-2.121A2.996 2.996 0 01861 391h86c.796 0 1.559.316 2.121.879.563.562.879 1.325.879 2.121zm-7 10c0 .796-.316 1.559-.879 2.121A2.996 2.996 0 01940 407h-79a2.996 2.996 0 01-2.121-.879A2.996 2.996 0 01858 404c0-.796.316-1.559.879-2.121A2.996 2.996 0 01861 401h79c.796 0 1.559.316 2.121.879.563.562.879 1.325.879 2.121zm-24 10c0 .796-.316 1.559-.879 2.121A2.996 2.996 0 01916 417h-55a2.996 2.996 0 01-2.121-.879A2.996 2.996 0 01858 414c0-.796.316-1.559.879-2.121A2.996 2.996 0 01861 411h55c.796 0 1.559.316 2.121.879.563.562.879 1.325.879 2.121z"/><path stroke="#89C7A1" stroke-linecap="round" stroke-linejoin="round" stroke-width="4" d="M603 250v6"/><path stroke="#89C7A1" stroke-dasharray="11.82 11.82" stroke-linecap="round" stroke-linejoin="round" stroke-width="4" d="M603 267.82a22.613 22.613 0 01-7.104 15.068A22.61 22.61 0 01580.4 289H504a11.996 11.996 0 00-8.485 3.515A11.996 11.996 0 00492 301c0 3.183 1.264 6.235 3.515 8.485A11.996 11.996 0 00504 313h145.5c3.05 0 5.975 1.212 8.132 3.368A11.504 11.504 0 01661 324.5c0 3.05-1.212 5.975-3.368 8.132A11.504 11.504 0 01649.5 336h-47.78a31.716 31.716 0 00-22.429 9.291A31.716 31.716 0 00570 367.72v37.56a31.716 31.716 0 009.291 22.429A31.716 31.716 0 00601.72 437h70.37"/><path stroke="#89C7A1" stroke-linecap="round" stroke-linejoin="round" stroke-width="4" d="M678 437h6m143.06-187v6"/><path stroke="#89C7A1" stroke-dasharray="11.94 11.94" stroke-linecap="round" stroke-linejoin="round" stroke-width="4" d="M828.05 267.84a19.287 19.287 0 007.024 9.528A19.286 19.286 0 00846.34 281H927c2.652 0 5.196 1.054 7.071 2.929A10.001 10.001 0 01937 291c0 2.652-1.054 5.196-2.929 7.071A10.001 10.001 0 01927 301H814.5c-3.05 0-5.975 1.212-8.132 3.368A11.504 11.504 0 00803 312.5c0 3.05 1.212 5.975 3.368 8.132A11.504 11.504 0 00814.5 324h181.23c4.89-.001 9.74.962 14.26 2.834a37.208 37.208 0 0112.1 8.079c3.46 3.461 6.2 7.57 8.08 12.093a37.325 37.325 0 012.83 14.264v114.46c0 4.895-.96 9.742-2.83 14.264a37.394 37.394 0 01-8.08 12.093 37.208 37.208 0 01-12.1 8.079A37.263 37.263 0 01995.73 513H983"/><path stroke="#89C7A1" stroke-linecap="round" stroke-linejoin="round" stroke-width="4" d="M977 513h-6"/><path fill="#313C45" d="M826 81h123v171H826V81z" opacity=".05"/></g><defs><clipPath id="clip0"><path fill="#fff" d="M0 0h1088v584H0V0z"/></clipPath></defs></svg>