<svg width="352" height="168" viewBox="0 0 352 168" fill="none" xmlns="http://www.w3.org/2000/svg">
<g clip-path="url(#clip0)">
<path d="M287 15H9C4.02944 15 0 19.0294 0 24V150C0 154.971 4.02944 159 9 159H287C291.971 159 296 154.971 296 150V24C296 19.0294 291.971 15 287 15Z" fill="#E2F1F9"/>
<path d="M153 4H46C43.2386 4 41 6.23858 41 9V118C41 120.761 43.2386 123 46 123H153C155.761 123 158 120.761 158 118V9C158 6.23858 155.761 4 153 4Z" fill="#00AB44"/>
<path d="M329.72 47H149.28C145.259 47 142 50.2594 142 54.28V160.72C142 164.741 145.259 168 149.28 168H329.72C333.741 168 337 164.741 337 160.72V54.28C337 50.2594 333.741 47 329.72 47Z" fill="#C5CED6"/>
<path d="M330.1 47H148.9C146.868 47.0043 144.882 46.3894 143.209 45.2371C141.535 44.0848 140.251 42.4499 139.53 40.55L127.1 8.09C126.765 7.18772 126.651 6.21799 126.77 5.26269C126.888 4.30739 127.234 3.39456 127.779 2.60126C128.325 1.80796 129.053 1.15749 129.902 0.704742C130.752 0.251999 131.697 0.0102832 132.66 0L346.34 0C347.303 0.0102832 348.248 0.251999 349.098 0.704742C349.947 1.15749 350.675 1.80796 351.221 2.60126C351.766 3.39456 352.112 4.30739 352.23 5.26269C352.349 6.21799 352.235 7.18772 351.9 8.09L339.47 40.55C338.749 42.4499 337.465 44.0848 335.791 45.2371C334.118 46.3894 332.132 47.0043 330.1 47Z" fill="#353D45"/>
<path d="M145.39 38.91L135.63 9.48C135.422 8.85013 135.366 8.17961 135.469 7.52414C135.572 6.86867 135.829 6.24718 136.221 5.71128C136.612 5.17539 137.125 4.74056 137.718 4.44293C138.311 4.1453 138.967 3.99345 139.63 4H339.41C340.073 3.99345 340.729 4.1453 341.322 4.44293C341.915 4.74056 342.428 5.17539 342.819 5.71128C343.21 6.24718 343.468 6.86867 343.571 7.52414C343.674 8.17961 343.618 8.85013 343.41 9.48L333.65 38.91C333.249 40.1052 332.481 41.1436 331.456 41.8778C330.431 42.612 329.201 43.0047 327.94 43H151.06C149.806 42.9963 148.585 42.5997 147.568 41.8661C146.551 41.1325 145.789 40.0987 145.39 38.91Z" fill="#252B30"/>
<path d="M158.5 103H147.5C146.672 103 146 103.672 146 104.5V113.5C146 114.328 146.672 115 147.5 115H158.5C159.328 115 160 114.328 160 113.5V104.5C160 103.672 159.328 103 158.5 103Z" fill="#8494A3"/>
<path d="M169.5 89H147.5C146.672 89 146 89.6716 146 90.5V99.5C146 100.328 146.672 101 147.5 101H169.5C170.328 101 171 100.328 171 99.5V90.5C171 89.6716 170.328 89 169.5 89Z" fill="#8494A3"/>
<path d="M174.5 103H163.5C162.672 103 162 103.672 162 104.5V113.5C162 114.328 162.672 115 163.5 115H174.5C175.328 115 176 114.328 176 113.5V104.5C176 103.672 175.328 103 174.5 103Z" fill="#8494A3"/>
<path d="M185.5 89H174.5C173.672 89 173 89.6716 173 90.5V99.5C173 100.328 173.672 101 174.5 101H185.5C186.328 101 187 100.328 187 99.5V90.5C187 89.6716 186.328 89 185.5 89Z" fill="#8494A3"/>
<path d="M163.5 75H147.5C146.672 75 146 75.6716 146 76.5V85.5C146 86.3284 146.672 87 147.5 87H163.5C164.328 87 165 86.3284 165 85.5V76.5C165 75.6716 164.328 75 163.5 75Z" fill="#8494A3"/>
<path d="M179.5 75H168.5C167.672 75 167 75.6716 167 76.5V85.5C167 86.3284 167.672 87 168.5 87H179.5C180.328 87 181 86.3284 181 85.5V76.5C181 75.6716 180.328 75 179.5 75Z" fill="#8494A3"/>
<path d="M158.5 61H147.5C146.672 61 146 61.6716 146 62.5V71.5C146 72.3284 146.672 73 147.5 73H158.5C159.328 73 160 72.3284 160 71.5V62.5C160 61.6716 159.328 61 158.5 61Z" fill="#8494A3"/>
<path d="M156.5 53H147.5C146.672 53 146 53.6716 146 54.5V56.5C146 57.3284 146.672 58 147.5 58H156.5C157.328 58 158 57.3284 158 56.5V54.5C158 53.6716 157.328 53 156.5 53Z" fill="#8494A3"/>
<path d="M170.5 53H161.5C160.672 53 160 53.6716 160 54.5V56.5C160 57.3284 160.672 58 161.5 58H170.5C171.328 58 172 57.3284 172 56.5V54.5C172 53.6716 171.328 53 170.5 53Z" fill="#8494A3"/>
<path d="M184.5 53H175.5C174.672 53 174 53.6716 174 54.5V56.5C174 57.3284 174.672 58 175.5 58H184.5C185.328 58 186 57.3284 186 56.5V54.5C186 53.6716 185.328 53 184.5 53Z" fill="#8494A3"/>
<path d="M198.5 53H189.5C188.672 53 188 53.6716 188 54.5V56.5C188 57.3284 188.672 58 189.5 58H198.5C199.328 58 200 57.3284 200 56.5V54.5C200 53.6716 199.328 53 198.5 53Z" fill="#8494A3"/>
<path d="M212.5 53H203.5C202.672 53 202 53.6716 202 54.5V56.5C202 57.3284 202.672 58 203.5 58H212.5C213.328 58 214 57.3284 214 56.5V54.5C214 53.6716 213.328 53 212.5 53Z" fill="#8494A3"/>
<path d="M226.5 53H217.5C216.672 53 216 53.6716 216 54.5V56.5C216 57.3284 216.672 58 217.5 58H226.5C227.328 58 228 57.3284 228 56.5V54.5C228 53.6716 227.328 53 226.5 53Z" fill="#8494A3"/>
<path d="M240.5 53H231.5C230.672 53 230 53.6716 230 54.5V56.5C230 57.3284 230.672 58 231.5 58H240.5C241.328 58 242 57.3284 242 56.5V54.5C242 53.6716 241.328 53 240.5 53Z" fill="#8494A3"/>
<path d="M255.5 53H245.5C244.672 53 244 53.6716 244 54.5V56.5C244 57.3284 244.672 58 245.5 58H255.5C256.328 58 257 57.3284 257 56.5V54.5C257 53.6716 256.328 53 255.5 53Z" fill="#8494A3"/>
<path d="M270.5 53H260.5C259.672 53 259 53.6716 259 54.5V56.5C259 57.3284 259.672 58 260.5 58H270.5C271.328 58 272 57.3284 272 56.5V54.5C272 53.6716 271.328 53 270.5 53Z" fill="#8494A3"/>
<path d="M286.5 53H275.5C274.672 53 274 53.6716 274 54.5V56.5C274 57.3284 274.672 58 275.5 58H286.5C287.328 58 288 57.3284 288 56.5V54.5C288 53.6716 287.328 53 286.5 53Z" fill="#8494A3"/>
<path d="M301.5 53H291.5C290.672 53 290 53.6716 290 54.5V56.5C290 57.3284 290.672 58 291.5 58H301.5C302.328 58 303 57.3284 303 56.5V54.5C303 53.6716 302.328 53 301.5 53Z" fill="#8494A3"/>
<path d="M316.5 53H306.5C305.672 53 305 53.6716 305 54.5V56.5C305 57.3284 305.672 58 306.5 58H316.5C317.328 58 318 57.3284 318 56.5V54.5C318 53.6716 317.328 53 316.5 53Z" fill="#8494A3"/>
<path d="M331.5 53H321.5C320.672 53 320 53.6716 320 54.5V56.5C320 57.3284 320.672 58 321.5 58H331.5C332.328 58 333 57.3284 333 56.5V54.5C333 53.6716 332.328 53 331.5 53Z" fill="#8494A3"/>
<path d="M174.5 61H163.5C162.672 61 162 61.6716 162 62.5V71.5C162 72.3284 162.672 73 163.5 73H174.5C175.328 73 176 72.3284 176 71.5V62.5C176 61.6716 175.328 61 174.5 61Z" fill="#8494A3"/>
<path d="M190.5 61H179.5C178.672 61 178 61.6716 178 62.5V71.5C178 72.3284 178.672 73 179.5 73H190.5C191.328 73 192 72.3284 192 71.5V62.5C192 61.6716 191.328 61 190.5 61Z" fill="#8494A3"/>
<path d="M206.5 61H195.5C194.672 61 194 61.6716 194 62.5V71.5C194 72.3284 194.672 73 195.5 73H206.5C207.328 73 208 72.3284 208 71.5V62.5C208 61.6716 207.328 61 206.5 61Z" fill="#8494A3"/>
<path d="M222.5 61H211.5C210.672 61 210 61.6716 210 62.5V71.5C210 72.3284 210.672 73 211.5 73H222.5C223.328 73 224 72.3284 224 71.5V62.5C224 61.6716 223.328 61 222.5 61Z" fill="#8494A3"/>
<path d="M238.5 61H227.5C226.672 61 226 61.6716 226 62.5V71.5C226 72.3284 226.672 73 227.5 73H238.5C239.328 73 240 72.3284 240 71.5V62.5C240 61.6716 239.328 61 238.5 61Z" fill="#8494A3"/>
<path d="M254.5 61H243.5C242.672 61 242 61.6716 242 62.5V71.5C242 72.3284 242.672 73 243.5 73H254.5C255.328 73 256 72.3284 256 71.5V62.5C256 61.6716 255.328 61 254.5 61Z" fill="#8494A3"/>
<path d="M270.5 61H259.5C258.672 61 258 61.6716 258 62.5V71.5C258 72.3284 258.672 73 259.5 73H270.5C271.328 73 272 72.3284 272 71.5V62.5C272 61.6716 271.328 61 270.5 61Z" fill="#8494A3"/>
<path d="M286.5 61H275.5C274.672 61 274 61.6716 274 62.5V71.5C274 72.3284 274.672 73 275.5 73H286.5C287.328 73 288 72.3284 288 71.5V62.5C288 61.6716 287.328 61 286.5 61Z" fill="#8494A3"/>
<path d="M302.5 61H291.5C290.672 61 290 61.6716 290 62.5V71.5C290 72.3284 290.672 73 291.5 73H302.5C303.328 73 304 72.3284 304 71.5V62.5C304 61.6716 303.328 61 302.5 61Z" fill="#8494A3"/>
<path d="M331.5 61H307.5C306.672 61 306 61.6716 306 62.5V71.5C306 72.3284 306.672 73 307.5 73H331.5C332.328 73 333 72.3284 333 71.5V62.5C333 61.6716 332.328 61 331.5 61Z" fill="#8494A3"/>
<path d="M195.5 75H184.5C183.672 75 183 75.6716 183 76.5V85.5C183 86.3284 183.672 87 184.5 87H195.5C196.328 87 197 86.3284 197 85.5V76.5C197 75.6716 196.328 75 195.5 75Z" fill="#8494A3"/>
<path d="M211.5 75H200.5C199.672 75 199 75.6716 199 76.5V85.5C199 86.3284 199.672 87 200.5 87H211.5C212.328 87 213 86.3284 213 85.5V76.5C213 75.6716 212.328 75 211.5 75Z" fill="#8494A3"/>
<path d="M227.5 75H216.5C215.672 75 215 75.6716 215 76.5V85.5C215 86.3284 215.672 87 216.5 87H227.5C228.328 87 229 86.3284 229 85.5V76.5C229 75.6716 228.328 75 227.5 75Z" fill="#8494A3"/>
<path d="M243.5 75H232.5C231.672 75 231 75.6716 231 76.5V85.5C231 86.3284 231.672 87 232.5 87H243.5C244.328 87 245 86.3284 245 85.5V76.5C245 75.6716 244.328 75 243.5 75Z" fill="#8494A3"/>
<path d="M259.5 75H248.5C247.672 75 247 75.6716 247 76.5V85.5C247 86.3284 247.672 87 248.5 87H259.5C260.328 87 261 86.3284 261 85.5V76.5C261 75.6716 260.328 75 259.5 75Z" fill="#8494A3"/>
<path d="M275.5 75H264.5C263.672 75 263 75.6716 263 76.5V85.5C263 86.3284 263.672 87 264.5 87H275.5C276.328 87 277 86.3284 277 85.5V76.5C277 75.6716 276.328 75 275.5 75Z" fill="#8494A3"/>
<path d="M291.5 75H280.5C279.672 75 279 75.6716 279 76.5V85.5C279 86.3284 279.672 87 280.5 87H291.5C292.328 87 293 86.3284 293 85.5V76.5C293 75.6716 292.328 75 291.5 75Z" fill="#8494A3"/>
<path d="M307.5 75H296.5C295.672 75 295 75.6716 295 76.5V85.5C295 86.3284 295.672 87 296.5 87H307.5C308.328 87 309 86.3284 309 85.5V76.5C309 75.6716 308.328 75 307.5 75Z" fill="#8494A3"/>
<path d="M331.5 75H312.5C311.672 75 311 75.6716 311 76.5V85.5C311 86.3284 311.672 87 312.5 87H331.5C332.328 87 333 86.3284 333 85.5V76.5C333 75.6716 332.328 75 331.5 75Z" fill="#8494A3"/>
<path d="M201.5 89H190.5C189.672 89 189 89.6716 189 90.5V99.5C189 100.328 189.672 101 190.5 101H201.5C202.328 101 203 100.328 203 99.5V90.5C203 89.6716 202.328 89 201.5 89Z" fill="#8494A3"/>
<path d="M217.5 89H206.5C205.672 89 205 89.6716 205 90.5V99.5C205 100.328 205.672 101 206.5 101H217.5C218.328 101 219 100.328 219 99.5V90.5C219 89.6716 218.328 89 217.5 89Z" fill="#8494A3"/>
<path d="M233.5 89H222.5C221.672 89 221 89.6716 221 90.5V99.5C221 100.328 221.672 101 222.5 101H233.5C234.328 101 235 100.328 235 99.5V90.5C235 89.6716 234.328 89 233.5 89Z" fill="#8494A3"/>
<path d="M249.5 89H238.5C237.672 89 237 89.6716 237 90.5V99.5C237 100.328 237.672 101 238.5 101H249.5C250.328 101 251 100.328 251 99.5V90.5C251 89.6716 250.328 89 249.5 89Z" fill="#8494A3"/>
<path d="M265.5 89H254.5C253.672 89 253 89.6716 253 90.5V99.5C253 100.328 253.672 101 254.5 101H265.5C266.328 101 267 100.328 267 99.5V90.5C267 89.6716 266.328 89 265.5 89Z" fill="#8494A3"/>
<path d="M281.5 89H270.5C269.672 89 269 89.6716 269 90.5V99.5C269 100.328 269.672 101 270.5 101H281.5C282.328 101 283 100.328 283 99.5V90.5C283 89.6716 282.328 89 281.5 89Z" fill="#8494A3"/>
<path d="M297.5 89H286.5C285.672 89 285 89.6716 285 90.5V99.5C285 100.328 285.672 101 286.5 101H297.5C298.328 101 299 100.328 299 99.5V90.5C299 89.6716 298.328 89 297.5 89Z" fill="#8494A3"/>
<path d="M331.5 89H302.5C301.672 89 301 89.6716 301 90.5V99.5C301 100.328 301.672 101 302.5 101H331.5C332.328 101 333 100.328 333 99.5V90.5C333 89.6716 332.328 89 331.5 89Z" fill="#8494A3"/>
<path d="M190.5 103H179.5C178.672 103 178 103.672 178 104.5V113.5C178 114.328 178.672 115 179.5 115H190.5C191.328 115 192 114.328 192 113.5V104.5C192 103.672 191.328 103 190.5 103Z" fill="#8494A3"/>
<path d="M283.5 103H195.5C194.672 103 194 103.672 194 104.5V113.5C194 114.328 194.672 115 195.5 115H283.5C284.328 115 285 114.328 285 113.5V104.5C285 103.672 284.328 103 283.5 103Z" fill="#8494A3"/>
<path d="M299.5 103H288.5C287.672 103 287 103.672 287 104.5V113.5C287 114.328 287.672 115 288.5 115H299.5C300.328 115 301 114.328 301 113.5V104.5C301 103.672 300.328 103 299.5 103Z" fill="#8494A3"/>
<path d="M315.5 103H304.5C303.672 103 303 103.672 303 104.5V113.5C303 114.328 303.672 115 304.5 115H315.5C316.328 115 317 114.328 317 113.5V104.5C317 103.672 316.328 103 315.5 103Z" fill="#8494A3"/>
<path d="M331.5 103H320.5C319.672 103 319 103.672 319 104.5V113.5C319 114.328 319.672 115 320.5 115H331.5C332.328 115 333 114.328 333 113.5V104.5C333 103.672 332.328 103 331.5 103Z" fill="#8494A3"/>
<path d="M273.91 120H205.09C202.279 120 200 122.279 200 125.09V158.91C200 161.721 202.279 164 205.09 164H273.91C276.721 164 279 161.721 279 158.91V125.09C279 122.279 276.721 120 273.91 120Z" fill="#B7BFC7"/>
<path opacity="0.2" d="M329.72 47H149.28C147.349 47 145.498 47.767 144.132 49.1323C142.767 50.4975 142 52.3492 142 54.28V79H337V54.28C337 52.3492 336.233 50.4975 334.868 49.1323C333.502 47.767 331.651 47 329.72 47Z" fill="#1A2C3B"/>
<path opacity="0.1" d="M346.34 0H239V168H329.72C331.651 168 333.502 167.233 334.868 165.868C336.233 164.502 337 162.651 337 160.72V54.28C336.994 53.0941 336.699 51.9276 336.139 50.8819C335.58 49.8362 334.773 48.943 333.79 48.28C333.398 48.0196 332.983 47.7953 332.55 47.61C332.154 47.4486 331.746 47.3182 331.33 47.22C330.801 47.1042 330.261 47.0439 329.72 47.04H330.1C332.132 47.0443 334.118 46.4294 335.791 45.2771C337.465 44.1248 338.749 42.4899 339.47 40.59L351.9 8.09C352.235 7.18772 352.349 6.21799 352.23 5.26269C352.112 4.30739 351.766 3.39456 351.221 2.60126C350.675 1.80796 349.947 1.15749 349.098 0.704742C348.248 0.251999 347.303 0.0102832 346.34 0V0Z" fill="black"/>
<path d="M103.059 73.101L46.1032 94.9415L67.9438 151.898L124.9 130.057L103.059 73.101Z" fill="white"/>
<path d="M77.49 124.24C77.7098 124.337 77.9124 124.468 78.09 124.63C78.16 124.69 78.67 125.14 78.39 125.15C78.33 125.15 78.3 125.03 78.21 125C78.12 124.97 78.11 125.08 78.01 125C77.91 124.92 77.65 124.81 77.46 124.72C77.27 124.63 77.46 124.84 77.32 124.78C77.18 124.72 77.2 124.66 77.09 124.67C76.98 124.68 77.09 124.78 76.99 124.84C76.89 124.9 76.73 124.84 76.69 124.94C76.65 125.04 76.79 125.04 76.94 125.02C77.09 125 77.15 125.02 76.94 125.12C76.73 125.22 76.18 125.45 76.15 125.8C76.1455 126.009 76.2125 126.214 76.34 126.38C76.5523 126.595 76.8034 126.768 77.08 126.89C77.3592 126.94 77.6312 127.024 77.89 127.14C78.108 127.237 78.3417 127.295 78.58 127.31C79.0933 127.396 79.5854 127.579 80.03 127.85C80.35 128.12 80.3 128.39 80.32 128.77C80.3236 128.95 80.2673 129.126 80.16 129.27C80.05 129.38 79.89 129.38 79.82 129.53C79.7018 129.804 79.5397 130.058 79.34 130.28C79.19 130.28 79.34 130.14 79.25 130.02C79.16 129.9 79.05 129.91 79.1 129.97C79.1433 130.059 79.1658 130.156 79.1658 130.255C79.1658 130.354 79.1433 130.451 79.1 130.54C78.89 130.75 78.64 131.04 78.32 130.93C78 130.82 78.09 130.87 78.03 130.7C77.97 130.53 78.09 130.47 78.26 130.32C78.6028 129.907 78.9042 129.462 79.16 128.99C79.16 128.9 79.52 128.55 79.44 128.44C79.2 128.13 78.24 128.17 77.38 127.75C76.8365 127.578 76.3235 127.322 75.86 126.99C75.7 126.81 75.45 126.49 75.49 126.24C75.53 125.99 75.31 126.01 75.24 125.85C75.17 125.69 75.74 124.61 75.98 124.5C76.4333 124.228 76.9718 124.135 77.49 124.24ZM75.58 126.32C75.58 126.58 76.07 126.58 75.85 126.32C75.63 126.06 75.67 126.19 75.58 126.32Z" fill="#00AB44"/>
<path d="M80.69 113C80.69 113.08 80.59 112.9 80.49 112.9C80.39 112.9 80.35 112.96 80.31 112.99C80.3197 113.137 80.35 113.282 80.4 113.42C80.48 113.61 80.65 113.32 80.68 113.48C80.7872 113.97 80.8475 114.469 80.86 114.97C81.02 115.88 80.86 117.3 80.98 117.97C81.1468 118.884 81.2304 119.811 81.23 120.74C81.23 120.86 81.23 121.28 81.29 121.31C81.4177 121.332 81.5491 121.307 81.66 121.24C82 121.1 82.27 120.86 82.59 120.71C82.65 120.71 83.31 120.3 83.29 120.15C83.27 120 83.6 120.15 83.63 120.15C83.66 120.15 83.63 120.28 83.63 120.29C83.63 120.3 83.63 120.05 83.72 120.12C83.88 120.37 83.72 120.27 83.62 120.39C83.52 120.51 83.75 120.57 83.62 120.56C83.49 120.55 83.51 120.36 83.45 120.46C83.39 120.56 83.39 120.57 83.45 120.61C83.4889 120.597 83.531 120.597 83.57 120.61C83.65 120.72 83.14 120.97 83.03 121.05C82.753 121.367 82.4123 121.623 82.03 121.8C81.749 121.941 81.521 122.169 81.38 122.45C81.27 122.79 81.48 123.17 81.57 123.5C81.7676 124.408 82.0592 125.293 82.44 126.14C82.5554 126.377 82.6892 126.604 82.84 126.82C82.99 127.01 83.07 126.82 83.19 126.67C83.4089 126.494 83.616 126.303 83.81 126.1C83.81 126.04 83.72 125.98 83.81 125.98C83.9 125.98 83.81 126.14 83.9 126.16C83.99 126.18 84.1 125.99 84.07 125.92C84.04 125.85 83.95 125.92 83.83 125.82C83.71 125.72 83.83 125.38 84.01 125.47C84.19 125.56 84.1 125.47 84.11 125.6C84.12 125.73 84.02 125.76 84.11 125.77C84.2 125.78 84.11 125.62 84.11 125.65C84.11 125.68 84.26 125.82 84.21 125.88C84.16 125.94 84.12 125.88 84.09 125.88C84.06 125.88 84.21 125.95 84.09 126.03C83.97 126.11 84.09 126.22 84.09 126.41C84.1054 126.55 84.0738 126.69 84 126.81C84 126.89 83.82 126.94 83.84 127C83.86 127.06 83.9 127.07 83.84 127.11H83.72L83.46 127.45C83.34 127.54 83.27 127.66 83.13 127.65C82.99 127.64 82.93 127.73 82.76 127.73C82.4007 127.65 82.0878 127.431 81.89 127.12C81.4994 126.544 81.1961 125.914 80.99 125.25C80.7576 124.54 80.5902 123.81 80.49 123.07C80.36 122.35 79.64 122.76 79.17 122.87C78.8768 122.951 78.57 122.971 78.2689 122.928C77.9678 122.885 77.6788 122.78 77.42 122.62C76.78 122.1 77.42 121.24 78.04 121.11C78.04 121.23 77.97 121.35 77.94 121.49C77.91 121.63 77.94 121.56 77.79 121.63C77.64 121.7 77.39 122.13 77.67 122.19C77.78 122.19 77.82 121.96 77.94 121.98C78.06 122 78.01 122.05 78.12 121.98C78.3714 121.968 78.6218 121.941 78.87 121.9C79.3 121.9 80.31 121.8 80.22 121.17C80.1535 120.599 80.1201 120.025 80.12 119.45C80.048 118.97 80.0079 118.485 80 118V117C80 116.06 79.9 114.37 80 113.48V113C80 112.81 80.28 112.63 80.44 112.69C80.6 112.75 80.72 112.84 80.69 113ZM83.99 120.34C83.9 120.34 83.83 120.2 83.86 120.11C83.89 120.02 84.12 120.22 84 120.32L83.99 120.34Z" fill="#00AB44"/>
<path d="M91 120.41C91 120.59 91.25 120.55 91.14 120.71L91 121.05C90.9811 121.184 90.9279 121.31 90.8455 121.417C90.7631 121.524 90.6544 121.608 90.53 121.66C90.2916 121.736 90.0373 121.748 89.793 121.693C89.5487 121.639 89.3233 121.52 89.14 121.35C88.9535 121.148 88.7798 120.934 88.62 120.71C88.49 120.53 88.62 120.41 88.62 120.19C88.62 119.97 88.85 119.48 88.54 119.41C88.23 119.34 88.54 119.49 88.6 119.89C88.6 119.98 88.26 119.81 88.15 120.09C88.04 120.37 88.03 120.28 88.15 120.35C88.27 120.42 88.08 121.23 88.03 121.41C87.9793 121.66 87.9057 121.904 87.81 122.14C87.69 122.35 87.57 122.14 87.51 122.35C87.45 122.56 87.51 122.58 87.36 122.65C87.21 122.72 86.92 122.97 87.19 123.04C87.46 123.11 87.19 122.76 87.3 122.85C87.41 122.94 87.3 123.02 87.47 122.92C87.64 122.82 87.6 122.73 87.71 122.77C87.82 122.81 87.42 123.53 87.29 123.77C87.1588 123.984 86.9518 124.141 86.71 124.21C86.49 124.29 86.29 124.07 86.07 124.05C85.85 124.03 85.48 123.5 85.4 123.3C85.2254 122.923 85.0945 122.527 85.01 122.12L84.84 121.02C84.8201 120.794 84.8201 120.566 84.84 120.34C84.84 120.06 84.84 119.79 85.08 119.61C85.16 119.41 84.95 119.29 85.14 119.07C85.14 119.07 85.33 118.74 85.36 118.72C85.44 118.46 85.87 118.44 86.08 118.4C86.47 118.33 86.94 118.3 86.97 118.91C86.9577 119.06 86.9817 119.211 87.04 119.35C87.12 119.52 87.04 119.75 86.88 119.59C87.04 119.47 87.01 119.42 86.88 119.3C86.75 119.18 86.93 119.49 86.8 119.5C86.67 119.51 86.46 119.31 86.28 119.22C86.1 119.13 86.02 119.32 85.95 119.47C85.9012 119.603 85.8445 119.734 85.78 119.86C85.65 119.86 85.46 119.75 85.43 119.86C85.4 119.97 85.91 119.86 85.84 119.96C85.39 120.59 85.84 121.12 85.84 121.83C85.8593 122.125 85.9521 122.41 86.11 122.66C86.25 123 86.44 123.49 86.7 123.01C86.7735 122.915 86.8403 122.814 86.9 122.71C87.1446 122.129 87.2867 121.51 87.32 120.88C87.32 120.53 87.32 120.22 87.32 119.88C87.32 119.54 87.49 119.37 87.32 119.05C87.3626 118.709 87.4431 118.373 87.56 118.05C87.5617 117.834 87.6396 117.625 87.78 117.46C87.92 117.3 88.25 117.52 88.4 117.65C88.55 117.78 88.6 118.06 88.68 118.29C88.805 118.953 89.0028 119.6 89.27 120.22C89.4018 120.393 89.5688 120.536 89.76 120.64C89.97 120.79 90.27 120.93 90.51 120.72C90.75 120.51 91.04 120.08 91.1 120.34C91.18 120.41 91 120.35 91 120.41ZM88 122.31C88.08 122.44 88 122.43 87.87 122.31C87.84 122.09 87.83 122.14 87.94 122.31H88ZM87.37 119.39C87.2 119.28 87.17 119.21 87.21 118.99C87.32 118.99 87.21 118.99 87.34 119.04C87.47 119.09 87.4 119.44 87.31 119.39H87.37Z" fill="#00AB44"/>
<path d="M95.17 113.32C94.9193 113.465 94.6245 113.515 94.34 113.46C94.2037 113.445 94.0662 113.445 93.93 113.46C93.87 113.46 93.83 113.23 93.8 113.23C93.77 113.23 93.59 113.23 93.5 113.23C93.41 113.23 93.24 113.23 93.05 113.23C92.66 113.23 92.61 113.45 92.39 113.71C92.0083 114.666 91.7984 115.681 91.77 116.71C91.6893 117.274 91.6893 117.846 91.77 118.41C91.8738 118.595 91.9513 118.794 92 119C92 119.28 91.8 119.54 91.55 119.49C91.3558 119.441 91.1855 119.324 91.07 119.16C90.99 119.06 91.07 118.88 91.07 118.73C90.9039 117.564 90.5669 116.428 90.07 115.36C90.108 115.213 90.1281 115.062 90.13 114.91C90.13 114.77 89.97 114.73 89.94 114.85C89.91 114.97 89.94 115.17 89.94 115.24C89.94 115.31 89.82 114.88 89.84 114.87C89.8529 114.752 89.8941 114.639 89.96 114.54C90.1 114.36 90.39 114.54 90.55 114.6C90.71 114.66 90.88 115.34 91.08 115.47C91.2399 114.911 91.3668 114.344 91.46 113.77C91.6499 113.278 91.9166 112.819 92.25 112.41C92.3258 112.305 92.4301 112.224 92.5506 112.176C92.6711 112.128 92.8027 112.116 92.93 112.14C93.15 112.14 93.31 112.08 93.51 112.14C93.8998 112.259 94.2728 112.427 94.62 112.64C94.82 112.8 94.68 112.83 94.9 112.9C95.12 112.97 94.99 113.27 95.13 113.17C95.27 113.07 95.09 113.24 95.17 113.32Z" fill="#00AB44"/>
<path d="M96.34 100.94C96.34 101.02 96.23 100.83 96.14 100.84C96.05 100.85 96 100.9 95.95 100.93C95.9681 101.073 96.0016 101.214 96.05 101.35C96.13 101.55 96.3 101.25 96.33 101.42C96.4317 101.907 96.4919 102.402 96.51 102.9C96.67 103.81 96.51 105.24 96.63 105.96C96.7918 106.875 96.8754 107.801 96.88 108.73C96.88 108.85 96.82 109.27 96.94 109.3C97.0689 109.317 97.1997 109.289 97.31 109.22C97.64 109.08 97.91 108.85 98.24 108.69C98.3 108.69 98.96 108.28 98.94 108.13C98.92 107.98 99.25 108.13 99.28 108.18C99.31 108.23 99.28 108.31 99.28 108.31C99.28 108.31 99.28 108.08 99.36 108.15C99.53 108.4 99.36 108.29 99.26 108.42C99.16 108.55 99.4 108.59 99.26 108.58C99.12 108.57 99.15 108.38 99.08 108.48C99.01 108.58 99.08 108.59 99.08 108.63C99.123 108.635 99.1623 108.657 99.19 108.69C99.27 108.79 98.76 109.04 98.66 109.12C98.384 109.441 98.0432 109.7 97.66 109.88C97.3775 110.014 97.1485 110.24 97.01 110.52C96.89 110.87 97.11 111.24 97.2 111.52C97.3915 112.433 97.6833 113.321 98.07 114.17C98.1839 114.408 98.3177 114.635 98.47 114.85C98.62 115.04 98.69 114.85 98.82 114.7C99.0389 114.52 99.246 114.326 99.44 114.12C99.44 114.06 99.35 114.01 99.44 114C99.53 113.99 99.44 114.17 99.53 114.19C99.62 114.21 99.73 114.01 99.7 113.94C99.67 113.87 99.57 113.94 99.46 113.85C99.35 113.76 99.46 113.41 99.63 113.5C99.8 113.59 99.72 113.5 99.74 113.63C99.76 113.76 99.65 113.79 99.74 113.79C99.83 113.79 99.74 113.65 99.74 113.68C99.74 113.71 99.89 113.84 99.84 113.9C99.79 113.96 99.75 113.9 99.72 113.9C99.69 113.9 99.84 113.97 99.72 114.04C99.6 114.11 99.72 114.24 99.72 114.42C99.7289 114.56 99.6939 114.7 99.62 114.82C99.62 114.91 99.45 114.96 99.47 115.01C99.49 115.06 99.47 115.09 99.47 115.12H99.34L99.09 115.46C98.97 115.55 98.9 115.68 98.75 115.67C98.6 115.66 98.56 115.75 98.38 115.74C98.0256 115.661 97.7166 115.445 97.52 115.14C97.1273 114.566 96.8239 113.935 96.62 113.27C96.3839 112.561 96.2165 111.831 96.12 111.09C95.99 110.37 95.27 110.78 94.79 110.89C94.4965 110.969 94.1902 110.987 93.8894 110.944C93.5887 110.901 93.2997 110.798 93.04 110.64C92.41 110.11 93.04 109.26 93.67 109.12C93.67 109.25 93.59 109.37 93.56 109.51C93.53 109.65 93.56 109.57 93.41 109.65C93.26 109.73 93.02 110.14 93.3 110.2C93.4 110.2 93.45 109.97 93.57 110C93.69 110.03 93.64 110.06 93.75 110.05C94.0015 110.034 94.2519 110.004 94.5 109.96C94.93 109.96 95.93 109.87 95.84 109.23C95.77 109.08 95.77 107.79 95.75 107.52C95.6248 106.954 95.5446 106.379 95.51 105.8V104.8C95.51 103.86 95.42 102.17 95.51 101.28V101C95.51 100.81 95.79 100.62 95.95 100.69C96.11 100.76 96.37 100.8 96.34 100.94ZM99.64 108.28C99.55 108.28 99.48 108.14 99.51 108.05C99.54 107.96 99.77 108.18 99.64 108.28Z" fill="#00AB44"/>
<path d="M110.08 113.9C110.08 113.8 110.19 113.73 110.19 113.77C110.25 113.56 110.29 113.57 110.19 113.52C110.09 113.47 110.34 113.26 110.29 113.42L110.44 113.04L110.31 113.25C110.31 113.16 110.51 112.91 110.48 112.82L110.28 113.21C110.236 113.323 110.179 113.43 110.11 113.53C110.11 113.53 110.11 113.53 110.11 113.45C109.86 113.91 110.11 113.62 109.95 114.02C109.976 113.965 110.023 113.922 110.08 113.9Z" fill="#20B65C"/>
<path d="M109.74 114.22V114.42C109.693 114.513 109.636 114.6 109.57 114.68C109.57 114.68 109.49 114.9 109.57 114.79C109.65 114.68 109.57 114.7 109.64 114.66C109.71 114.62 109.44 115.03 109.54 114.98C109.622 114.86 109.686 114.729 109.73 114.59C109.804 114.442 109.891 114.302 109.99 114.17C109.99 114.1 109.99 114.08 109.99 114H109.92C109.894 114.065 109.864 114.129 109.83 114.19L109.9 113.83C109.78 113.89 109.66 114.23 109.57 114.34C109.71 114.24 109.53 114.5 109.74 114.22Z" fill="#20B65C"/>
<path d="M91 133.53C90.93 133.53 90.92 133.6 90.92 133.62L91.66 133.13C91.66 133.13 91.4 133.25 91.53 133.13C91.4233 133.175 91.3303 133.248 91.26 133.34V133.28C91.11 133.42 90.95 133.43 91.04 133.33L90.66 133.79C90.91 133.7 90.83 133.67 91 133.53Z" fill="#20B65C"/>
<path d="M90.64 133.91L90.51 134.05C90.5588 134.009 90.6025 133.962 90.64 133.91Z" fill="#20B65C"/>
<path d="M93 131L92.71 131.26C92.71 131.21 92.59 131.32 92.64 131.26C92.69 131.2 92.51 131.37 92.55 131.36L92.61 131.31C92.48 131.48 92.61 131.44 92.35 131.67C92.4785 131.614 92.5917 131.529 92.68 131.42L92.76 131.35C92.8322 131.268 92.899 131.181 92.96 131.09L93 131Z" fill="#20B65C"/>
<path d="M79.39 138.24C79.39 138.24 79.47 138.22 79.39 138.24V138.24Z" fill="#20B65C"/>
<path d="M90.67 133.84C90.6748 133.863 90.6748 133.887 90.67 133.91L90.76 133.81L90.67 133.84Z" fill="#20B65C"/>
<path d="M90.84 133.54L91.11 133.35L91.19 133.26L90.84 133.54Z" fill="#20B65C"/>
<path d="M87.71 135.86C87.09 136.17 87.82 135.71 87.53 135.86C87.24 136.01 87.32 136.02 87.22 136.08C87.69 135.81 87.22 136.23 87.7 135.97C87.7 136.07 87.37 136.21 87.19 136.28C87.01 136.35 87.34 136.15 87.35 136.07C87.16 136.18 87.2 136.17 87.13 136.25C86.81 136.39 86.52 136.64 86.29 136.65C86.1719 136.709 86.0665 136.79 85.98 136.89C85.98 136.97 86.33 136.76 86.44 136.77C86.55 136.78 86.38 136.77 86.44 136.77L86.64 136.69C86.45 136.76 86.64 136.61 86.74 136.56C86.84 136.51 86.95 136.45 86.94 136.48L86.84 136.54C86.99 136.54 87.13 136.34 87.29 136.31C87.45 136.28 87.29 136.31 87.29 136.37C87.462 136.238 87.6424 136.118 87.83 136.01L87.72 136.15C88.0034 135.93 88.3166 135.752 88.65 135.62C88.65 135.62 88.55 135.62 88.58 135.62C88.61 135.62 88.9 135.47 88.84 135.55C88.98 135.4 89.52 135.22 89.71 135.02L90.6 134.09L90.49 134.18C90.35 134.18 90.31 134.18 90.49 134.07C90.34 134.19 90.43 134.2 90.18 134.34C90.26 134.26 90.25 134.18 90 134.34C89.43 134.74 89.12 135.13 88.6 135.54C88.3545 135.626 88.1197 135.74 87.9 135.88C88.0047 135.759 88.13 135.657 88.27 135.58L87.85 135.81L87.71 135.86Z" fill="#20B65C"/>
<path d="M90.47 133.83C90.5018 133.805 90.5289 133.775 90.55 133.74L90.48 133.8C90.48 133.8 90.45 133.83 90.47 133.83Z" fill="#20B65C"/>
<path d="M90.64 133.83C90.64 133.83 90.66 133.82 90.64 133.83V133.83Z" fill="#20B65C"/>
<path d="M87 136.12C87.21 136.01 87 136.04 87.3 135.9H87.2C87.41 135.76 87.8 135.59 88.05 135.44C88.05 135.44 88.22 135.38 88.21 135.44C88.3569 135.355 88.4915 135.251 88.61 135.13C88.72 135.13 88.86 134.96 89.01 134.9C88.94 134.9 89.15 134.71 88.84 134.9C88.6752 134.981 88.5207 135.082 88.38 135.2C88.25 135.2 88.53 135.06 88.38 135.11C88.23 135.16 87.66 135.49 87.72 135.57C87.6445 135.626 87.5538 135.657 87.46 135.66C87.24 135.89 86.46 136.11 86.46 136.23C86.5971 136.164 86.7306 136.09 86.86 136.01L87 136.12Z" fill="#20B65C"/>
<path d="M92.88 132.74V132.87C92.41 133.2 92.23 133.29 91.81 133.57C91.52 133.77 91.07 134.05 90.88 134.22C90.69 134.39 90.51 134.4 90.6 134.33L90.45 134.43C90.45 134.43 90.57 134.35 90.56 134.32C90.55 134.29 90.49 134.32 90.49 134.32C90.49 134.32 90.35 134.26 90.69 134.07C90.86 134.07 90.46 134.22 90.58 134.24C90.7 134.26 90.67 134.16 90.67 134.14C90.67 134.12 90.82 134.08 90.82 134.14C90.82 134.2 91.05 134 91.1 133.92C91.37 133.74 91.1 133.98 91.3 133.92V133.78L91.6 133.6C92.01 133.3 91.46 133.52 91.92 133.16C91.92 133.24 92.11 133.16 92.34 133.04C92.1701 133.182 91.9933 133.316 91.81 133.44C92.09 133.33 91.48 133.66 91.65 133.64C91.7858 133.507 91.9409 133.396 92.11 133.31C92.29 133.21 92.36 133.05 92.61 132.93C92.86 132.81 92.72 132.93 92.71 132.93C92.7 132.93 92.87 132.72 92.88 132.74ZM92.65 132.92L92.49 133.01C92.5472 132.987 92.601 132.957 92.65 132.92Z" fill="#20B65C"/>
<path d="M97.56 127.94L97.64 127.88L97.56 127.94Z" fill="#20B65C"/>
<path d="M99.14 126.2L99.24 126.09L99.14 126.2Z" fill="#20B65C"/>
<path d="M107.71 117.35V117.36L107.7 117.38L107.71 117.35Z" fill="#20B65C"/>
<path d="M102.66 123.12C102.688 123.111 102.712 123.093 102.73 123.07L102.66 123.12Z" fill="#20B65C"/>
<path d="M99.12 126.22H99.13L99.14 126.2L99.12 126.22Z" fill="#20B65C"/>
<path d="M93.92 130.56L93.82 130.65L93.92 130.56Z" fill="#20B65C"/>
<path d="M109.21 115.39L109.27 115.28C109.244 115.313 109.224 115.35 109.21 115.39Z" fill="#20B65C"/>
<path d="M104.15 121.73C104.15 121.73 104.25 121.65 104.24 121.73C104.23 121.81 104.24 121.6 104.15 121.73Z" fill="#20B65C"/>
<path d="M109.2 116.61C109.2 116.61 109.2 116.61 109.2 116.53C109.2 116.45 109.19 116.63 109.2 116.61Z" fill="#20B65C"/>
<path d="M109.33 115.2C109.33 115.2 109.58 114.7 109.33 115.07C109.33 115.07 109.46 114.82 109.51 114.71C109.45 114.77 109.51 114.65 109.46 114.71C109.435 114.78 109.401 114.848 109.36 114.91C109.36 114.91 109.36 114.8 109.44 114.71C109.34 114.81 109.5 114.53 109.37 114.71C109.173 115.019 109.025 115.356 108.93 115.71C109.039 115.493 109.167 115.286 109.31 115.09V115.19C109.179 115.344 109.065 115.511 108.97 115.69L109.27 115.27C109.44 115.1 109.36 115.27 109.27 115.4C109.267 115.328 109.288 115.258 109.33 115.2Z" fill="#20B65C"/>
<path d="M109.55 115.75L109.56 115.74L109.57 115.72L109.55 115.75Z" fill="#20B65C"/>
<path d="M99.49 127.25C99.49 127.25 99.45 127.27 99.49 127.25V127.25Z" fill="#20B65C"/>
<path d="M103.8 121.74C103.779 121.774 103.752 121.805 103.72 121.83C103.752 121.805 103.779 121.774 103.8 121.74Z" fill="#20B65C"/>
<path d="M95.48 130.79V130.84C95.4762 130.824 95.4762 130.806 95.48 130.79Z" fill="#20B65C"/>
<path d="M100.49 125.97L100.47 126L100.49 125.99V125.97Z" fill="#20B65C"/>
<path d="M100.93 125.63C101.06 125.49 101.33 125.25 101.32 125.18C101.31 125.11 101.01 125.45 101.03 125.38C100.928 125.472 100.821 125.559 100.71 125.64C100.9 125.51 100.71 125.64 100.71 125.78C100.71 125.92 100.71 125.72 100.61 125.78L100.38 125.99L100.59 125.81V125.91C100.84 125.62 100.59 126 100.93 125.63Z" fill="#20B65C"/>
<path d="M100.91 125.67V125.73C100.915 125.71 100.915 125.69 100.91 125.67Z" fill="#20B65C"/>
<path d="M102.34 124.4L102.4 124.33L102.34 124.4Z" fill="#20B65C"/>
<path d="M91.39 133.13C91.39 133.13 91.66 133.02 91.63 132.99L91.42 133.11L91.39 133.13Z" fill="#20B65C"/>
<path d="M105.71 120.42L105.65 120.49L105.71 120.42Z" fill="#20B65C"/>
<path d="M101.05 125.35C101.044 125.373 101.044 125.397 101.05 125.42C101.05 125.42 101.05 125.37 101.05 125.35Z" fill="#20B65C"/>
<path d="M105.8 120.47C105.833 120.465 105.867 120.465 105.9 120.47C105.9 120.41 105.97 120.36 106.02 120.29C105.95 120.355 105.877 120.415 105.8 120.47Z" fill="#20B65C"/>
<path d="M81.72 137.85C81.7062 137.862 81.6871 137.87 81.6659 137.877C81.5948 137.92 81.4802 137.991 81.41 138.02C81.29 138.07 80.61 138.27 80.72 138.12C80.17 138.31 79.39 138.54 79.03 138.69C78.9 138.69 78.66 138.76 78.79 138.69C78.5929 138.788 78.3895 138.872 78.1812 138.943C78.1753 139 78 139 78 139C78.0608 138.982 78.1212 138.963 78.1812 138.943C78.1817 138.939 78.1813 138.934 78.18 138.93C77.9133 139.013 77.672 138.943 77.2851 139.048C77.2732 139.08 77.2488 139.08 77.18 139.08C77.2162 139.068 77.2512 139.057 77.2851 139.048C77.287 139.043 77.2886 139.037 77.29 139.03C77.3 138.98 77.1 139.1 76.99 139.13C76.5757 139.182 76.165 139.259 75.76 139.36C75.3573 139.428 74.9499 139.464 74.5416 139.47C74.5314 139.47 74.5208 139.47 74.51 139.47C74.5205 139.47 74.5311 139.47 74.5416 139.47C74.7781 139.464 74.87 139.399 74.87 139.37H74.62C74.4716 139.403 74.3213 139.426 74.17 139.44C73.67 139.44 73.39 139.59 72.78 139.57L73.52 139.42H73.34L73.66 139.35C73.47 139.35 73.3 139.41 73.28 139.35C73.2783 139.345 73.2779 139.341 73.2785 139.338C73.2122 139.336 73.1458 139.34 73.08 139.35C73.5651 139.255 74.0563 139.195 74.55 139.17H74.75C74.66 139.17 74.81 139.17 74.91 139.12C75.01 139.07 75.51 139.12 75.66 139.17C76.23 139.06 75.55 139.06 76.11 138.99H76.29C76.6492 138.874 77.017 138.787 77.39 138.73C77.6204 138.676 77.8543 138.64 78.09 138.62C78.39 138.53 78.9 138.35 79.24 138.21C79.36 138.26 78.8 138.4 78.66 138.49L78.9682 138.403C78.8365 138.441 78.712 138.501 78.6 138.58C78.8152 138.511 79.0257 138.427 79.23 138.33H79.37V138.28H79.42L79.89 138.12C79.8107 138.105 79.7293 138.105 79.65 138.12L79.47 138.2C79.57 138.14 79.35 138.2 79.34 138.2L80.04 137.98H80.11C80.35 137.98 80.59 137.83 80.75 137.8C81.03 137.73 81.3 137.63 81.56 137.59C81.82 137.55 82.08 137.29 82.26 137.16C82.44 137.03 83 136.95 83.26 136.77C83.1819 136.856 83.0947 136.933 83 137C83.19 136.94 83.31 136.82 83.39 136.85C82.97 136.99 83.39 136.85 83.25 136.98C83.4132 136.917 83.5705 136.84 83.72 136.75C83.41 136.87 83.8 136.63 83.5 136.75C83.7627 136.588 84.0449 136.46 84.34 136.37H84.495C84.5009 136.365 84.5095 136.358 84.5192 136.351L84.57 136.3C84.6396 136.268 84.5659 136.316 84.5192 136.351L84.5 136.37H84.495C84.4766 136.387 84.4853 136.389 84.57 136.35C84.81 136.24 85.41 135.98 85.47 135.82C85.7 135.76 85.1 136.05 85.47 135.95C85.3 136.08 85.03 136.16 85 136.24C85.17 136.14 85.08 136.24 85.2 136.24L85.38 136.11C85.69 135.9 86.23 135.67 86.65 135.45C86.9687 135.215 87.3028 135.001 87.65 134.81C87.55 134.91 88.01 134.64 87.78 134.81C87.9226 134.759 88.0499 134.673 88.15 134.56C88.0822 134.595 88.012 134.625 87.94 134.65C88.0647 134.551 88.2027 134.47 88.35 134.41C88.56 134.32 88.43 134.33 88.57 134.23C88.71 134.13 88.9 134.06 89.04 134L89.2 133.84C89.12 133.94 89.4 133.74 89.45 133.76C89.5762 133.629 89.7211 133.518 89.88 133.43C89.8 133.5 90.09 133.35 90.11 133.38C90.5 133.22 90.63 132.92 91 132.76C91.06 132.68 91.2 132.62 91.28 132.56L91.34 132.5C91.4649 132.349 91.6057 132.211 91.76 132.09C91.71 132.09 91.49 132.23 91.4 132.3L91.34 132.4C91.22 132.4 91.1 132.57 91.02 132.6C91.2724 132.356 91.5426 132.131 91.8284 131.926C91.7385 131.96 91.6499 131.998 91.5629 132.038C91.4455 132.099 91.3307 132.164 91.219 132.234C91.2196 132.236 91.22 132.238 91.22 132.24C91.1662 132.294 91.1164 132.333 91.069 132.362L91.12 132.34L90.95 132.45L91.15 132.39C90.9934 132.473 90.8708 132.573 90.7352 132.658C90.8832 132.572 90.9629 132.587 90.87 132.68C90.77 132.78 90.69 132.83 90.54 132.93C90.62 132.93 90.73 132.81 90.68 132.93C90.4561 133.052 90.2258 133.162 89.99 133.26C90.07 133.31 89.66 133.46 89.65 133.54L89.78 133.47L89.54 133.67C89.26 133.75 89.72 133.49 89.32 133.67C89.281 133.688 89.2467 133.704 89.2164 133.72H89.24C89.1615 133.761 89.0862 133.807 89.0146 133.859C88.9383 133.932 88.9055 133.998 88.75 134.09C88.8308 134.005 88.9194 133.927 89.0146 133.859C89.0578 133.817 89.115 133.773 89.2164 133.72H89.09C89.256 133.602 89.4297 133.495 89.61 133.4C89.39 133.59 89.73 133.4 89.87 133.32C90.0028 133.244 89.7397 133.312 89.8489 133.243C89.7133 133.323 89.5735 133.395 89.43 133.46C89.93 133.2 89.8 133.08 90.23 132.85C90.05 133 90.34 132.85 90.37 132.85L90.7 132.6H90.6C90.7707 132.46 90.9052 132.465 91.069 132.362L90.96 132.41C91.0444 132.348 91.1307 132.29 91.219 132.234C91.217 132.23 91.2124 132.229 91.2057 132.229C91.1427 132.268 91.0807 132.308 91.02 132.35C90.9773 132.384 91.1534 132.236 91.2057 132.229C91.3212 132.159 91.4405 132.095 91.5629 132.038C91.6666 131.985 91.7724 131.935 91.88 131.89C91.8628 131.902 91.8456 131.914 91.8284 131.926C91.8621 131.914 91.896 131.902 91.93 131.89C91.93 131.89 91.93 131.83 92.01 131.72C92.01 131.78 92.09 131.72 92.01 131.85C92.1299 131.781 92.2407 131.697 92.34 131.6C92.09 131.73 92.4 131.49 92.43 131.44C92.46 131.39 92.43 131.5 92.35 131.55C92.3974 131.55 92.4559 131.532 92.5066 131.505C92.5799 131.414 92.6298 131.351 92.62 131.39C92.6095 131.432 92.5629 131.474 92.5066 131.505C92.4297 131.599 92.327 131.723 92.24 131.79L92.36 131.71C92.2991 131.772 92.228 131.822 92.15 131.86H92.28L92 132C92 132 92.16 131.94 92.24 131.92L92.38 131.82L92.79 131.33C92.9398 131.212 93.1046 131.115 93.28 131.04V131C93.3949 130.921 93.5061 130.846 93.5584 130.83L93.6168 130.78C93.6103 130.774 93.6228 130.754 93.67 130.71L93.98 130.43H93.86L94.13 130.22V130.29C94.56 129.93 94.33 130.29 94.74 129.9C94.8791 129.705 95.0602 129.545 95.27 129.43C95.08 129.59 95.27 129.49 95.27 129.57C95.4082 129.49 95.5275 129.38 95.62 129.25C95.69 129.25 95.74 129.25 95.56 129.37C95.56 129.44 95.79 129.18 95.85 129.22C96.0138 129.085 96.1091 128.981 96.1781 128.892C96.1659 128.901 96.1533 128.91 96.14 128.92C96.1 128.909 96.207 128.815 96.2855 128.738C96.3084 128.703 96.3313 128.67 96.3576 128.635C96.3547 128.632 96.349 128.63 96.34 128.63L96.3921 128.592C96.4773 128.491 96.6026 128.378 96.85 128.22C96.8573 128.213 96.8645 128.206 96.8716 128.2C96.9349 128.133 96.9906 128.079 97.0497 128.037C97.3466 127.775 97.5779 127.61 97.85 127.33L98.21 127.13C98.15 127.2 98 127.39 98.11 127.35C97.9224 127.443 97.7419 127.55 97.57 127.67H97.68C97.5797 127.735 97.4829 127.805 97.39 127.88C97.39 127.88 97.56 127.79 97.46 127.88L97.25 127.99C97.03 128.2 97.25 128.18 96.92 128.39C96.9573 128.273 97.0225 128.166 97.11 128.08C96.97 128.18 97.26 127.92 97.11 128C97.0893 128.011 97.0693 128.023 97.0497 128.037C96.993 128.087 96.9339 128.141 96.8716 128.2C96.8041 128.271 96.7279 128.358 96.63 128.46C96.6486 128.421 96.676 128.387 96.71 128.36L96.3921 128.592C96.3799 128.607 96.3685 128.621 96.3576 128.635C96.3703 128.649 96.3332 128.691 96.2855 128.738C96.2531 128.786 96.2206 128.836 96.1781 128.892C96.5218 128.634 96.4153 128.679 96.85 128.36C96.7333 128.471 96.6383 128.604 96.57 128.75C96.57 128.85 96.57 128.8 96.68 128.88C96.8448 128.701 97.0219 128.534 97.21 128.38C97.21 128.31 97.03 128.44 96.92 128.55L97.1 128.35L97.63 127.94C97.5665 127.991 97.5153 128.056 97.48 128.13L97.71 127.99C97.71 127.99 97.65 127.93 97.71 127.88C97.9221 127.692 98.1659 127.543 98.43 127.44C98.35 127.44 98.6 127.17 98.67 127.04C98.67 127.04 98.85 126.91 98.96 126.85C99.07 126.79 98.85 126.76 98.71 126.85C98.53 127.09 98.62 127 98.57 127.15C98.4714 127.274 98.3645 127.391 98.25 127.5L98.3 127.4C98.11 127.53 97.98 127.72 97.95 127.66C97.92 127.6 98.19 127.44 98.26 127.33L98.12 127.41C98.29 127.19 98.27 127.41 98.49 127.12C98.36 127.12 98.49 127.12 98.59 126.97C98.48 126.97 98.17 127.37 98.18 127.24C98.19 127.11 98.68 126.93 98.79 126.71C98.9063 126.616 99.009 126.506 99.0955 126.385C99.0632 126.418 99.0339 126.45 99.01 126.48C99.1 126.34 99.15 126.18 99.35 126.08C99.3909 126.039 99.4377 126.004 99.4826 125.972C99.4866 125.968 99.4906 125.964 99.4945 125.959C99.5 125.945 99.5021 125.931 99.5 125.92L99.55 125.9L99.65 125.8L99.67 125.78C99.67 125.784 99.6697 125.788 99.669 125.793C99.7533 125.765 99.7005 125.879 99.56 126.02C99.4353 126.145 99.4764 126.062 99.4939 126.031C99.4217 126.155 99.3252 126.264 99.21 126.35L99.29 126.25C99.1093 126.389 98.9537 126.558 98.83 126.75C99.17 126.47 99.5033 126.19 99.83 125.91C99.8662 125.773 99.8864 125.632 99.89 125.49C99.9629 125.411 100.038 125.335 100.116 125.261C100.055 125.297 99.95 125.379 99.95 125.36C99.95 125.33 99.9 125.28 100.13 125.12C100.36 124.96 100.16 125.13 100.26 125.12C100.264 125.12 100.268 125.119 100.273 125.117C100.31 125.085 100.347 125.053 100.385 125.021C100.472 124.93 100.561 124.837 100.63 124.75L100.84 124.54C100.84 124.54 100.774 124.63 100.777 124.662L100.824 124.608L101.02 124.33C100.89 124.52 101.14 124.25 101.23 124.19C101.235 124.187 101.239 124.183 101.244 124.18C101.262 124.135 101.29 124.09 101.29 124.09C101.294 124.087 101.298 124.084 101.301 124.082C101.301 124.055 101.279 124.046 101.23 124.09C101.13 124.18 101.17 124.18 101.06 124.29L101.17 124.09L101.23 123.96C101.45 123.75 101.23 124.14 101.46 123.83H101.37C101.7 123.52 102.17 123.17 102.37 122.93C102.37 123.02 102.37 123.09 102.47 123.03C102.316 123.165 102.169 123.309 102.03 123.46C102.091 123.315 102.187 123.188 102.31 123.09C102.16 123.09 101.98 123.51 101.88 123.45C101.464 123.796 101.666 123.81 101.301 124.082C101.301 124.107 101.281 124.149 101.244 124.18C101.233 124.206 101.226 124.232 101.23 124.25C101.24 124.3 101.67 123.81 101.9 123.62V123.71C102.017 123.613 102.121 123.502 102.21 123.38C102.36 123.16 102.36 123.29 102.48 123.2C102.6 123.11 102.68 123.01 102.63 123.01L102.965 123.001C103.06 122.877 102.956 122.942 103.09 122.78C102.976 122.988 103.203 122.704 103.27 122.69C103.283 122.67 103.301 122.645 103.322 122.617L103.36 122.55C103.376 122.539 103.389 122.528 103.4 122.518C103.413 122.501 103.427 122.484 103.441 122.468C103.466 122.43 103.486 122.388 103.55 122.33C103.403 122.419 103.277 122.538 103.18 122.68C103.27 122.54 103.46 122.28 103.51 122.22C103.56 122.16 103.72 122.03 103.83 121.91C103.64 122.15 104.02 121.91 103.58 122.37V122.31C103.58 122.305 103.514 122.38 103.441 122.468C103.429 122.485 103.417 122.501 103.4 122.518C103.372 122.552 103.345 122.586 103.322 122.617L103.28 122.69C103.277 122.689 103.274 122.689 103.27 122.69C103.27 122.69 103.27 122.69 103.27 122.69C103.2 122.8 103.27 122.8 103.41 122.69C103.34 122.69 103.48 122.49 103.65 122.35V122.43L103.87 122.2C103.99 122.14 104.09 121.94 104.27 121.79C104.45 121.64 104.79 121.22 104.54 121.35C104.72 121.24 104.79 121.07 104.93 120.9L104.72 121.08C104.822 120.947 104.903 120.798 104.96 120.64H105.02C105.314 120.329 105.582 119.995 105.82 119.64C106.02 119.41 106.12 119.43 106.36 119.08C106.36 119 106.26 119.08 106.46 118.88C106.46 118.88 106.33 119.13 106.53 118.88C106.73 118.63 106.89 118.5 107.01 118.23C107.12 118.12 107.27 117.9 107.28 117.98C107.143 118.141 107.022 118.315 106.92 118.5C106.67 118.77 106.8 118.7 106.57 118.94C106.57 118.94 106.634 118.901 106.687 118.855C106.728 118.797 106.759 118.759 106.75 118.78C106.74 118.804 106.715 118.831 106.687 118.855C106.591 118.993 106.437 119.25 106.62 119.13C106.88 118.96 106.81 118.7 107.04 118.49C107.04 118.62 106.86 118.75 106.81 118.91L107 118.73L107.06 118.56C107.37 118.24 107.24 118.19 107.45 117.85C107.28 118 107.39 117.73 107.26 117.85C107.41 117.64 107.53 117.49 107.59 117.52C107.34 117.96 107.59 117.59 107.41 118C107.48 118 107.41 118.15 107.6 117.93C107.79 117.71 107.5 117.93 107.66 117.71C107.66 117.71 107.76 117.59 107.83 117.43C107.99 117.28 107.93 117.21 108.07 117.09C107.99 117.09 108.07 116.97 108.15 116.86C107.986 117.002 107.835 117.16 107.7 117.33V117.51L107.83 117.32L107.77 117.45L107.62 117.62C107.77 117.37 107.62 117.45 107.69 117.33C107.76 117.21 107.81 117.14 107.92 117.02C107.92 117.02 108.31 116.68 108.5 116.44L108.43 116.56C108.33 116.76 108.55 116.46 108.57 116.46L108.63 116.31C108.63 116.24 108.63 116.1 108.78 115.91C108.78 115.91 108.78 116.09 108.85 115.99C108.996 115.907 109.108 115.776 109.17 115.62C109.19 115.564 109.217 115.51 109.25 115.46L109.38 115.31C109.38 115.48 109.18 115.58 109.14 115.75C109.069 115.859 109.012 115.977 108.97 116.1C109.06 115.979 109.138 115.848 109.2 115.71V115.86C109.02 116.05 109.03 116.21 108.85 116.48C108.76 116.74 108.54 116.9 108.45 117.15V117.06L108.04 117.83C108.04 117.83 108.04 117.91 107.95 117.96L107.73 118.38L107.84 118.27C107.84 118.21 108.06 117.97 107.99 117.97C108.094 117.876 108.189 117.674 108.266 117.593C108.15 117.701 108.28 117.439 108.28 117.4C108.28 117.36 108.45 117.16 108.48 117.21C108.51 117.26 108.39 117.27 108.37 117.35C108.35 117.43 108.62 117.07 108.5 117.35C108.71 117.058 108.897 116.751 109.06 116.43L108.95 116.57C109.038 116.421 109.135 116.277 109.24 116.14C109.24 116.24 109.13 116.33 109.05 116.47C108.97 116.61 109.23 116.18 109.27 116.19L109.34 116.009C109.342 116 109.346 115.988 109.355 115.97L109.42 115.8L109.32 115.95C109.439 115.724 109.58 115.509 109.74 115.31C109.74 115.48 109.52 115.66 109.38 115.92C109.369 115.94 109.361 115.956 109.355 115.97L109.34 116.009C109.323 116.079 109.487 115.882 109.38 116.03C109.422 115.983 109.457 115.93 109.485 115.874C109.501 115.832 109.51 115.793 109.51 115.76V115.82C109.502 115.838 109.494 115.857 109.485 115.874C109.457 115.93 109.422 115.983 109.38 116.03C109.487 115.882 109.323 116.079 109.34 116.009L109.27 116.19C109.23 116.18 108.97 116.61 109.05 116.47C109.13 116.33 109.24 116.24 109.24 116.14C109.135 116.277 109.038 116.421 108.95 116.57L109.06 116.43C108.897 116.751 108.71 117.058 108.5 117.35C108.62 117.07 108.35 117.43 108.37 117.35C108.39 117.27 108.51 117.26 108.48 117.21C108.45 117.16 108.28 117.36 108.28 117.4C108.28 117.439 108.15 117.701 108.266 117.593C108.271 117.588 108.276 117.584 108.28 117.58C108.275 117.585 108.271 117.589 108.266 117.593C108.189 117.674 108.094 117.876 107.99 117.97C108.06 117.97 107.84 118.21 107.84 118.27L107.73 118.38L107.95 117.96C108.04 117.91 108.04 117.83 108.04 117.83L108.45 117.06V117.15C108.54 116.9 108.76 116.74 108.85 116.48C109.03 116.21 109.02 116.05 109.2 115.86V115.71C109.138 115.848 109.06 115.979 108.97 116.1C109.012 115.977 109.069 115.859 109.14 115.75C109.18 115.58 109.38 115.48 109.38 115.31L109.25 115.46C109.217 115.51 109.19 115.564 109.17 115.62C109.108 115.776 108.996 115.907 108.85 115.99C108.78 116.09 108.78 115.91 108.78 115.91C108.63 116.1 108.63 116.24 108.63 116.31L108.57 116.46C108.55 116.46 108.33 116.76 108.43 116.56L108.5 116.44C108.31 116.68 107.92 117.02 107.92 117.02C107.81 117.14 107.76 117.21 107.69 117.33C107.62 117.45 107.77 117.37 107.62 117.62L107.77 117.45L107.83 117.32L107.7 117.51V117.33C107.835 117.16 107.986 117.002 108.15 116.86C108.07 116.97 107.99 117.09 108.07 117.09C107.93 117.21 107.99 117.28 107.83 117.43C107.76 117.59 107.66 117.71 107.66 117.71C107.5 117.93 107.79 117.71 107.6 117.93C107.41 118.15 107.48 118 107.41 118C107.59 117.59 107.34 117.96 107.59 117.52C107.53 117.49 107.41 117.64 107.26 117.85C107.39 117.73 107.28 118 107.45 117.85C107.24 118.19 107.37 118.24 107.06 118.56L107 118.73L106.81 118.91C106.86 118.75 107.04 118.62 107.04 118.49C106.81 118.7 106.88 118.96 106.62 119.13C106.437 119.25 106.591 118.993 106.687 118.855C106.634 118.901 106.57 118.94 106.57 118.94C106.8 118.7 106.67 118.77 106.92 118.5C107.022 118.315 107.143 118.141 107.28 117.98C107.27 117.9 107.12 118.12 107.01 118.23C106.89 118.5 106.73 118.63 106.53 118.88C106.33 119.13 106.46 118.88 106.46 118.88C106.26 119.08 106.36 119 106.36 119.08C106.12 119.43 106.02 119.41 105.82 119.64C105.582 119.995 105.314 120.329 105.02 120.64H104.96C104.903 120.798 104.822 120.947 104.72 121.08L104.93 120.9C104.79 121.07 104.72 121.24 104.54 121.35C104.79 121.22 104.45 121.64 104.27 121.79C104.09 121.94 103.99 122.14 103.87 122.2L103.65 122.43V122.35C103.48 122.49 103.34 122.69 103.41 122.69C103.27 122.8 103.2 122.8 103.27 122.69C103.27 122.69 103.27 122.69 103.27 122.69C103.203 122.704 102.976 122.988 103.09 122.78C102.956 122.942 103.06 122.877 102.965 123.001L102.97 123.001L103.23 122.75C103.16 122.88 103.11 122.88 103 123L102.97 123.001L102.95 123.02C102.955 123.013 102.96 123.007 102.965 123.001L102.63 123.01C102.68 123.01 102.6 123.11 102.48 123.2C102.36 123.29 102.36 123.16 102.21 123.38C102.121 123.502 102.017 123.613 101.9 123.71V123.62C101.67 123.81 101.24 124.3 101.23 124.25C101.226 124.232 101.233 124.206 101.244 124.18C101.239 124.183 101.235 124.187 101.23 124.19C101.14 124.25 100.89 124.52 101.02 124.33L100.824 124.608L101.03 124.37C101.03 124.37 100.81 124.66 100.7 124.77C100.667 124.803 100.653 124.81 100.651 124.803C100.619 124.834 100.586 124.863 100.55 124.89C100.539 124.898 100.528 124.907 100.517 124.915C100.483 124.951 100.446 124.987 100.411 125.018C100.321 125.112 100.233 125.229 100.161 125.275C100.149 125.29 100.139 125.305 100.13 125.32C100.52 125.09 100.07 125.5 100.13 125.5C100.05 125.59 99.94 125.53 100.13 125.29C100.14 125.287 100.15 125.282 100.161 125.275C100.2 125.221 100.252 125.163 100.309 125.102C100.253 125.155 100.2 125.211 100.15 125.27C100.172 125.233 100.151 125.24 100.116 125.261C100.038 125.335 99.9629 125.411 99.89 125.49C99.8864 125.632 99.8662 125.773 99.83 125.91C99.5033 126.19 99.17 126.47 98.83 126.75C98.9537 126.558 99.1093 126.389 99.29 126.25L99.21 126.35C99.3252 126.264 99.4217 126.155 99.4939 126.031C99.4974 126.024 99.5 126.02 99.5 126.02C99.498 126.024 99.4959 126.027 99.4939 126.031C99.4764 126.062 99.4353 126.145 99.56 126.02C99.7005 125.879 99.7533 125.765 99.669 125.793C99.6666 125.808 99.66 125.822 99.65 125.836V125.86L99.6153 125.874C99.5826 125.903 99.5384 125.933 99.4917 125.966C99.4462 126.069 99.2408 126.236 99.0955 126.385C99.009 126.506 98.9063 126.616 98.79 126.71C98.68 126.93 98.19 127.11 98.18 127.24C98.17 127.37 98.48 126.97 98.59 126.97C98.49 127.12 98.36 127.12 98.49 127.12C98.27 127.41 98.29 127.19 98.12 127.41L98.26 127.33C98.19 127.44 97.92 127.6 97.95 127.66C97.98 127.72 98.11 127.53 98.3 127.4L98.25 127.5C98.3645 127.391 98.4714 127.274 98.57 127.15C98.62 127 98.53 127.09 98.71 126.85C98.85 126.76 99.07 126.79 98.96 126.85C98.85 126.91 98.67 127.04 98.67 127.04C98.6 127.17 98.35 127.44 98.43 127.44C98.1659 127.543 97.9221 127.692 97.71 127.88C97.65 127.93 97.71 127.99 97.71 127.99L97.48 128.13C97.5153 128.056 97.5665 127.991 97.63 127.94L97.1 128.35L96.92 128.55C97.03 128.44 97.21 128.31 97.21 128.38C97.0219 128.534 96.8448 128.701 96.68 128.88C96.57 128.8 96.57 128.85 96.57 128.75C96.6383 128.604 96.7333 128.471 96.85 128.36C96.4153 128.679 96.5218 128.634 96.1781 128.892C96.1091 128.981 96.0138 129.085 95.85 129.22C95.79 129.18 95.56 129.44 95.56 129.37C95.74 129.25 95.69 129.25 95.62 129.25C95.5275 129.38 95.4082 129.49 95.27 129.57C95.27 129.49 95.08 129.59 95.27 129.43C95.0602 129.545 94.8791 129.705 94.74 129.9C94.33 130.29 94.56 129.93 94.13 130.29V130.22L93.86 130.43H93.98L93.67 130.71C93.6228 130.754 93.6103 130.774 93.6168 130.78L93.78 130.637V130.62C93.92 130.53 94.13 130.36 94.13 130.36C93.92 130.53 94 130.53 93.92 130.61L94.12 130.44H94.1209C94.1364 130.348 94.3609 130.257 94.4909 130.181C94.639 130 94.8101 129.838 95 129.7H95.01C95.04 129.7 94.92 129.85 95.16 129.7C95.11 129.8 95 130 95 130C94.8629 130.059 94.7225 130.109 94.5794 130.15C94.4657 130.258 94.3421 130.355 94.21 130.44H94.1209C94.1203 130.443 94.12 130.447 94.12 130.45C94.12 130.55 93.9 130.67 94.12 130.55L93.8 130.82C93.8 130.738 93.638 130.834 93.6772 130.763C93.6485 130.776 93.6233 130.785 93.6168 130.78L93.5584 130.83C93.5926 130.82 93.6016 130.835 93.57 130.89C93.49 131.03 93.57 130.89 93.49 130.89L93.5584 130.83C93.5061 130.846 93.3949 130.921 93.28 131V131.04C93.1046 131.115 92.9398 131.212 92.79 131.33L92.38 131.82L92.24 131.92C92.16 131.94 92 132 92 132L92.28 131.86H92.15C92.228 131.822 92.2991 131.772 92.36 131.71L92.24 131.79C92.327 131.723 92.4297 131.599 92.5066 131.505C92.4559 131.532 92.3974 131.55 92.35 131.55C92.43 131.5 92.46 131.39 92.43 131.44C92.4 131.49 92.09 131.73 92.34 131.6C92.2407 131.697 92.1299 131.781 92.01 131.85C92.09 131.72 92.01 131.78 92.01 131.72C91.93 131.83 91.93 131.89 91.93 131.89C91.896 131.902 91.8621 131.914 91.8284 131.926C91.5426 132.131 91.2724 132.356 91.02 132.6C91.1 132.57 91.22 132.4 91.34 132.4L91.4 132.3C91.49 132.23 91.71 132.09 91.76 132.09C91.6057 132.211 91.4649 132.349 91.34 132.5L91.28 132.56C91.2 132.62 91.06 132.68 91 132.76C90.63 132.92 90.5 133.22 90.11 133.38C90.09 133.35 89.8 133.5 89.88 133.43C89.7211 133.518 89.5762 133.629 89.45 133.76C89.4 133.74 89.12 133.94 89.2 133.84L89.04 134C88.9 134.06 88.71 134.13 88.57 134.23C88.43 134.33 88.56 134.32 88.35 134.41C88.2027 134.47 88.0647 134.551 87.94 134.65C88.012 134.625 88.0822 134.595 88.15 134.56C88.0499 134.673 87.9226 134.759 87.78 134.81C88.01 134.64 87.55 134.91 87.65 134.81C87.3028 135.001 86.9687 135.215 86.65 135.45C86.23 135.67 85.69 135.9 85.38 136.11L85.2 136.24C85.08 136.24 85.17 136.14 85 136.24C85.03 136.16 85.3 136.08 85.47 135.95C85.1 136.05 85.7 135.76 85.47 135.82C85.41 135.98 84.81 136.24 84.57 136.35C84.4853 136.389 84.4766 136.387 84.495 136.37H84.34C84.0449 136.46 83.7627 136.588 83.5 136.75C83.8 136.63 83.41 136.87 83.72 136.75C83.5705 136.84 83.4132 136.917 83.25 136.98C83.39 136.85 82.97 136.99 83.39 136.85C83.31 136.82 83.19 136.94 83 137C83.0947 136.933 83.1819 136.856 83.26 136.77C83 136.95 82.44 137.03 82.26 137.16C82.08 137.29 81.82 137.55 81.56 137.59C81.3 137.63 81.03 137.73 80.75 137.8C80.59 137.83 80.35 137.98 80.11 137.98H80.04L79.34 138.2C79.35 138.2 79.57 138.14 79.47 138.2L79.65 138.12C79.7293 138.105 79.8107 138.105 79.89 138.12L79.42 138.28H79.37V138.33H79.23C79.0257 138.427 78.8152 138.511 78.6 138.58C78.712 138.501 78.8365 138.441 78.9682 138.403L78.66 138.49C78.8 138.4 79.36 138.26 79.24 138.21C78.9 138.35 78.39 138.53 78.09 138.62C77.8543 138.64 77.6204 138.676 77.39 138.73C77.017 138.787 76.6492 138.874 76.29 138.99H76.11C75.55 139.06 76.23 139.06 75.66 139.17C75.51 139.12 75.01 139.07 74.91 139.12C74.81 139.17 74.66 139.17 74.75 139.17H74.55C74.0563 139.195 73.5651 139.255 73.08 139.35C73.1458 139.34 73.2122 139.336 73.2785 139.338C73.2853 139.299 73.42 139.35 73.42 139.35C73.3731 139.343 73.3258 139.339 73.2785 139.338C73.2779 139.341 73.2783 139.345 73.28 139.35C73.3 139.41 73.47 139.35 73.66 139.35L73.34 139.42H73.52L72.78 139.57C73.39 139.59 73.67 139.44 74.17 139.44C74.3213 139.426 74.4716 139.403 74.62 139.37H74.87C74.87 139.399 74.7781 139.464 74.5416 139.47C74.9499 139.464 75.3573 139.428 75.76 139.36C76.165 139.259 76.5757 139.182 76.99 139.13C77.1 139.1 77.3 138.98 77.29 139.03C77.2886 139.037 77.287 139.043 77.2851 139.048C77.672 138.943 77.9133 139.013 78.18 138.93C78.1813 138.934 78.1817 138.939 78.1812 138.943C78.3895 138.872 78.5929 138.788 78.79 138.69C78.66 138.76 78.9 138.69 79.03 138.69C79.39 138.54 80.17 138.31 80.72 138.12C80.61 138.27 81.29 138.07 81.41 138.02C81.4802 137.991 81.5948 137.92 81.6659 137.877C81.7164 137.846 81.7449 137.829 81.72 137.85Z" fill="#20B65C"/>
<path d="M109.21 115.62C109.21 115.55 109.33 115.4 109.28 115.41C109.23 115.42 109.12 115.68 109.21 115.62Z" fill="#20B65C"/>
<path d="M109.36 115.46C109.36 115.46 109.36 115.46 109.36 115.38L109.26 115.57L109.36 115.46Z" fill="#20B65C"/>
<path d="M109.73 115.43C109.763 115.311 109.817 115.199 109.89 115.1C110.01 115.1 109.75 115.36 109.79 115.48C109.903 115.273 110.003 115.059 110.09 114.84C110 114.93 109.67 115.38 109.73 115.43Z" fill="#20B65C"/>
<path d="M109.76 115.62L109.84 115.45L109.83 115.47L109.75 115.63L109.76 115.62Z" fill="#20B65C"/>
<path d="M106.79 118.31C106.79 118.31 106.72 118.41 106.69 118.46C106.736 118.419 106.77 118.368 106.79 118.31Z" fill="#20B65C"/>
<path d="M78.51 138.15L77.19 138.41L78.51 138.15Z" fill="#20B65C"/>
<path d="M104 121.9C104.23 121.6 104.29 121.45 104.54 121.16C104.16 121.48 104.17 121.71 103.84 121.97L104 121.9Z" fill="#20B65C"/>
<path d="M103.91 121.62C103.99 121.62 103.77 121.88 103.84 121.87C103.99 121.68 103.84 121.75 104.03 121.59L103.91 121.62Z" fill="#20B65C"/>
<path d="M105.78 121.06L105.74 121.16L105.79 121.08L105.78 121.06Z" fill="#20B65C"/>
<path d="M102.81 122.89L102.83 122.85L102.69 122.97L102.81 122.89Z" fill="#20B65C"/>
<path d="M105.79 121.25L105.91 121.13L105.94 121.05L105.79 121.25Z" fill="#20B65C"/>
<path d="M104.55 122.13L104.64 122.01C104.64 122.01 104.46 122.16 104.55 122.13Z" fill="#20B65C"/>
<path d="M101.99 123.66L101.88 123.81L101.9 123.8L102.01 123.65L101.99 123.66Z" fill="#20B65C"/>
<path d="M103.88 123.11C103.98 123.11 103.68 123.34 103.88 123.21C104.08 123.08 103.91 123.1 103.88 123.11Z" fill="#20B65C"/>
<path d="M102.1 124.45C102.158 124.405 102.211 124.355 102.26 124.3C102.198 124.34 102.143 124.39 102.1 124.45Z" fill="#20B65C"/>
<path d="M101.47 125.09C101.47 125.15 101.47 125.09 101.47 125.09C101.47 125.09 101.47 125.03 101.47 125.01C101.48 125 101.43 125.1 101.47 125.09Z" fill="#20B65C"/>
<path d="M98.46 126.77C98.67 126.61 98.72 126.57 98.74 126.61C98.93 126.45 98.86 126.43 98.96 126.32C98.76 126.51 98.7 126.54 98.46 126.77Z" fill="#20B65C"/>
<path d="M99 126.32L99.07 126.25L99 126.32Z" fill="#20B65C"/>
<path d="M102.5 124.63L102.42 124.79L102.46 124.74L102.5 124.63Z" fill="#20B65C"/>
<path d="M98.16 127C98.16 127 98.25 126.91 98.29 126.9C98.33 126.89 98.12 127.05 98.16 127Z" fill="#20B65C"/>
<path d="M99.39 126.88C99.39 126.88 99.54 126.75 99.59 126.71C99.64 126.67 99.41 126.78 99.39 126.88Z" fill="#20B65C"/>
<path d="M97.68 127.61C97.68 127.61 97.79 127.55 97.79 127.61C97.79 127.67 97.86 127.43 97.68 127.61Z" fill="#20B65C"/>
<path d="M99.02 127.2L99.06 127.18L99.18 127.04L99.02 127.2Z" fill="#20B65C"/>
<path d="M99.86 127.17C99.98 127 99.55 127.31 99.79 127.04C99.42 127.31 99.85 127.04 99.6 127.28C99.76 127.16 99.86 127.14 99.86 127.17Z" fill="#20B65C"/>
<path d="M99.6 127.28L99.53 127.34L99.6 127.28Z" fill="#20B65C"/>
<path d="M98.82 128C98.8889 127.918 98.9524 127.831 99.01 127.74C98.89 127.92 98.48 128.24 98.55 128.27C98.6757 128.185 98.787 128.08 98.88 127.96L98.82 128Z" fill="#20B65C"/>
<path d="M95.36 129.32L95.45 129.22L95.32 129.31C95.32 129.31 95.32 129.38 95.36 129.32Z" fill="#20B65C"/>
<path d="M97.65 128.54L97.85 128.37C97.85 128.37 97.62 128.53 97.65 128.54Z" fill="#20B65C"/>
<path d="M94.68 129.94L94.85 129.8L94.66 129.95L94.68 129.94Z" fill="#20B65C"/>
<path d="M93.8 130.45L93.77 130.46L93.64 130.59L93.67 130.57L93.8 130.45Z" fill="#20B65C"/>
<path d="M95.64 130.69C95.76 130.61 95.82 130.49 95.78 130.5L95.55 130.68C95.64 130.68 95.61 130.63 95.75 130.54L95.64 130.69Z" fill="#20B65C"/>
<path d="M87.57 134.53C87.6667 134.437 87.7883 134.375 87.92 134.35C87.92 134.35 87.75 134.48 87.85 134.44L88.02 134.25C88.33 134.13 87.86 134.47 87.73 134.57C88.03 134.42 88.09 134.32 88.39 134.15C88.3183 134.178 88.2448 134.202 88.17 134.22C88.17 134.17 88.43 134.03 88.64 133.91C88.49 133.96 88.56 133.91 88.64 133.83H88.58C88.4442 133.914 88.3001 133.985 88.15 134.04C88.31 134.04 87.79 134.28 87.67 134.38L87.51 134.48H87.45C87.45 134.48 87.45 134.48 87.53 134.38C87.46 134.44 87.2 134.58 87.24 134.6C87.05 134.71 86.85 134.79 86.65 134.9H86.59C85.71 135.31 84.86 135.77 83.97 136.15C84.11 136.15 84.24 136.09 84.37 136.03C84.2 136.18 84.59 135.93 84.56 136.03C84.4711 136.1 84.3691 136.151 84.26 136.18C84.26 136.18 84.37 136.18 84.37 136.23C84.71 136.11 84.7 135.95 85.04 135.81C85.04 135.81 84.95 135.93 85.16 135.81C85.48 135.61 85.46 135.75 85.63 135.56V135.61C85.8182 135.477 86.0192 135.363 86.23 135.27C86.4819 135.115 86.7423 134.975 87.01 134.85L86.79 135.02C86.99 134.96 87 134.88 87.13 134.82C87.26 134.76 87.13 134.82 87.06 134.92C87.262 134.792 87.4557 134.652 87.64 134.5C87.78 134.43 87.6 134.53 87.57 134.53Z" fill="#20B65C"/>
<path d="M88.39 134.15L88.51 134.08L88.39 134.15Z" fill="#20B65C"/>
<path d="M83.84 136.23L84.02 136.16L83.84 136.23Z" fill="#20B65C"/>
<path d="M89.22 133.54C89.1 133.54 89.29 133.46 89.29 133.43L88.91 133.65C88.91 133.65 88.91 133.71 88.91 133.72L89.22 133.54Z" fill="#20B65C"/>
<path d="M88.78 133.68L88.7 133.77L88.91 133.65C88.91 133.65 88.87 133.64 88.78 133.68Z" fill="#20B65C"/>
<path d="M89.36 134.59L89.3 134.64L89.2 134.71L89.36 134.59Z" fill="#20B65C"/>
<path d="M88.23 135.14C88.3391 135.101 88.4406 135.044 88.53 134.97C88.35 135.08 88.42 135 88.23 135.14Z" fill="#20B65C"/>
<path d="M88.62 135.3L88.45 135.42L88.47 135.41L88.62 135.3Z" fill="#20B65C"/>
<path d="M84.07 136.31C83.61 136.43 84.34 136.15 84.17 136.14L83.94 136.25L83.66 136.37C83.73 136.37 83.78 136.37 83.78 136.37C83.38 136.51 83.64 136.37 83.34 136.44L82.91 136.62H82.85L81.4 137.21C81.14 137.34 81.56 137.21 81.4 137.34C81.71 137.22 82.19 137.08 82.19 137C82.19 136.92 82.19 137 82.19 137L82.35 136.88L82.17 136.93C82.4368 136.769 82.7269 136.651 83.03 136.58C82.71 136.73 82.9 136.73 82.43 136.88C82.43 136.88 82.55 136.88 82.43 136.93C83 136.74 83.54 136.59 84.07 136.31Z" fill="#20B65C"/>
<path d="M78.79 138.14L79.05 137.99L78.63 138.12C78.7022 138.074 78.7846 138.046 78.87 138.04L78.79 138.14Z" fill="#20B65C"/>
<path d="M79.35 137.86C79.14 137.94 79.16 138 79.29 137.99C79.1 138.07 79.17 137.99 79.05 138.06C78.93 138.13 79.3 138 79.35 137.98V137.86Z" fill="#20B65C"/>
<path d="M80.96 137.44L80.9 137.48L81.06 137.44H80.96Z" fill="#20B65C"/>
<path d="M80.53 137.57H80.52L80.36 137.61L80.53 137.57Z" fill="#20B65C"/>
<path d="M80.75 137.51C80.75 137.51 80.67 137.45 80.46 137.51H80.52H80.75Z" fill="#20B65C"/>
<path d="M87.3 135.95L87.14 136.05L87.16 136.04L87.31 135.94L87.3 135.95Z" fill="#20B65C"/>
<path d="M86.33 136.37L86.24 136.44C86.2736 136.422 86.304 136.398 86.33 136.37Z" fill="#20B65C"/>
<path d="M85.74 137C85.53 137.06 85.99 136.82 85.62 137C85.57 137 85.72 136.85 85.9 136.79C85.9 136.79 85.74 136.89 85.9 136.87C86.06 136.85 86.05 136.78 85.99 136.75C86.0926 136.67 86.1895 136.583 86.28 136.49C85.9347 136.639 85.6005 136.813 85.28 137.01C85.15 137.15 85.28 137.18 85.28 137.27C85.28 137.36 85.75 137 85.74 137Z" fill="#20B65C"/>
<path d="M86.09 136.91L86.26 136.82C86.26 136.82 86.16 136.87 86.09 136.91Z" fill="#20B65C"/>
<path d="M83.71 137.18C83.71 137.18 83.54 137.28 83.58 137.29L83.83 137.17C83.7913 137.182 83.7502 137.186 83.71 137.18Z" fill="#20B65C"/>
<path d="M75.41 138.71H75.31C75.343 138.717 75.377 138.717 75.41 138.71Z" fill="#20B65C"/>
<path d="M73.8 139.49C73.73 139.49 73.5 139.49 73.42 139.49H73.27C73.4462 139.508 73.6238 139.508 73.8 139.49Z" fill="#20B65C"/>
<path d="M112.83 115.75C112.83 115.75 112.83 115.81 112.83 115.75C112.83 115.69 112.83 115.81 112.89 115.83C112.95 115.85 112.89 115.9 112.89 115.83V115.94V116C112.95 116 112.89 116.1 112.89 116.13V116C112.883 115.986 112.879 115.971 112.879 115.955C112.879 115.939 112.883 115.924 112.89 115.91C112.89 115.76 112.78 115.91 112.77 115.74L112.83 115.75Z" fill="#20B65C"/>
<path d="M113 115.64L112.92 115.58V115.5C112.92 115.5 112.87 115.44 112.85 115.5C112.83 115.56 112.85 115.5 112.85 115.5C112.85 115.5 112.85 115.39 112.76 115.42C112.67 115.45 112.76 115.49 112.76 115.53C112.773 115.576 112.773 115.624 112.76 115.67H112.84C112.84 115.67 112.84 115.67 112.84 115.61L112.93 115.71C113.01 115.71 112.93 115.58 113 115.54C113.07 115.5 113.05 115.54 113 115.64Z" fill="#20B65C"/>
<path d="M109.63 111.81L109.83 111.73C109.83 111.73 109.75 111.73 109.83 111.73C109.91 111.73 109.76 111.73 109.76 111.73C109.76 111.79 109.67 111.73 109.69 111.73L109.62 111.94C109.62 111.94 109.57 111.84 109.63 111.81Z" fill="#20B65C"/>
<path d="M109.53 111.09V111.08L109.52 111.12L109.53 111.09Z" fill="#20B65C"/>
<path d="M110.05 110.59L109.96 110.67C109.96 110.76 109.96 110.77 109.89 110.85C109.82 110.93 109.97 110.85 109.99 110.79L110.04 110.67L110.05 110.59Z" fill="#20B65C"/>
<path d="M106.61 113.06C106.61 113.06 106.63 113 106.61 113.06V113.06Z" fill="#20B65C"/>
<path d="M109.55 111.74H109.63C109.63 111.74 109.58 111.7 109.55 111.74Z" fill="#20B65C"/>
<path d="M108.88 112.54C108.74 112.63 108.88 112.45 108.8 112.47C108.72 112.49 108.8 112.54 108.8 112.56C108.8 112.58 108.8 112.69 108.96 112.56C108.963 112.575 108.963 112.59 108.959 112.604C108.955 112.619 108.948 112.633 108.939 112.644C108.929 112.656 108.917 112.665 108.904 112.671C108.89 112.677 108.875 112.68 108.86 112.68C108.78 112.68 108.86 112.62 108.86 112.55C108.86 112.48 108.86 112.55 108.86 112.64C108.86 112.73 108.76 112.79 108.67 112.74C108.58 112.69 108.67 112.81 108.67 112.86C108.67 112.91 108.77 112.86 108.82 112.86C108.82 112.86 108.82 112.79 108.82 112.78C108.82 112.77 108.82 112.78 108.88 112.78C108.88 112.78 108.88 112.7 108.98 112.71C109.08 112.72 108.98 112.71 108.98 112.71C108.98 112.71 108.98 112.63 109.07 112.57V112.65C109.07 112.55 109.2 112.51 109.29 112.51C109.38 112.51 109.29 112.51 109.29 112.51H109.37C109.37 112.44 109.56 112.51 109.58 112.39C109.611 112.234 109.651 112.081 109.7 111.93C109.7 111.93 109.64 111.93 109.7 111.82C109.76 111.71 109.7 111.91 109.64 111.94C109.58 111.97 109.64 111.83 109.57 111.86C109.5 111.89 109.41 112.2 109.32 112.35C109.32 112.35 109.19 112.35 109.13 112.35C109.131 112.325 109.136 112.301 109.147 112.279C109.157 112.256 109.172 112.236 109.19 112.22H109.09L108.88 112.54Z" fill="#20B65C"/>
<path d="M108.97 112.39L108.96 112.38L108.95 112.39H108.97Z" fill="#20B65C"/>
<path d="M108.68 112.56C108.68 112.56 108.68 112.49 108.68 112.45C108.736 112.392 108.804 112.348 108.88 112.32C108.88 112.32 108.88 112.32 108.94 112.32C109 112.32 109.02 112.26 109.02 112.21C109.02 112.16 109.08 112.15 109.12 112.15C109.16 112.15 109.12 112.05 109.06 112.15C108.99 112.15 109 112.21 108.95 112.23C108.9 112.25 108.95 112.17 108.95 112.17C108.95 112.17 108.75 112.24 108.8 112.33C108.85 112.42 108.8 112.33 108.73 112.33C108.66 112.33 108.46 112.42 108.53 112.54C108.566 112.525 108.595 112.496 108.61 112.46L108.68 112.56Z" fill="#20B65C"/>
<path d="M110.2 112V112.09C110.11 112.134 110.016 112.17 109.92 112.2C109.92 112.2 109.73 112.27 109.69 112.33C109.65 112.39 109.59 112.33 109.6 112.33C109.6 112.33 109.53 112.23 109.6 112.2C109.67 112.17 109.6 112.2 109.6 112.3C109.6 112.4 109.6 112.3 109.6 112.3C109.6 112.3 109.66 112.3 109.67 112.24C109.68 112.18 109.67 112.3 109.73 112.24V112.15H109.81C109.91 112.08 109.74 112.02 109.81 111.92C109.81 111.92 109.89 112.02 109.96 112.02C110.03 112.02 109.87 112.11 109.82 112.1C109.77 112.09 109.73 112.1 109.82 112.2C109.804 112.174 109.797 112.144 109.799 112.114C109.802 112.083 109.814 112.055 109.835 112.032C109.855 112.01 109.882 111.994 109.912 111.988C109.942 111.983 109.973 111.987 110 112C110 112 110 111.89 110.13 111.9C110.26 111.91 110.13 111.9 110.13 111.9L110.2 112Z" fill="#20B65C"/>
<path d="M111.9 110.59C111.9 110.59 111.91 110.58 111.9 110.59V110.59Z" fill="#20B65C"/>
<path d="M112.95 114.62L112.94 114.61L112.95 114.62Z" fill="#20B65C"/>
<path d="M112.71 112.58C112.71 112.58 112.7 112.6 112.71 112.58V112.58Z" fill="#20B65C"/>
<path d="M112.5 111.19L112.51 111.2L112.5 111.19Z" fill="#20B65C"/>
<path d="M112.69 113.14C112.69 113.14 112.72 113.17 112.69 113.14V113.14Z" fill="#20B65C"/>
<path d="M112.84 115.35C112.84 115.35 112.91 115.5 112.92 115.35C112.93 115.2 112.92 115.42 112.92 115.46C112.92 115.5 112.92 115.46 112.98 115.46C113.04 115.46 112.98 115.46 112.98 115.4C112.98 115.34 112.98 115.4 112.98 115.46C112.98 115.52 112.98 115.51 113.05 115.46C113.045 115.35 112.999 115.247 112.92 115.17C112.935 115.236 112.935 115.304 112.92 115.37H112.86C112.86 115.31 112.86 115.27 112.86 115.21V115.35C112.86 115.41 112.8 115.35 112.79 115.35C112.78 115.35 112.85 115.35 112.84 115.35Z" fill="#20B65C"/>
<path d="M112 112C112 112 112 112.13 112.09 112.13C112.18 112.13 112.09 112.02 112.09 112.02C112.09 112.02 112.09 111.93 112.09 111.92C112.09 111.91 112.09 111.92 112.01 111.92C111.93 111.92 112.01 111.92 112.01 111.92V111.85V111.92C112 112 111.88 111.87 112 112Z" fill="#20B65C"/>
<path d="M112.4 113.73C112.384 113.734 112.366 113.734 112.35 113.73C112.366 113.726 112.384 113.726 112.4 113.73Z" fill="#20B65C"/>
<path d="M108.857 111.981C108.825 111.962 108.842 111.988 108.857 111.981C108.86 111.983 108.865 111.986 108.87 111.99C108.74 111.99 108.77 112.09 108.75 112.14C108.673 112.192 108.59 112.236 108.503 112.269C108.51 112.27 108.519 112.27 108.53 112.27C108.595 112.27 108.494 112.327 108.41 112.351C108.41 112.382 108.411 112.401 108.38 112.37C108.377 112.367 108.374 112.364 108.371 112.36C108.354 112.363 108.34 112.363 108.33 112.36C108.26 112.36 108.18 112.25 108.12 112.36V112.42C108.04 112.42 108.02 112.42 107.97 112.49C107.97 112.49 107.89 112.58 107.86 112.61C107.83 112.64 107.86 112.61 107.86 112.53C107.86 112.45 107.73 112.7 107.71 112.78H107.64V112.66C107.64 112.65 107.64 112.66 107.58 112.72C107.52 112.78 107.58 112.66 107.58 112.61C107.58 112.56 107.58 112.71 107.51 112.68C107.44 112.65 107.51 112.74 107.51 112.78H107.44C107.44 112.78 107.44 112.87 107.37 112.9C107.3 112.93 107.43 112.9 107.43 112.9V113C107.43 113.02 107.27 113.14 107.23 113C107.14 113.12 106.98 113.26 106.93 113.35C106.88 113.44 106.84 113.35 106.84 113.35C106.84 113.35 106.77 113.54 106.67 113.6C106.57 113.66 106.67 113.6 106.67 113.54C106.67 113.48 106.54 113.61 106.47 113.7V113.79C106.264 113.908 106.231 114.122 106.078 114.282C106.076 114.285 106.073 114.287 106.07 114.29C106.07 114.29 106.07 114.51 105.89 114.6V114.37H105.83V114.27C105.771 114.27 105.829 114.358 105.762 114.341C105.761 114.35 105.76 114.36 105.76 114.37V114.34C105.69 114.32 105.76 114.34 105.76 114.28V114.34C105.761 114.34 105.761 114.34 105.762 114.341C105.778 114.212 105.894 114.094 105.94 114.01C105.94 114.01 106.01 114.01 106.03 113.94C106.05 113.87 106.03 113.94 105.97 113.94C105.91 113.94 105.97 113.94 105.97 113.88C105.97 113.82 106.1 113.78 106.16 113.79C106.22 113.8 106.06 113.72 106.16 113.63H106C106.031 113.532 106.09 113.445 106.17 113.38C106.17 113.38 106.24 113.25 106.31 113.26C106.347 113.149 106.401 113.045 106.47 112.95C106.54 112.95 106.41 113.08 106.41 113.14L106.48 113.08V113.21C106.48 113.27 106.48 113.1 106.57 113.04C106.584 113.031 106.594 113.024 106.6 113.02C106.592 113.012 106.577 113 106.55 113C106.569 112.988 106.587 112.974 106.604 112.96C106.597 112.94 106.589 112.94 106.61 112.94H106.625C106.65 112.916 106.671 112.889 106.69 112.86C106.75 112.86 106.79 112.77 106.83 112.75C106.9 112.75 106.94 112.64 107.03 112.63C107.12 112.62 107.1 112.46 107.11 112.39C107.12 112.32 107.32 112.33 107.34 112.22C107.36 112.11 107.34 112.28 107.34 112.32C107.34 112.36 107.34 112.21 107.43 112.25C107.32 112.25 107.43 112.25 107.43 112.33C107.468 112.305 107.499 112.27 107.52 112.23C107.45 112.23 107.52 112.14 107.44 112.23C107.456 112.189 107.48 112.152 107.511 112.121C107.542 112.09 107.579 112.066 107.62 112.05H107.68C107.68 112.001 107.789 111.976 107.843 111.924C107.813 111.875 107.845 111.74 107.87 111.84C107.879 111.875 107.866 111.902 107.843 111.924C107.85 111.934 107.858 111.94 107.87 111.94C107.94 111.94 107.75 112 107.77 112.06C107.79 112.12 107.77 112.06 107.84 112.06V112C107.926 111.902 108.032 111.824 108.15 111.77C108.21 111.67 108.23 111.56 108.35 111.5C108.47 111.44 108.46 111.5 108.42 111.58C108.432 111.582 108.445 111.58 108.456 111.577C108.468 111.573 108.479 111.566 108.487 111.557C108.496 111.549 108.503 111.538 108.507 111.526C108.51 111.515 108.512 111.502 108.51 111.49H108.45C108.459 111.469 108.474 111.452 108.494 111.441C108.514 111.43 108.538 111.426 108.56 111.43V111.36C108.56 111.29 108.66 111.36 108.7 111.36V111.28C108.7 111.33 108.76 111.28 108.78 111.28C108.8 111.28 108.78 111.17 108.89 111.15C109 111.13 108.95 111.15 108.97 111.15C108.988 111.15 109.083 111.006 109.191 110.991C109.204 110.976 109.244 110.943 109.29 110.906V110.82H109.39C109.406 110.806 109.419 110.792 109.43 110.78C109.383 110.759 109.332 110.748 109.28 110.748C109.228 110.748 109.177 110.759 109.13 110.78H109.19H109.2C109.154 110.794 109.11 110.814 109.07 110.84H109.13C109.1 110.84 109.13 110.9 109.04 110.91H108.82C108.808 110.91 108.798 110.91 108.789 110.91C108.805 110.94 108.865 110.94 108.8 110.94C108.733 110.94 108.738 110.929 108.729 110.931C108.724 110.948 108.731 110.978 108.74 111.03L108.68 111.11C108.59 111.11 108.68 111.02 108.59 111.03C108.5 111.04 108.53 111.14 108.45 111.19C108.455 111.155 108.469 111.123 108.49 111.095C108.511 111.067 108.538 111.045 108.57 111.03C108.57 111.03 108.67 110.96 108.71 110.94C108.72 110.935 108.725 110.932 108.729 110.931C108.733 110.914 108.75 110.911 108.789 110.91C108.783 110.899 108.783 110.882 108.8 110.86H108.67C108.804 110.86 108.736 110.667 108.853 110.634C108.856 110.631 108.862 110.63 108.87 110.63C108.864 110.631 108.858 110.632 108.853 110.634C108.837 110.645 108.881 110.683 108.94 110.7L109.03 110.63C109.1 110.57 109.18 110.69 109.24 110.63H109.17C109.16 110.63 109.3 110.57 109.24 110.63H109.48C109.481 110.63 109.481 110.63 109.482 110.63C109.481 110.625 109.48 110.618 109.48 110.61V110.52C109.48 110.56 109.599 110.629 109.482 110.63C109.492 110.684 109.553 110.605 109.58 110.55C109.584 110.542 109.587 110.534 109.589 110.528C109.584 110.526 109.58 110.524 109.58 110.52V110.45C109.58 110.476 109.602 110.487 109.589 110.528C109.612 110.533 109.67 110.52 109.67 110.52C109.666 110.554 109.655 110.586 109.638 110.616C109.621 110.645 109.598 110.67 109.57 110.69H109.5C109.518 110.695 109.533 110.705 109.544 110.719C109.555 110.734 109.561 110.752 109.56 110.77H109.65L109.75 110.54H109.91V110.49C109.97 110.49 110.03 110.49 110.01 110.55H110.022C110.027 110.54 110.038 110.527 110.06 110.51L110.16 110.43H110.25C110.311 110.395 110.332 110.408 110.347 110.425C110.39 110.398 110.43 110.38 110.43 110.38C110.457 110.407 110.454 110.422 110.45 110.43C110.45 110.43 110.45 110.43 110.45 110.43C110.573 110.345 110.535 110.331 110.615 110.33C110.62 110.33 110.625 110.33 110.63 110.33C110.624 110.33 110.619 110.33 110.615 110.33C110.582 110.331 110.63 110.339 110.63 110.42C110.63 110.51 110.73 110.42 110.8 110.33C110.87 110.24 110.86 110.33 110.8 110.4C110.74 110.47 110.94 110.4 110.95 110.4C111.27 110.4 111.25 110.1 111.65 110.16C111.813 110.147 111.977 110.147 112.14 110.16L112.21 110.31V110.56C112.21 110.56 112.116 110.485 112.101 110.553C112.101 110.556 112.1 110.558 112.1 110.56C112.1 110.558 112.101 110.555 112.101 110.553C112.116 110.459 112.116 110.364 112.1 110.27V110.33C112.078 110.319 112.054 110.314 112.03 110.314C112.006 110.314 111.982 110.319 111.96 110.33H111.88C111.743 110.33 111.759 110.445 111.629 110.44C111.547 110.472 111.473 110.519 111.41 110.58C111.36 110.64 111.41 110.65 111.41 110.75C111.52 110.67 111.57 110.75 111.69 110.67C111.729 110.644 111.743 110.629 111.74 110.62H111.7H111.59C111.658 110.613 111.734 110.602 111.74 110.62H111.934H111.95C111.944 110.621 111.938 110.622 111.931 110.623C111.91 110.647 111.91 110.68 111.91 110.68H111.83C111.858 110.651 111.893 110.632 111.931 110.623C111.932 110.622 111.933 110.621 111.934 110.62H111.74C111.743 110.629 111.729 110.644 111.69 110.67C111.57 110.75 111.52 110.67 111.41 110.75C111.41 110.65 111.36 110.64 111.41 110.58C111.473 110.519 111.547 110.472 111.629 110.44C111.626 110.44 111.623 110.44 111.62 110.44H111.24C111.23 110.39 111.41 110.33 111.41 110.33C111.459 110.327 111.508 110.325 111.556 110.327C111.713 110.248 111.811 110.191 111.87 110.25C111.93 110.31 111.75 110.31 111.82 110.31C111.743 110.334 111.673 110.379 111.62 110.44H111.63C111.63 110.44 111.629 110.44 111.629 110.44C111.759 110.445 111.743 110.33 111.88 110.33H111.96C111.982 110.319 112.006 110.314 112.03 110.314C112.054 110.314 112.078 110.319 112.1 110.33V110.27C112.116 110.364 112.116 110.459 112.101 110.553C112.116 110.485 112.21 110.56 112.21 110.56V110.31L112.14 110.16C111.977 110.147 111.813 110.147 111.65 110.16C111.25 110.1 111.27 110.4 110.95 110.4C110.94 110.4 110.74 110.47 110.8 110.4C110.86 110.33 110.87 110.24 110.8 110.33C110.73 110.42 110.63 110.51 110.63 110.42C110.63 110.339 110.582 110.331 110.615 110.33C110.535 110.331 110.573 110.345 110.45 110.43C110.45 110.43 110.45 110.43 110.45 110.43C110.445 110.44 110.441 110.44 110.49 110.44C110.482 110.493 110.482 110.547 110.49 110.6C110.441 110.612 110.389 110.612 110.34 110.6C110.32 110.6 110.289 110.586 110.262 110.578C110.245 110.585 110.227 110.591 110.21 110.597C110.21 110.598 110.21 110.599 110.21 110.6C110.21 110.66 110.13 110.66 110.21 110.66L110.11 110.72C110.11 110.63 110.02 110.65 110.11 110.55H110.06V110.58C110.06 110.58 110.009 110.58 110.022 110.55H110.01C110.03 110.49 109.97 110.49 109.91 110.49V110.54H109.75L109.65 110.77H109.56C109.561 110.752 109.555 110.734 109.544 110.719C109.533 110.705 109.518 110.695 109.5 110.69H109.57C109.598 110.67 109.621 110.645 109.638 110.616C109.655 110.586 109.666 110.554 109.67 110.52C109.67 110.52 109.612 110.533 109.589 110.528C109.587 110.534 109.584 110.542 109.58 110.55C109.553 110.605 109.492 110.684 109.482 110.63C109.481 110.63 109.481 110.63 109.48 110.63H109.24C109.18 110.69 109.1 110.57 109.03 110.63L108.94 110.7C108.881 110.683 108.837 110.645 108.853 110.634C108.736 110.667 108.804 110.86 108.67 110.86H108.8C108.783 110.882 108.783 110.899 108.789 110.91C108.798 110.91 108.808 110.91 108.82 110.91H109.04C109.13 110.9 109.1 110.84 109.13 110.84H109.07C109.11 110.814 109.154 110.794 109.2 110.78H109.19H109.13C109.177 110.759 109.228 110.748 109.28 110.748C109.332 110.748 109.383 110.759 109.43 110.78C109.419 110.792 109.406 110.806 109.39 110.82H109.41C109.364 110.87 109.327 110.927 109.3 110.99H109.29V111C109.286 110.996 109.283 110.993 109.279 110.99H109.22C109.217 110.99 109.215 110.99 109.212 110.99C109.205 110.995 109.199 111 109.19 111C109.185 111 109.186 110.997 109.191 110.991C109.083 111.006 108.988 111.15 108.97 111.15C108.95 111.15 109 111.13 108.89 111.15C108.78 111.17 108.8 111.28 108.78 111.28C108.76 111.28 108.7 111.33 108.7 111.28V111.36C108.66 111.36 108.56 111.29 108.56 111.36V111.43C108.538 111.426 108.514 111.43 108.494 111.441C108.474 111.452 108.459 111.469 108.45 111.49H108.51C108.512 111.502 108.51 111.515 108.507 111.526C108.503 111.538 108.496 111.549 108.487 111.557C108.479 111.566 108.468 111.573 108.456 111.577C108.445 111.58 108.432 111.582 108.42 111.58C108.46 111.5 108.47 111.44 108.35 111.5C108.23 111.56 108.21 111.67 108.15 111.77C108.032 111.824 107.926 111.902 107.84 112V112.06C107.77 112.06 107.79 112.12 107.77 112.06C107.75 112 107.94 111.94 107.87 111.94C107.858 111.94 107.85 111.934 107.843 111.924C107.789 111.976 107.68 112.001 107.68 112.05H107.62C107.579 112.066 107.542 112.09 107.511 112.121C107.48 112.152 107.456 112.189 107.44 112.23C107.52 112.14 107.45 112.23 107.52 112.23C107.499 112.27 107.468 112.305 107.43 112.33C107.43 112.25 107.32 112.25 107.43 112.25C107.34 112.21 107.34 112.36 107.34 112.32C107.34 112.28 107.36 112.11 107.34 112.22C107.32 112.33 107.12 112.32 107.11 112.39C107.1 112.46 107.12 112.62 107.03 112.63C106.94 112.64 106.9 112.75 106.83 112.75C106.79 112.77 106.75 112.86 106.69 112.86C106.671 112.889 106.65 112.916 106.625 112.94H106.7L106.62 113.04C106.602 113.04 106.602 113.032 106.605 113.025C106.604 113.024 106.602 113.022 106.6 113.02C106.594 113.024 106.584 113.031 106.57 113.04C106.48 113.1 106.48 113.27 106.48 113.21V113.08L106.41 113.14C106.41 113.08 106.54 112.95 106.47 112.95C106.401 113.045 106.347 113.149 106.31 113.26C106.24 113.25 106.17 113.38 106.17 113.38C106.09 113.445 106.031 113.532 106 113.63H106.16C106.06 113.72 106.22 113.8 106.16 113.79C106.1 113.78 105.97 113.82 105.97 113.88C105.97 113.94 105.91 113.94 105.97 113.94C106.03 113.94 106.05 113.87 106.03 113.94C106.01 114.01 105.94 114.01 105.94 114.01C105.894 114.094 105.778 114.212 105.762 114.341C105.829 114.358 105.771 114.27 105.83 114.27V114.37H105.89V114.6C106.07 114.51 106.07 114.29 106.07 114.29V114.17C106.079 114.177 106.085 114.187 106.09 114.197C106.095 114.207 106.097 114.219 106.097 114.23C106.097 114.241 106.095 114.253 106.09 114.263C106.087 114.27 106.083 114.276 106.078 114.282C106.231 114.122 106.264 113.908 106.47 113.79V113.7C106.54 113.61 106.67 113.48 106.67 113.54C106.67 113.6 106.57 113.66 106.67 113.6C106.77 113.54 106.84 113.35 106.84 113.35C106.84 113.35 106.88 113.44 106.93 113.35C106.98 113.26 107.14 113.12 107.23 113C107.27 113.14 107.43 113.02 107.43 113V112.9C107.43 112.9 107.3 112.93 107.37 112.9C107.44 112.87 107.44 112.78 107.44 112.78H107.51C107.51 112.74 107.44 112.65 107.51 112.68C107.58 112.71 107.58 112.56 107.58 112.61C107.58 112.66 107.52 112.78 107.58 112.72C107.64 112.66 107.64 112.65 107.64 112.66V112.78H107.71C107.73 112.7 107.86 112.45 107.86 112.53C107.86 112.61 107.83 112.64 107.86 112.61C107.89 112.58 107.97 112.49 107.97 112.49C108.02 112.42 108.04 112.42 108.12 112.42V112.36C108.18 112.25 108.26 112.36 108.33 112.36C108.34 112.363 108.354 112.363 108.371 112.36C108.322 112.303 108.342 112.238 108.38 112.21C108.417 112.182 108.487 112.256 108.498 112.268C108.5 112.268 108.501 112.269 108.503 112.269C108.59 112.236 108.673 112.192 108.75 112.14C108.77 112.09 108.74 111.99 108.87 111.99C108.865 111.986 108.86 111.983 108.857 111.981Z" fill="#20B65C"/>
<path d="M112.72 115.24C112.72 115.24 112.72 115.3 112.72 115.29C112.72 115.28 112.76 115.21 112.72 115.24Z" fill="#20B65C"/>
<path d="M112.38 115.35C112.397 115.36 112.411 115.375 112.42 115.392C112.429 115.41 112.433 115.43 112.43 115.45C112.33 115.45 112.43 115.37 112.31 115.35C112.19 115.33 112.39 115.46 112.4 115.53C112.41 115.6 112.46 115.36 112.38 115.35Z" fill="#20B65C"/>
<path d="M112.25 115.32L112.28 115.36L112.26 115.32H112.25Z" fill="#20B65C"/>
<path d="M106.23 113L105.97 113.27L106.23 113Z" fill="#20B65C"/>
<path d="M112.67 113.09C112.726 113.156 112.776 113.226 112.82 113.3C112.82 113.16 112.68 113.15 112.72 113.03L112.67 113.09Z" fill="#20B65C"/>
<path d="M112.93 113.06C112.87 113.06 112.84 113.06 112.8 113.06C112.76 113.06 112.87 113.06 112.87 113.14L112.93 113.06Z" fill="#20B65C"/>
<path d="M112.02 113.69L111.98 113.66L112 113.68L112.02 113.69Z" fill="#20B65C"/>
<path d="M112.78 112.64L112.79 112.65L112.8 112.59L112.78 112.64Z" fill="#20B65C"/>
<path d="M111.89 113.67L111.88 113.72L111.91 113.73L111.89 113.67Z" fill="#20B65C"/>
<path d="M112.14 113.25C112.14 113.25 112.17 113.22 112.14 113.25V113.25Z" fill="#20B65C"/>
<path d="M112.73 112.34L112.69 112.3V112.31L112.72 112.35L112.73 112.34Z" fill="#20B65C"/>
<path d="M111.91 113C111.91 113 111.91 112.93 111.85 113C111.79 113.07 111.89 113 111.91 113Z" fill="#20B65C"/>
<path d="M112.08 112.38C112.08 112.38 112.08 112.43 112.08 112.44C112.08 112.45 112.1 112.4 112.08 112.38Z" fill="#20B65C"/>
<path d="M112.4 110.79C112.4 110.92 112.4 110.95 112.4 110.97C112.4 110.99 112.47 111.03 112.51 111.09C112.46 111 112.46 110.93 112.4 110.79Z" fill="#20B65C"/>
<path d="M111.7 112.53L111.63 112.5L111.64 112.51L111.7 112.53Z" fill="#20B65C"/>
<path d="M112.35 110.59C112.35 110.59 112.35 110.65 112.35 110.68C112.35 110.71 112.34 110.57 112.35 110.59Z" fill="#20B65C"/>
<path d="M111.9 111.46C111.9 111.46 111.9 111.51 111.9 111.53C111.9 111.55 112 111.45 111.9 111.46Z" fill="#20B65C"/>
<path d="M112.12 110.41C112.12 110.41 112.12 110.49 112.12 110.51C112.12 110.53 112.18 110.49 112.12 110.41Z" fill="#20B65C"/>
<path d="M111.86 111.33L111.85 111.35L111.89 111.38L111.86 111.33Z" fill="#20B65C"/>
<path d="M111.44 111.77C111.44 111.77 111.51 111.67 111.56 111.7C111.61 111.73 111.56 111.7 111.5 111.7C111.489 111.73 111.468 111.755 111.44 111.77Z" fill="#20B65C"/>
<path d="M111.43 111.59H111.49C111.49 111.59 111.43 111.53 111.39 111.59C111.35 111.65 111.39 111.59 111.39 111.59H111.43Z" fill="#20B65C"/>
<path d="M110.86 110.41H110.92H110.84C110.84 110.41 110.83 110.44 110.86 110.41Z" fill="#20B65C"/>
<path d="M111.52 111.14C111.52 111.14 111.52 111.14 111.59 111.14C111.66 111.14 111.53 111.11 111.52 111.14Z" fill="#20B65C"/>
<path d="M110.61 110.56L110.67 110.53L110.61 110.56Z" fill="#20B65C"/>
<path d="M110.31 110.53L110.3 110.52L110.26 110.55L110.27 110.56L110.31 110.53Z" fill="#20B65C"/>
<path d="M111 111.68C111 111.68 111 111.61 111 111.6H110.94C110.94 111.6 110.94 111.6 111 111.6V111.68Z" fill="#20B65C"/>
<path d="M108.42 111.39C108.42 111.39 108.5 111.33 108.52 111.39C108.54 111.45 108.52 111.44 108.52 111.45V111.34C108.63 111.34 108.52 111.47 108.52 111.52C108.52 111.57 108.6 111.43 108.69 111.39H108.61C108.61 111.39 108.68 111.32 108.73 111.29C108.78 111.26 108.73 111.29 108.73 111.22C108.73 111.22 108.63 111.22 108.6 111.22C108.57 111.22 108.5 111.29 108.47 111.34C108.47 111.34 108.38 111.4 108.41 111.42L108.24 111.51C108 111.64 107.78 111.79 107.55 111.93H107.67C107.67 112.01 107.74 111.93 107.75 111.93C107.739 111.935 107.727 111.937 107.715 111.937C107.703 111.937 107.691 111.935 107.68 111.93C107.68 111.93 107.73 111.93 107.74 112C107.75 112.07 107.74 111.85 107.88 111.81C108.02 111.77 107.88 111.89 107.94 111.81C108.01 111.72 108.05 111.81 108.05 111.72C108.05 111.66 108.14 111.62 108.19 111.59C108.29 111.46 108.25 111.59 108.38 111.44V111.53C108.44 111.53 108.38 111.46 108.46 111.44C108.54 111.42 108.46 111.44 108.46 111.51L108.58 111.33C108.49 111.38 108.44 111.4 108.42 111.39Z" fill="#20B65C"/>
<path d="M108.88 111.12C108.88 111.12 108.88 111.07 108.88 111.05L108.77 111.11C108.77 111.11 108.77 111.11 108.77 111.17L108.88 111.12Z" fill="#20B65C"/>
<path d="M108.73 111.09H108.79C108.79 111.09 108.76 111.08 108.73 111.09Z" fill="#20B65C"/>
<path d="M109.2 112.06L109.19 112.07L109.17 112.1L109.2 112.06Z" fill="#20B65C"/>
<path d="M108.88 112.12C108.88 112.12 108.95 112.12 108.96 112.12C108.97 112.12 108.93 112.08 108.88 112.12Z" fill="#20B65C"/>
<path d="M109.09 112.38L109.05 112.42H109.06L109.09 112.38Z" fill="#20B65C"/>
<path d="M107.53 112C107.38 112 107.53 111.91 107.53 111.87V111.93H107.46C107.46 111.93 107.46 111.93 107.53 111.98C107.6 112.03 107.47 111.98 107.38 111.98L107.28 112.06L106.94 112.33C106.94 112.39 107.01 112.33 107 112.43C106.99 112.53 107.2 112.33 107.17 112.27C107.14 112.21 107.17 112.27 107.17 112.27V112.19H107.11C107.128 112.147 107.156 112.109 107.193 112.081C107.23 112.053 107.274 112.035 107.32 112.03C107.25 112.11 107.32 112.14 107.2 112.18C107.08 112.22 107.2 112.18 107.2 112.18C107.315 112.13 107.426 112.07 107.53 112Z" fill="#20B65C"/>
<path d="M106.33 113V112.89L106.24 112.97C106.24 112.97 106.24 112.9 106.24 112.91L106.33 113Z" fill="#20B65C"/>
<path d="M106.38 112.75C106.372 112.759 106.367 112.77 106.365 112.782C106.363 112.794 106.365 112.806 106.371 112.817C106.376 112.828 106.385 112.837 106.395 112.843C106.406 112.849 106.418 112.851 106.43 112.85C106.43 112.91 106.37 112.85 106.38 112.85C106.39 112.85 106.44 112.85 106.45 112.85L106.38 112.75Z" fill="#20B65C"/>
<path d="M106.76 112.49V112.52L106.8 112.5L106.76 112.49Z" fill="#20B65C"/>
<path d="M106.67 112.58L106.63 112.6L106.67 112.58Z" fill="#20B65C"/>
<path d="M106.72 112.54C106.72 112.54 106.66 112.49 106.62 112.54H106.72Z" fill="#20B65C"/>
<path d="M108.75 112.5L108.72 112.54H108.73L108.75 112.5Z" fill="#20B65C"/>
<path d="M108.49 112.93C108.42 112.93 108.49 112.84 108.43 112.88C108.37 112.92 108.43 112.78 108.43 112.78C108.43 112.78 108.43 112.78 108.43 112.84C108.43 112.9 108.43 112.84 108.43 112.76C108.43 112.68 108.43 112.67 108.43 112.62C108.43 112.57 108.25 112.69 108.23 112.79C108.21 112.89 108.29 112.94 108.34 113.02C108.39 113.1 108.52 113 108.49 112.93Z" fill="#20B65C"/>
<path d="M107.75 112.66C107.75 112.66 107.75 112.66 107.75 112.73V112.67C107.75 112.67 107.77 112.67 107.75 112.66Z" fill="#20B65C"/>
<path d="M105.63 113.58C105.63 113.58 105.62 113.59 105.63 113.58V113.58Z" fill="#20B65C"/>
<path d="M105.85 114.4C105.85 114.4 105.79 114.4 105.85 114.48C105.85 114.48 105.86 114.44 105.85 114.4Z" fill="#20B65C"/>
<path opacity="0.2" d="M46 99C66.9868 99 84 81.9868 84 61C84 40.0132 66.9868 23 46 23C25.0132 23 8 40.0132 8 61C8 81.9868 25.0132 99 46 99Z" fill="#1A2C3B"/>
<path d="M42 94C62.9868 94 80 76.9868 80 56C80 35.0132 62.9868 18 42 18C21.0132 18 4 35.0132 4 56C4 76.9868 21.0132 94 42 94Z" fill="white"/>
<path d="M42 92C61.8823 92 78 75.8823 78 56C78 36.1177 61.8823 20 42 20C22.1177 20 6 36.1177 6 56C6 75.8823 22.1177 92 42 92Z" fill="#FCFCFC"/>
<path d="M42 90C60.7777 90 76 74.7777 76 56C76 37.2223 60.7777 22 42 22C23.2223 22 8 37.2223 8 56C8 74.7777 23.2223 90 42 90Z" fill="#F9F9F9"/>
<path d="M42 88C59.6731 88 74 73.6731 74 56C74 38.3269 59.6731 24 42 24C24.3269 24 10 38.3269 10 56C10 73.6731 24.3269 88 42 88Z" fill="#F6F6F6"/>
<path d="M42 86C58.5685 86 72 72.5685 72 56C72 39.4315 58.5685 26 42 26C25.4315 26 12 39.4315 12 56C12 72.5685 25.4315 86 42 86Z" fill="#F3F3F3"/>
<path d="M42 84C57.464 84 70 71.464 70 56C70 40.536 57.464 28 42 28C26.536 28 14 40.536 14 56C14 71.464 26.536 84 42 84Z" fill="#EFEFEF"/>
<path d="M42 82C56.3594 82 68 70.3594 68 56C68 41.6406 56.3594 30 42 30C27.6406 30 16 41.6406 16 56C16 70.3594 27.6406 82 42 82Z" fill="#ECECEC"/>
<path d="M42 80C55.2548 80 66 69.2548 66 56C66 42.7452 55.2548 32 42 32C28.7452 32 18 42.7452 18 56C18 69.2548 28.7452 80 42 80Z" fill="#E9E9E9"/>
<path d="M42 78C54.1503 78 64 68.1503 64 56C64 43.8497 54.1503 34 42 34C29.8497 34 20 43.8497 20 56C20 68.1503 29.8497 78 42 78Z" fill="#E6E6E6"/>
<path opacity="0.05" d="M74.29 57.22C71.42 54.05 57.76 40.65 57.55 40.44C53.6117 36.5237 48.3378 34.2419 42.7869 34.0526C37.236 33.8634 31.819 35.7807 27.6231 39.4197C23.4272 43.0587 20.7629 48.15 20.1651 53.6719C19.5673 59.1937 21.0801 64.7373 24.4 69.19C27.4 73.19 39.65 84.75 42.4 87.51C44.8373 89.9666 47.8222 91.8103 51.11 92.89C57.8253 91.2262 63.9602 87.7634 68.8549 82.874C73.7495 77.9846 77.2189 71.8535 78.89 65.14C77.9279 62.2071 76.3608 59.5089 74.29 57.22Z" fill="#1A2C3B"/>
<path d="M73 53H55V59H73V53Z" fill="white"/>
<path d="M42 78C54.1503 78 64 68.1503 64 56C64 43.8497 54.1503 34 42 34C29.8497 34 20 43.8497 20 56C20 68.1503 29.8497 78 42 78Z" fill="white"/>
<path d="M42 75C52.4934 75 61 66.4934 61 56C61 45.5066 52.4934 37 42 37C31.5066 37 23 45.5066 23 56C23 66.4934 31.5066 75 42 75Z" fill="#998675"/>
<path opacity="0.2" d="M42 37C39.1192 36.9894 36.274 37.6364 33.6811 38.8917C31.0881 40.1471 28.8159 41.9777 27.0376 44.244C25.2592 46.5104 24.0215 49.1528 23.4189 51.9699C22.8162 54.7869 22.8645 57.7044 23.56 60.5C24.5824 56.3826 26.9534 52.7258 30.2953 50.1123C33.6371 47.4988 37.7575 46.0789 42 46.0789C46.2424 46.0789 50.3629 47.4988 53.7047 50.1123C57.0466 52.7258 59.4176 56.3826 60.44 60.5C61.1355 57.7044 61.1838 54.7869 60.5811 51.9699C59.9785 49.1528 58.7408 46.5104 56.9624 44.244C55.184 41.9777 52.9118 40.1471 50.3189 38.8917C47.726 37.6364 44.8808 36.9894 42 37Z" fill="#1A2C3B"/>
<path opacity="0.2" d="M122.43 50.17L122.34 50.07C121.731 49.5637 120.986 49.2495 120.198 49.1672C119.411 49.0849 118.616 49.2381 117.916 49.6076C117.216 49.9771 116.641 50.5461 116.264 51.2425C115.887 51.939 115.726 52.7316 115.8 53.52L124.26 144.13L129.26 154.71L132.26 143.38L123.8 52.78C123.692 51.7673 123.202 50.8339 122.43 50.17Z" fill="#1A2C3B"/>
<path d="M129 140.68L126 152L121 141.42L112.54 50.81C112.443 49.7546 112.768 48.7037 113.445 47.8881C114.122 47.0725 115.095 46.5589 116.15 46.46C117.205 46.3626 118.256 46.6881 119.072 47.365C119.888 48.0419 120.401 49.0147 120.5 50.07L129 140.68Z" fill="#DBD1AF"/>
<path d="M120.965 55.053L112.999 55.7961L113.185 57.7875L121.15 57.0444L120.965 55.053Z" fill="#8494A3"/>
<path d="M124.88 140.05C123.525 140.18 122.202 140.542 120.97 141.12V141.42L126 152L129 140.68V140.37C127.655 140.028 126.262 139.92 124.88 140.05Z" fill="#E6E6E6"/>
<path d="M125.54 147C124.959 147.059 124.394 147.222 123.87 147.48L126 152L127.26 147.18C126.701 147.024 126.119 146.963 125.54 147Z" fill="#8494A3"/>
<path d="M116.15 46.46C115.095 46.5589 114.122 47.0725 113.445 47.8881C112.768 48.7037 112.443 49.7546 112.54 50.81L113 55.81L121 55.07L120.53 50.07C120.481 49.5447 120.329 49.0343 120.082 48.5681C119.835 48.1018 119.498 47.6891 119.091 47.3535C118.684 47.018 118.215 46.7663 117.71 46.613C117.205 46.4596 116.675 46.4076 116.15 46.46Z" fill="#D1A7A7"/>
<path opacity="0.1" d="M120.5 50.07L129 140.68L126 152L116.15 46.46C117.205 46.3626 118.256 46.6881 119.072 47.365C119.888 48.0419 120.401 49.0147 120.5 50.07Z" fill="#1A2C3B"/>
</g>
<defs>
<clipPath id="clip0">
<path d="M0 0H352V168H0V0Z" fill="white"/>
</clipPath>
</defs>
</svg>
