<svg xmlns="http://www.w3.org/2000/svg" fill="none" viewBox="0 0 352 168"><defs/><g clip-path="url(#a)"><path fill="#E2F1F9" d="M287 15H9c-5 0-9 4-9 9v126c0 5 4 9 9 9h278c5 0 9-4 9-9V24c0-5-4-9-9-9z"/><path fill="#00AB44" d="M153 4H46c-3 0-5 2-5 5v109c0 3 2 5 5 5h107c3 0 5-2 5-5V9c0-3-2-5-5-5z"/><path fill="#C5CED6" d="M330 47H149c-4 0-7 3-7 7v107c0 4 3 7 7 7h181c4 0 7-3 7-7V54c0-4-3-7-7-7z"/><path fill="#353D45" d="M330 47H149a10 10 0 01-9-6L127 8a6 6 0 016-8h213a6 6 0 016 8l-13 33a10 10 0 01-9 6z"/><path fill="#252B30" d="M145 39l-9-30a4 4 0 014-5h199a4 4 0 014 5l-9 30a6 6 0 01-6 4H151a6 6 0 01-6-4z"/><path fill="#8494A3" d="M159 103h-11l-2 2v9l2 1h11l1-1v-9l-1-2zM170 89h-22l-2 2v9l2 1h22l1-1v-9l-1-2zM175 103h-11l-2 2v9l2 1h11l1-1v-9l-1-2zM186 89h-11l-2 2v9l2 1h11l1-1v-9l-1-2zM164 75h-16l-2 2v9l2 1h16l1-1v-9l-1-2zM180 75h-11l-2 2v9l2 1h11l1-1v-9l-1-2zM159 61h-11l-2 2v9l2 1h11l1-1v-9l-1-2zM157 53h-9l-2 2v2l2 1h9l1-1v-2l-1-2zM171 53h-9l-2 2v2l2 1h9l1-1v-2l-1-2zM185 53h-9l-2 2v2l2 1h9l1-1v-2l-1-2zM199 53h-9l-2 2v2l2 1h9l1-1v-2l-1-2zM213 53h-9l-2 2v2l2 1h9l1-1v-2l-1-2zM227 53h-9l-2 2v2l2 1h9l1-1v-2l-1-2zM241 53h-9l-2 2v2l2 1h9l1-1v-2l-1-2zM256 53h-10l-2 2v2l2 1h10l1-1v-2l-1-2zM271 53h-10l-2 2v2l2 1h10l1-1v-2l-1-2zM287 53h-11l-2 2v2l2 1h11l1-1v-2l-1-2zM302 53h-10l-2 2v2l2 1h10l1-1v-2l-1-2zM317 53h-10l-2 2v2l2 1h10l1-1v-2l-1-2zM332 53h-10l-2 2v2l2 1h10l1-1v-2l-1-2zM175 61h-11l-2 2v9l2 1h11l1-1v-9l-1-2zM191 61h-11l-2 2v9l2 1h11l1-1v-9l-1-2zM207 61h-11l-2 2v9l2 1h11l1-1v-9l-1-2zM223 61h-11l-2 2v9l2 1h11l1-1v-9l-1-2zM239 61h-11l-2 2v9l2 1h11l1-1v-9l-1-2zM255 61h-11l-2 2v9l2 1h11l1-1v-9l-1-2zM271 61h-11l-2 2v9l2 1h11l1-1v-9l-1-2zM287 61h-11l-2 2v9l2 1h11l1-1v-9l-1-2zM303 61h-11l-2 2v9l2 1h11l1-1v-9l-1-2zM332 61h-24l-2 2v9l2 1h24l1-1v-9l-1-2zM196 75h-11l-2 2v9l2 1h11l1-1v-9l-1-2zM212 75h-11l-2 2v9l2 1h11l1-1v-9l-1-2zM228 75h-11l-2 2v9l2 1h11l1-1v-9l-1-2zM244 75h-11l-2 2v9l2 1h11l1-1v-9l-1-2zM260 75h-11l-2 2v9l2 1h11l1-1v-9l-1-2zM276 75h-11l-2 2v9l2 1h11l1-1v-9l-1-2zM292 75h-11l-2 2v9l2 1h11l1-1v-9l-1-2zM308 75h-11l-2 2v9l2 1h11l1-1v-9l-1-2zM332 75h-19l-2 2v9l2 1h19l1-1v-9l-1-2zM202 89h-11l-2 2v9l2 1h11l1-1v-9l-1-2zM218 89h-11l-2 2v9l2 1h11l1-1v-9l-1-2zM234 89h-11l-2 2v9l2 1h11l1-1v-9l-1-2zM250 89h-11l-2 2v9l2 1h11l1-1v-9l-1-2zM266 89h-11l-2 2v9l2 1h11l1-1v-9l-1-2zM282 89h-11l-2 2v9l2 1h11l1-1v-9l-1-2zM298 89h-11l-2 2v9l2 1h11l1-1v-9l-1-2zM332 89h-29l-2 2v9l2 1h29l1-1v-9l-1-2zM191 103h-11l-2 2v9l2 1h11l1-1v-9l-1-2zM284 103h-88l-2 2v9l2 1h88l1-1v-9l-1-2zM300 103h-11l-2 2v9l2 1h11l1-1v-9l-1-2zM316 103h-11l-2 2v9l2 1h11l1-1v-9l-1-2zM332 103h-11l-2 2v9l2 1h11l1-1v-9l-1-2z"/><path fill="#B7BFC7" d="M274 120h-69c-3 0-5 2-5 5v34c0 3 2 5 5 5h69c3 0 5-2 5-5v-34c0-3-2-5-5-5z"/><path fill="#1A2C3B" d="M330 47H149a7 7 0 00-7 7v25h195V54a7 7 0 00-7-7z" opacity=".2"/><path fill="#000" d="M346 0H239v168h91a7 7 0 007-7V54a7 7 0 00-7-7 10 10 0 009-6l13-33a6 6 0 00-6-8z" opacity=".1"/><path fill="#fff" d="M103 73L46 95l22 57 57-22-22-57z"/><path fill="#00AB44" d="M77 124l1 1s1 0 0 0h-1c-1 0 0 0 0 0l-1 1 1 1h2l1 1v2h-1a1 1 0 010 1h-1c-1 0 0 0 0 0v-1l1-1v-1h-2l-1-1-1-1 1-2h1zm-1 2c0 1 0 1 0 0zM81 113h-1c-1 0 0 0 0 0h1v5a15 15 0 010 3h2v-1h1v1l-1-1v1h0l-1 1h-1l1 2a13 13 0 001 3l1-1v-1 1c0 1 0 0 0 0v1h-1v1l-1-1-1-2-1-2h-1a2 2 0 01-2 0l1-2v1s-1 0 0 0h1l1-1v-2-2-4h1zm3 7zM91 120v1a1 1 0 010 1 1 1 0 01-2-1v-1-1 1h-1v2l-1 1c-1 0 0 0 0 0h1l-1 1h-1l-1-1v-2-1-1l1-1 1 1v0h-1v1h-1 1v3h1v-3-1l1-1v-1 1h1v2l1 1h1v-1zm-3 2zm-1-3zM95 113h-2l-1 1v5s0 1 0 0h-1l-1-4h1c1 0 0 0 0 0v-1l1-2a1 1 0 011 0h1l1 1z"/><path fill="#00AB44" d="M96 101c0 1 0 0 0 0l1 2v6h1l1-1c1 0 0 0 0 0v1l-1 1-1 1v1a13 13 0 001 3h1v-1h1c1 0 0 0 0 0h0c1 1 0 0 0 0v1h-1v1h-1v-1l-1-2-1-2h-1a2 2 0 01-2 0c-1-1 0-2 1-2v1h-1c-1 0 0 0 0 0h1c1 0 0 0 0 0h1l1-1v-1-3-4zm4 7s-1 0 0 0z"/><path fill="#20B65C" d="M110 114v-1s1 0 0 0v1-1 1zM110 114v1s-1 0 0 0c0 0-1 0 0 0v-1s0 1 0 0zM91 134l1-1h-1v1zM91 134zM93 131l-1 1 1-1zM79 138zM91 134zM91 134v-1 1zM88 136c-1 0 0 0 0 0h-1 0l-1 1h1c-1 0 0 0 0 0v-1 0h2s0-1 0 0l1-1 1-1h-1l-1 2h-1zM90 134h1-1zM91 134z"/><path fill="#20B65C" d="M87 136l1-1h0s1 0 0 0v1h-1-1 1zM93 133l-1 1h-2 1s-1 0 0 0h1v-1 0h1c1 0 0 0 0 0zm0 0h-1 1zM98 128zM99 126zM108 117zM103 123zM99 126zM94 131zM109 115zM104 122zM109 117c0-1 0 0 0 0zM109 115h1-1s1 0 0 0v1-1zM110 116zM99 127zM104 122zM95 131zM100 126zM101 126v-1 1h-1 1zM101 126zM102 124zM91 133h1-1zM106 120zM101 125zM106 120z"/><path fill="#20B65C" d="M82 138h-1l-2 1h-1-1-3l-1 1 1-1h-1 1-1 5l1-1v0h1-1c1 0 0 0 0 0h3v-1h2-1l1-1h1-1 1c1 0 0 0 0 0l2-1h1v-1h1c1 0 0 0 0 0l1-1h1v-1h0v1l1-1a4 4 0 00-1 0v1h-1v1-1 1h-1l1-1c-1 1 0 0 0 0h-1 2v-1a4 4 0 011 0v-1 1h1v-1 1h-1l1-1h1v-1h1v-1 1l1-1 1-1 1-1v1h-1s1 0 0 0l-1 1 1-1v1-1h1v-1h1-1v0h1-1 1v-1h1-1v1a66 66 0 001-2h1v-1c0 1 0 0 0 0l1-1s0 1 0 0l-1 1h1v-1h1v-1h1l-1 1 1-1c1 0 0 0 0 0a2 2 0 00-1 1l1-1 1-1 1-1v-1h1v-1 1s-1 0 0 0v-1 0h1-1 1c1 0 0 0 0 0v-1 1-1 0l1-1-1 1 1-1v-1 1l-1 1v0h1v-1 0l1-1-1 1h0s0 1 0 0v1-1 1h-1s1 0 0 0v1-1l1-1v-1 1l-1 1 1-1-1 1v1-1 1-1 1h-1 0v1c-1 0 0 0 0 0v-1 1h-1v1l-1 1-1 1-1 1h-1c-1 0 0 0 0 0v1h-1s0 1 0 0v1-1 1h-1c1 0 0 0 0 0 0 1 0 1 0 0v1a66 66 0 01-1 0 1 1 0 001 0h-1 0v1h-1 1-1v0h0v1h-1 1-1v0l-1 1-1 1v-1 1h-1v1-1h1-1v1h-1 0l-1 1h1-1v-1 1l-1 1v-1h0v1h-1l-1 1h-1v1h-1l-2 1s1 0 0 0h-1v1s-1 0 0 0h-1-1v1h-1-2s1 0 0 0h1-1v0l-1 1h-1-1-1a10 10 0 00-2 0h1-1 1l-1 1 1-1h5l2-1h1zM109 116v-1 1zM109 115v1-1zM110 115zM110 116v-1 1zM107 118zM79 138h-2 2zM104 122l1-1-1 1zM104 122zM106 121zM103 123zM106 121zM105 122zM102 124zM104 123zM102 124zM101 125z"/><path fill="#20B65C" d="M98 127h1v-1l-1 1zM99 126zM103 125h-1 1zM98 127zM99 127h0zM98 128s0-1 0 0zM99 127zM100 127c-1 0 0 0 0 0zM100 127zM99 128s-1 0 0 0zM95 129zM98 129v-1 1zM95 130zM94 130v1-1zM96 131v-1 1zM88 135v-1 0h1c-1 0 0 0 0 0h-2 1l-1 1-3 1h1-1 2v-1h2c0-1 0 0 0 0zM88 134h1-1zM84 136zM89 134v-1 1zM89 134zM89 135zM88 135h1-1zM89 135h-1 1zM84 136h-1v1h-2s1 0 0 0h1s1 0 0 0l2-1zM79 138zM79 138zM81 137zM81 138h-1 1zM81 138h-1 1zM87 136zM86 136zM86 137v-1l-1 1h1zM86 137zM84 137zM75 139zM74 139h-1 1zM113 116zM113 116v-1 1c0 1 0 0 0 0v-1 1zM110 112zM110 111zM110 111zM107 113zM110 112zM109 113v-1 1l1-1h-1v1zM109 112zM109 113v-1 1zM110 112zM112 111zM113 115zM113 113zM113 111zM113 113zM113 115c0 1 0 1 0 0zM112 112zM112 114z"/><path fill="#20B65C" d="M109 112h-1v1h-1v1h-1v1-1-1c1 0 0 0 0 0h1v-1h1-1 1v-1 1h1v-1h-1 1s1 0 0 0h1v-1 1-1 1-1h1c0 1 0 0 0 0h1v0l-1 1h0l1-1h-1 1v1c0-1 0 0 0 0v-1h-1s0 1 0 0h-1v1h-2 1v1h-1v-1 1h-1 0v1h-1s1 0 0 0v1h1c0 1 0 0 0 0v-1h1s-1 0 0 0c0 0 0-1 0 0v-1h1zM113 115zM112 115v0zM112 115zM106 113zM113 113zM113 113zM112 114zM113 113zM112 114zM112 113zM113 112zM112 113zM112 112zM112 111h1-1zM112 113zM112 111zM112 111v0zM112 110v0zM112 111zM111 112h1-1zM111 112zM111 110zM112 111zM111 111zM110 111zM111 112z"/><path fill="#20B65C" d="M108 111h1v0h-1v1l1-1h-1zM109 111zM109 111zM109 112zM109 112zM109 112zM108 112c-1 0 0 0 0 0h-1 1zM106 113zM106 113zM107 112v1-1zM107 113zM107 113zM109 113zM108 113s1 0 0 0zM108 113zM106 114zM106 114z"/><path fill="#1A2C3B" d="M46 99a38 38 0 100-76 38 38 0 000 76z" opacity=".2"/><path fill="#fff" d="M42 94a38 38 0 100-76 38 38 0 000 76z"/><path fill="#FCFCFC" d="M42 92a36 36 0 100-72 36 36 0 000 72z"/><path fill="#F9F9F9" d="M42 90a34 34 0 100-68 34 34 0 000 68z"/><path fill="#F6F6F6" d="M42 88a32 32 0 100-64 32 32 0 000 64z"/><path fill="#F3F3F3" d="M42 86a30 30 0 100-60 30 30 0 000 60z"/><path fill="#EFEFEF" d="M42 84a28 28 0 100-56 28 28 0 000 56z"/><path fill="#ECECEC" d="M42 82a26 26 0 100-52 26 26 0 000 52z"/><path fill="#E9E9E9" d="M42 80a24 24 0 100-48 24 24 0 000 48z"/><path fill="#E6E6E6" d="M42 78a22 22 0 100-44 22 22 0 000 44z"/><path fill="#1A2C3B" d="M74 57L58 40a22 22 0 00-34 29l18 19 9 5a38 38 0 0028-28l-5-8z" opacity=".1"/><path fill="#fff" d="M73 53H55v6h18v-6z"/><path fill="#fff" d="M42 78a22 22 0 100-44 22 22 0 000 44z"/><path fill="#998675" d="M42 75a19 19 0 100-38 19 19 0 000 38z"/><path fill="#1A2C3B" d="M42 37a19 19 0 00-18 24 19 19 0 0136 0 19 19 0 00-18-24zM122 50a4 4 0 00-6 4l8 90 5 11 3-12-8-90-2-3z" opacity=".2"/><path fill="#DBD1AF" d="M129 141l-3 11-5-11-8-90a4 4 0 017-1l9 91z"/><path fill="#8494A3" d="M121 55l-8 1v2l8-1v-2z"/><path fill="#E6E6E6" d="M125 140l-4 1 5 11 3-11v-1h-4z"/><path fill="#8494A3" d="M126 147h-2l2 5 1-5h-1z"/><path fill="#D1A7A7" d="M116 46a4 4 0 00-3 5v5l8-1v-5a4 4 0 00-5-4z"/><path fill="#1A2C3B" d="M121 50l8 91-3 11-10-106a4 4 0 015 4z" opacity=".1"/></g><defs><clipPath id="a"><path fill="#fff" d="M0 0h352v168H0V0z"/></clipPath></defs></svg>
