<svg width="201" height="162" viewBox="0 0 201 162" fill="none" xmlns="http://www.w3.org/2000/svg">
<g clip-path="url(#clip0)">
<path d="M171.83 53.3L185 89.14V97.3H16V89.14L29.17 53.3H171.83ZM183 37.3H18L0 86.3V113.3H201V86.3L183 37.3Z" fill="#DAE3EB"/>
<path opacity="0.05" d="M49.85 53.3C50.451 52.2928 51.1192 51.3273 51.85 50.41C52.23 49.95 52.58 49.48 52.93 49C53.05 48.83 53.16 48.66 53.27 48.48C53.38 48.3 53.7 47.85 53.91 47.48C54.12 47.11 54.16 47.05 54.28 46.84C54.4 46.63 54.62 46.26 54.78 45.96L55.14 45.23C55.27 44.95 55.41 44.68 55.53 44.39C55.65 44.1 55.76 43.86 55.87 43.6C55.98 43.34 56.08 43.06 56.18 42.79C56.28 42.52 56.38 42.22 56.48 41.94C56.58 41.66 56.65 41.43 56.72 41.17C56.79 40.91 56.89 40.56 56.97 40.25C57.05 39.94 57.09 39.77 57.15 39.52C57.21 39.27 57.29 38.87 57.35 38.52L57.47 37.85C57.47 37.65 57.47 37.45 57.55 37.25H35.26L30.85 41.33C30.1745 41.954 29.3469 42.3895 28.4501 42.5931C27.5533 42.7967 26.6187 42.7611 25.74 42.49L17.06 39.8L9.89 59.38L10.65 59.76L11.55 60.22C14.7364 61.8504 17.5518 64.1211 19.82 66.89L20.07 67.19C21.0363 68.4087 21.893 69.7104 22.63 71.08L29.17 53.3H49.85ZM120.62 37.3H110.55L108.66 53.3H118.73L120.62 37.3ZM89 37.3H69V53.3H89V37.3ZM137.65 37.3L134.57 53.3H171.23L174.3 37.3H137.65Z" fill="#1A2C3B"/>
<path d="M44.63 1.75001C44.2056 1.57219 43.7404 1.51448 43.2854 1.58319C42.8303 1.6519 42.403 1.84438 42.0499 2.13959C41.6969 2.4348 41.4319 2.82138 41.2837 3.25708C41.1356 3.69277 41.1101 4.1608 41.21 4.61001L46.67 28.72C46.8747 29.6161 46.8392 30.5504 46.5671 31.4283C46.2949 32.3063 45.7957 33.0969 45.12 33.72L36.85 41.37C36.1745 41.994 35.3469 42.4295 34.4501 42.6331C33.5533 42.8367 32.6187 42.8011 31.74 42.53L21 39.2C20.1197 38.9294 19.3267 38.4306 18.7015 37.7545C18.0763 37.0783 17.641 36.2487 17.44 35.35L12 11.24C11.899 10.7896 11.6752 10.376 11.3535 10.045C11.0319 9.71392 10.6248 9.47841 10.1775 9.36451C9.7302 9.25061 9.26009 9.26278 8.81927 9.39966C8.37845 9.53653 7.98413 9.79278 7.68 10.14C3.45043 14.9126 1.17581 21.1044 1.31 27.48L1.53 36.66C1.64558 41.5373 3.12271 46.2851 5.79455 50.367C8.46638 54.449 12.2264 57.7025 16.65 59.76C20.2717 61.4468 23.4589 63.9408 25.9672 67.0505C28.4755 70.1603 30.2382 73.8033 31.12 77.7L34.67 93.34L56.12 88.48L52.58 72.84C51.6955 68.9432 51.7151 64.8957 52.6373 61.0077C53.5594 57.1197 55.3597 53.4945 57.9 50.41C61.0103 46.6397 63.0026 42.0738 63.6513 37.2294C64.2999 32.385 63.5789 27.4557 61.57 23L57.8 14.67C55.1903 8.86088 50.4881 4.24796 44.63 1.75001Z" fill="#C5CED6"/>
<path opacity="0.1" d="M29.79 71.85C28.9082 67.9533 27.1455 64.3103 24.6372 61.2006C22.1289 58.0908 18.9417 55.5968 15.32 53.91C12.1556 52.4357 9.31848 50.3428 6.97586 47.7545C4.63324 45.1663 2.83255 42.1352 1.67999 38.84C2.16559 43.324 3.80183 47.6065 6.42997 51.2718C9.05812 54.9372 12.589 57.8612 16.68 59.76C20.2961 61.4505 23.4774 63.946 25.9803 67.0556C28.4832 70.1651 30.2413 73.8062 31.12 77.7L29.79 71.85Z" fill="#1A2C3B"/>
<path d="M26.8787 72.5532L54.185 66.3594L71.2181 141.452C72.0394 145.073 71.3887 148.872 69.409 152.013C67.4293 155.154 64.2828 157.381 60.6618 158.202C57.0408 159.023 53.2417 158.373 50.1005 156.393C46.9592 154.413 44.7331 151.267 43.9117 147.646L26.8787 72.5532Z" fill="#00AB44"/>
<path opacity="0.2" d="M46.38 68.13L61 132.49C61.5191 134.783 61.4524 137.17 60.806 139.43C60.1595 141.691 58.9542 143.752 57.3012 145.424C55.6482 147.096 53.6008 148.325 51.3478 148.997C49.0948 149.669 46.7088 149.763 44.41 149.27C45.6304 152.604 48.0719 155.35 51.2403 156.952C54.4087 158.553 58.0673 158.892 61.4757 157.898C64.8841 156.904 67.7876 154.652 69.5985 151.599C71.4095 148.545 71.9927 144.917 71.23 141.45L54.23 66.36L46.38 68.13Z" fill="#1A2C3B"/>
<path opacity="0.1" d="M62.37 25.08C62.7547 28.5499 62.4395 32.0616 61.4433 35.4076C60.4471 38.7535 58.79 41.8657 56.57 44.56C54.0275 47.6452 52.226 51.2721 51.3038 55.1621C50.3815 59.0522 50.3631 63.1018 51.25 67L52.58 72.86C51.6923 68.9602 51.7103 64.9089 52.6325 61.0171C53.5547 57.1254 55.3567 53.4967 57.9 50.41C60.7637 46.9305 62.68 42.7702 63.4632 38.3323C64.2463 33.8945 63.8698 29.3296 62.37 25.08Z" fill="#1A2C3B"/>
<path d="M168.373 30.5089L158.552 28.6214L138.922 130.752L148.742 132.639L168.373 30.5089Z" fill="#C5CED6"/>
<path opacity="0.1" d="M168.373 30.5108L163.463 29.5671L143.832 131.698L148.743 132.641L168.373 30.5108Z" fill="#1A2C3B"/>
<path d="M135.96 130.2L132.75 146.89L134 156.3L143.82 158.19L148.47 149.91L151.68 133.22L135.96 130.2Z" fill="#C5CED6"/>
<path opacity="0.2" d="M145.78 132.09L142.57 148.78L137.93 157.05L143.82 158.19L148.47 149.91L151.68 133.22L145.78 132.09Z" fill="#1A2C3B"/>
<path d="M171.16 76.89L170.78 76.81C170.083 76.688 169.449 76.3287 168.986 75.7929C168.523 75.2571 168.259 74.5778 168.24 73.87C168.237 73.2327 168.437 72.611 168.811 72.095C169.185 71.579 169.713 71.1954 170.32 71C171.45 70.6775 172.452 70.014 173.19 69.1L174.53 67.36L182 28.49C183.84 18.91 178 9.31001 168.44 7.13001C166.083 6.58801 163.642 6.52642 161.261 6.94893C158.88 7.37144 156.608 8.26937 154.582 9.58913C152.556 10.9089 150.816 12.6234 149.467 14.6303C148.118 16.6372 147.187 18.8954 146.73 21.27L139.42 59.27C139.261 60.1325 139.289 61.0189 139.5 61.87L139.63 62.35C139.997 63.628 140.747 64.7625 141.78 65.6C142.095 65.8756 142.347 66.2155 142.519 66.5967C142.692 66.9779 142.781 67.3916 142.78 67.81C142.788 68.2569 142.696 68.6999 142.511 69.1068C142.326 69.5136 142.053 69.874 141.711 70.1615C141.368 70.449 140.966 70.6565 140.534 70.7687C140.101 70.8809 139.649 70.895 139.21 70.81L138.91 70.75C138.009 70.5602 137.07 70.7187 136.281 71.1937C135.493 71.6688 134.913 72.4249 134.66 73.31C134.547 73.7715 134.529 74.2512 134.607 74.7199C134.685 75.1887 134.857 75.6367 135.113 76.0369C135.369 76.4371 135.704 76.7811 136.097 77.048C136.49 77.315 136.934 77.4994 137.4 77.59L169.61 83.78C170.51 83.9752 171.45 83.8201 172.24 83.3464C173.029 82.8727 173.609 82.1159 173.86 81.23C173.984 80.7672 174.012 80.2838 173.942 79.8098C173.871 79.3358 173.704 78.8813 173.451 78.4744C173.198 78.0675 172.864 77.7169 172.47 77.4444C172.076 77.1719 171.63 76.9832 171.16 76.89Z" fill="#00AB44"/>
<path d="M168.528 24.4288C168.945 22.2594 167.524 20.1627 165.355 19.7457C163.185 19.3288 161.088 20.7494 160.672 22.9188L154.065 57.2897C153.648 59.4591 155.069 61.5558 157.238 61.9728C159.408 62.3898 161.504 60.9691 161.921 58.7997L168.528 24.4288Z" fill="#2BB964"/>
<path d="M165.35 19.76L157.23 62C157.746 62.0986 158.277 62.0946 158.791 61.9881C159.306 61.8817 159.794 61.6749 160.229 61.3796C160.663 61.0843 161.036 60.7062 161.324 60.2671C161.613 59.8279 161.812 59.3362 161.91 58.82L168.52 24.45C168.62 23.9339 168.618 23.4031 168.513 22.8879C168.407 22.3728 168.202 21.8834 167.907 21.4478C167.613 21.0122 167.235 20.639 166.797 20.3493C166.358 20.0597 165.866 19.8595 165.35 19.76Z" fill="#159C4B"/>
<path d="M179.331 26.51C179.748 24.3405 178.327 22.2438 176.158 21.8268C173.988 21.4099 171.892 22.8305 171.475 24.9999L164.868 59.3708C164.451 61.5402 165.872 63.6369 168.042 64.0539C170.211 64.4709 172.308 63.0503 172.725 60.8808L179.331 26.51Z" fill="#2BB964"/>
<path d="M176.15 21.84L168 64.06C169.041 64.2594 170.118 64.0376 170.996 63.4432C171.873 62.8489 172.479 61.9306 172.68 60.89L179.29 26.52C179.49 25.4835 179.272 24.4098 178.684 23.5331C178.096 22.6565 177.185 22.0479 176.15 21.84Z" fill="#159C4B"/>
<path d="M157.723 22.3576C158.14 20.1881 156.719 18.0914 154.549 17.6744C152.38 17.2575 150.283 18.6781 149.866 20.8475L143.26 55.2184C142.843 57.3878 144.264 59.4845 146.433 59.9015C148.603 60.3185 150.699 58.8978 151.116 56.7284L157.723 22.3576Z" fill="#2BB964"/>
<path d="M154.55 17.68L146.43 59.91C147.471 60.1094 148.548 59.8876 149.426 59.2932C150.303 58.6989 150.909 57.7806 151.11 56.74L157.72 22.37C157.82 21.8539 157.818 21.3231 157.713 20.8079C157.607 20.2928 157.402 19.8034 157.107 19.3678C156.813 18.9322 156.435 18.5589 155.997 18.2693C155.558 17.9797 155.066 17.7795 154.55 17.68Z" fill="#159C4B"/>
<path opacity="0.1" d="M170.79 65.61L143.29 60.32C142.249 60.119 141.331 59.5133 140.737 58.6358C140.142 57.7584 139.921 56.6809 140.12 55.64L139.42 59.24C139.261 60.1025 139.289 60.9889 139.5 61.84L139.63 62.32C139.997 63.598 140.747 64.7325 141.78 65.57C142.095 65.8456 142.347 66.1855 142.519 66.5667C142.692 66.9479 142.781 67.3616 142.78 67.78C142.777 67.9786 142.754 68.1763 142.71 68.37L168.26 73.28C168.359 72.7547 168.597 72.2655 168.948 71.8629C169.3 71.4603 169.753 71.1589 170.26 70.99C171.39 70.6676 172.392 70.004 173.13 69.09L174.47 67.35L175.41 62.44C175.209 63.4682 174.612 64.3763 173.748 64.969C172.884 65.5618 171.822 65.792 170.79 65.61Z" fill="#1A2C3B"/>
<path opacity="0.1" d="M174 79.9C173.731 80.3195 173.342 80.6486 172.884 80.8447C172.426 81.0408 171.919 81.0949 171.43 81L137 74.39C136.504 74.2976 136.047 74.057 135.69 73.7C135.333 73.3431 135.092 72.8863 135 72.39C134.85 72.6503 134.736 72.9294 134.66 73.22C134.547 73.6816 134.529 74.1612 134.607 74.63C134.685 75.0987 134.857 75.5467 135.113 75.9469C135.369 76.3471 135.704 76.6911 136.097 76.9581C136.49 77.225 136.934 77.4094 137.4 77.5L169.61 83.69C170.51 83.8852 171.45 83.7301 172.24 83.2564C173.029 82.7827 173.609 82.0259 173.86 81.14C173.987 80.7398 174.035 80.3185 174 79.9Z" fill="#1A2C3B"/>
<path opacity="0.2" d="M171.16 76.89L170.78 76.81C170.083 76.688 169.449 76.3287 168.986 75.7929C168.523 75.2571 168.259 74.5778 168.24 73.87C168.237 73.2327 168.437 72.611 168.811 72.095C169.185 71.579 169.713 71.1954 170.32 71C171.45 70.6776 172.452 70.014 173.19 69.1L174.53 67.36L182 28.49C183.84 18.91 178 9.31002 168.44 7.13002C168.23 7.13002 168.01 7.06002 167.8 7.02002L153.64 80.64L169.64 83.72C170.54 83.9152 171.48 83.7602 172.27 83.2864C173.059 82.8127 173.639 82.0559 173.89 81.17C174.005 80.7091 174.024 80.2297 173.947 79.761C173.871 79.2923 173.7 78.8442 173.444 78.4438C173.189 78.0434 172.855 77.6991 172.462 77.432C172.069 77.1649 171.626 76.9805 171.16 76.89Z" fill="#1A2C3B"/>
<path d="M127.838 26.992L117.907 25.8201L105.719 129.103L115.65 130.275L127.838 26.992Z" fill="#C5CED6"/>
<path opacity="0.1" d="M127.834 26.9876L122.869 26.4017L110.681 129.685L115.646 130.271L127.834 26.9876Z" fill="#1A2C3B"/>
<path d="M114.93 25.47L116.92 8.59L120.95 0L130.88 1.17L132.81 10.46L130.82 27.34L114.93 25.47Z" fill="#C5CED6"/>
<path opacity="0.2" d="M124.86 26.64L126.85 9.75997L124.93 0.469971L130.88 1.16997L132.81 10.46L130.82 27.34L124.86 26.64Z" fill="#1A2C3B"/>
<path d="M132.34 86.93H131.96C131.261 86.8327 130.55 86.9783 129.946 87.3423C129.342 87.7064 128.881 88.2668 128.64 88.93C128.44 89.5381 128.44 90.1942 128.64 90.8023C128.84 91.4104 129.229 91.9387 129.75 92.31C130.732 92.9629 131.49 93.902 131.92 95L132.66 97.06L128 136.34C126.86 146.03 118.35 153.4 108.62 152.6C106.214 152.404 103.871 151.726 101.732 150.606C99.5935 149.486 97.7018 147.947 96.1698 146.081C94.6378 144.215 93.4969 142.06 92.8149 139.744C92.1329 137.428 91.9238 134.998 92.2 132.6L96.73 94.19C96.8344 93.3204 97.1279 92.4841 97.59 91.74L97.86 91.32C98.5884 90.2203 99.635 89.369 100.86 88.88C101.265 88.7109 101.628 88.4549 101.924 88.13C102.219 87.8052 102.44 87.4194 102.57 87C102.71 86.5773 102.753 86.1289 102.698 85.6873C102.643 85.2456 102.49 84.8218 102.251 84.4465C102.011 84.0712 101.691 83.7539 101.314 83.5176C100.937 83.2812 100.512 83.1318 100.07 83.08H99.77C98.8525 82.9939 98.0023 82.5612 97.3929 81.8699C96.7834 81.1787 96.4605 80.2811 96.49 79.36C96.5194 78.8852 96.6453 78.4214 96.86 77.9968C97.0746 77.5723 97.3736 77.196 97.7386 76.8909C98.1036 76.5858 98.527 76.3583 98.9828 76.2223C99.4387 76.0864 99.9175 76.0447 100.39 76.1L133 80C133.916 80.0907 134.763 80.5248 135.372 81.215C135.98 81.9051 136.305 82.8002 136.28 83.72C136.245 84.1943 136.113 84.6563 135.893 85.078C135.673 85.4997 135.369 85.8721 135 86.1725C134.632 86.4729 134.206 86.695 133.748 86.8252C133.291 86.9555 132.812 86.9911 132.34 86.93Z" fill="#00AB44"/>
<path d="M118.051 101.353C118.31 99.1593 116.741 97.171 114.548 96.9121C112.354 96.6532 110.365 98.2218 110.106 100.416L106.005 135.175C105.746 137.368 107.314 139.357 109.508 139.616C111.702 139.875 113.691 138.306 113.95 136.112L118.051 101.353Z" fill="#2BB964"/>
<path d="M109.51 139.62L114.51 96.92C115.563 97.0452 116.523 97.5832 117.179 98.4157C117.835 99.2482 118.134 100.307 118.01 101.36L114 136.12C113.938 136.646 113.773 137.154 113.513 137.616C113.253 138.077 112.904 138.483 112.486 138.808C112.069 139.134 111.591 139.373 111.08 139.513C110.569 139.652 110.035 139.688 109.51 139.62Z" fill="#159C4B"/>
<path d="M128.975 102.644C129.234 100.45 127.665 98.4618 125.471 98.2029C123.277 97.944 121.289 99.5127 121.03 101.707L116.928 136.465C116.669 138.659 118.238 140.648 120.432 140.907C122.626 141.165 124.614 139.597 124.873 137.403L128.975 102.644Z" fill="#2BB964"/>
<path d="M120.43 140.91L125.43 98.21C125.952 98.2708 126.457 98.4339 126.916 98.69C127.375 98.9461 127.779 99.2902 128.105 99.7025C128.431 100.115 128.673 100.587 128.816 101.093C128.959 101.599 129.001 102.128 128.94 102.65L124.84 137.41C124.715 138.457 124.181 139.412 123.355 140.067C122.529 140.723 121.478 141.026 120.43 140.91Z" fill="#159C4B"/>
<path d="M107.138 100.072C107.396 97.8785 105.828 95.8901 103.634 95.6312C101.44 95.3723 99.4516 96.941 99.1927 99.1349L95.091 133.894C94.8322 136.088 96.4008 138.076 98.5947 138.335C100.789 138.594 102.777 137.025 103.036 134.831L107.138 100.072Z" fill="#2BB964"/>
<path d="M98.59 138.33L103.59 95.63C104.643 95.7552 105.603 96.2932 106.259 97.1257C106.915 97.9582 107.214 99.0172 107.09 100.07L103 134.83C102.875 135.877 102.341 136.832 101.515 137.487C100.689 138.143 99.638 138.446 98.59 138.33Z" fill="#159C4B"/>
<path opacity="0.1" d="M128.57 97.57L100.76 94.28C100.238 94.2187 99.7089 94.2608 99.2032 94.4041C98.6974 94.5473 98.2249 94.7888 97.8125 95.1148C97.4002 95.4408 97.0561 95.8448 96.8 96.3039C96.5439 96.7629 96.3808 97.2679 96.32 97.79L96.75 94.14C96.8544 93.2704 97.1479 92.4341 97.61 91.69L97.88 91.27C98.6084 90.1703 99.655 89.3191 100.88 88.83C101.276 88.6639 101.632 88.4145 101.924 88.0987C102.215 87.783 102.436 87.4083 102.57 87C102.626 86.8074 102.663 86.6098 102.68 86.41L128.52 89.41C128.455 89.9442 128.535 90.4859 128.751 90.9785C128.968 91.4712 129.313 91.8965 129.75 92.21C130.748 92.8891 131.508 93.8653 131.92 95L132.66 97.06L132.07 102.06C132.138 101.535 132.102 101.001 131.963 100.49C131.823 99.9795 131.584 99.5013 131.258 99.0836C130.933 98.6659 130.527 98.317 130.066 98.0572C129.604 97.7974 129.096 97.6318 128.57 97.57Z" fill="#1A2C3B"/>
<path opacity="0.1" d="M136.25 83.68C136.265 82.7717 135.94 81.8905 135.339 81.2096C134.737 80.5286 133.903 80.0972 133 80L100.42 76.15C99.9475 76.0947 99.4687 76.1363 99.0128 76.2723C98.557 76.4083 98.1336 76.6358 97.7686 76.9409C97.4036 77.246 97.1046 77.6223 96.89 78.0468C96.6753 78.4714 96.5494 78.9352 96.52 79.41C96.5027 79.7052 96.5262 80.0013 96.59 80.29C96.8265 79.8558 97.1865 79.5015 97.6244 79.2719C98.0622 79.0423 98.5584 78.9477 99.05 79L133.8 83.1C134.296 83.1585 134.762 83.3641 135.14 83.6903C135.518 84.0164 135.79 84.4482 135.92 84.93C136.11 84.5387 136.222 84.1141 136.25 83.68Z" fill="#1A2C3B"/>
<path opacity="0.2" d="M132.34 86.93H131.96C131.261 86.8327 130.55 86.9783 129.946 87.3423C129.342 87.7063 128.881 88.2668 128.64 88.93C128.44 89.5381 128.44 90.1942 128.64 90.8023C128.84 91.4104 129.229 91.9387 129.75 92.31C130.732 92.9629 131.49 93.902 131.92 95L132.66 97.06L128 136.34C126.86 146.03 118.35 153.4 108.62 152.6C108.4 152.6 108.19 152.54 107.97 152.51L116.76 78.05L133 80C133.916 80.0907 134.763 80.5248 135.372 81.2149C135.98 81.9051 136.305 82.8002 136.28 83.72C136.245 84.1943 136.113 84.6563 135.893 85.078C135.673 85.4996 135.369 85.872 135 86.1724C134.632 86.4728 134.206 86.695 133.748 86.8252C133.291 86.9554 132.812 86.9911 132.34 86.93Z" fill="#1A2C3B"/>
<path d="M95 1.29999H75V120.3H95V1.29999Z" fill="#DBD1AF"/>
<path opacity="0.1" d="M95 1.29999H85V120.3H95V1.29999Z" fill="#1A2C3B"/>
<path d="M53.59 1.29999H47.41C46.079 1.29999 45 2.37898 45 3.70999V27.89C45 29.221 46.079 30.3 47.41 30.3H53.59C54.921 30.3 56 29.221 56 27.89V3.70999C56 2.37898 54.921 1.29999 53.59 1.29999Z" fill="#5E6D7A"/>
<path opacity="0.2" d="M53.59 22.3H47.41C46.7708 22.3 46.1578 22.0461 45.7059 21.5941C45.2539 21.1422 45 20.5292 45 19.89V27.89C45 28.5292 45.2539 29.1422 45.7059 29.5941C46.1578 30.0461 46.7708 30.3 47.41 30.3H53.59C54.2292 30.3 54.8422 30.0461 55.2941 29.5941C55.7461 29.1422 56 28.5292 56 27.89V19.89C56 20.5292 55.7461 21.1422 55.2941 21.5941C54.8422 22.0461 54.2292 22.3 53.59 22.3Z" fill="#1A2C3B"/>
<path d="M67 6.29999H56V25.3H67V6.29999Z" fill="#5E6D7A"/>
<path opacity="0.2" d="M59 6.29999V20.3H56V25.3H67V6.29999H59Z" fill="#1A2C3B"/>
<path d="M96.43 1.29999H65.93C65.1546 1.29998 64.4109 1.60731 63.8617 2.15463C63.3125 2.70195 63.0026 3.44464 63 4.21999V27.37C63 28.1471 63.3087 28.8923 63.8582 29.4418C64.4077 29.9913 65.1529 30.3 65.93 30.3H122.55C123.2 30.3 123.823 30.0419 124.282 29.5824C124.742 29.1229 125 28.4998 125 27.85V19.85C125.004 18.9148 124.659 18.0117 124.032 17.3179C123.405 16.6241 122.541 16.1898 121.61 16.1C110.64 15.15 99.67 9.44999 96.43 1.29999Z" fill="#5E6D7A"/>
<path opacity="0.2" d="M122.55 23.3H65.93C65.1529 23.3 64.4077 22.9913 63.8582 22.4418C63.3087 21.8923 63 21.1471 63 20.37V27.37C63 28.1471 63.3087 28.8923 63.8582 29.4418C64.4077 29.9913 65.1529 30.3 65.93 30.3H122.55C123.2 30.3 123.823 30.0419 124.282 29.5824C124.742 29.1229 125 28.4998 125 27.85V20.85C125 21.4998 124.742 22.1229 124.282 22.5824C123.823 23.0419 123.2 23.3 122.55 23.3Z" fill="#1A2C3B"/>
<path d="M201 86.3H0V161.3H201V86.3Z" fill="#5E6D7A"/>
<path opacity="0.1" d="M183 37.3H180.3L182 28.49C182.547 25.6621 182.432 22.7458 181.664 19.9699C180.895 17.1939 179.494 14.6337 177.57 12.49L177.4 12.28C176.482 11.2973 175.455 10.4217 174.34 9.67C173.773 9.3026 173.186 8.9687 172.58 8.67C172.015 8.37776 171.434 8.11736 170.84 7.89C170.06 7.57696 169.258 7.32292 168.44 7.13C166.084 6.59113 163.644 6.53222 161.264 6.9568C158.885 7.38138 156.616 8.28074 154.592 9.60126C152.567 10.9218 150.83 12.6364 149.483 14.6429C148.135 16.6494 147.206 18.9066 146.75 21.28L143.67 37.28H126.67L127.84 27L130.84 27.35L132.84 10.47L130.91 1.18L124.96 0.48L121 0L117 8.59L116.21 15.24C110.582 14.0545 105.347 11.4563 101 7.69V30.3H117.38L116.55 37.3H101V53.3H114.66L111.81 77.46L101 76.19V83.41C101.539 83.6677 101.989 84.0805 102.291 84.5953C102.594 85.1102 102.737 85.7038 102.7 86.3H101V161.3H201V86.3L183 37.3ZM147.46 86.3H134.77L134.96 86.17C135.523 85.6979 135.926 85.0616 136.11 84.35C136.163 84.1364 136.2 83.9191 136.22 83.7C136.24 83.4805 136.24 83.2595 136.22 83.04C136.084 82.2531 135.697 81.5314 135.117 80.9833C134.536 80.4351 133.793 80.0901 133 80L122.86 78.8L121.77 78.67L124.77 53.34H140.61L139.46 59.28C139.419 59.5048 139.392 59.7319 139.38 59.96C139.327 60.6044 139.381 61.2532 139.54 61.88L139.67 62.36C139.934 63.3179 140.429 64.1967 141.11 64.92C141.334 65.1625 141.571 65.3928 141.82 65.61C142.253 65.9866 142.569 66.4794 142.73 67.03C142.814 67.2849 142.858 67.5515 142.86 67.82C142.857 68.0186 142.834 68.2163 142.79 68.41C142.64 69.1888 142.187 69.8764 141.531 70.3224C140.875 70.7685 140.07 70.9366 139.29 70.79L138.99 70.73C138.232 70.5596 137.439 70.631 136.724 70.9341C136.008 71.2372 135.405 71.7568 135 72.42C134.941 72.5201 134.887 72.6237 134.84 72.73C134.764 72.8938 134.703 73.0646 134.66 73.24C134.503 73.8773 134.53 74.546 134.737 75.1689C134.944 75.7917 135.323 76.3433 135.83 76.76C136.09 76.9867 136.384 77.1721 136.7 77.31C136.926 77.4023 137.16 77.4726 137.4 77.52L148.69 79.69L147.46 86.3ZM157.64 86.3L158.55 81.59L169.65 83.72C170.433 83.8787 171.245 83.7793 171.967 83.4367C172.688 83.0941 173.279 82.5268 173.65 81.82C173.752 81.6122 173.833 81.3944 173.89 81.17C173.939 80.9564 173.969 80.7389 173.98 80.52C173.98 80.52 173.98 80.46 173.98 80.44C173.987 79.9779 173.902 79.5191 173.73 79.09C173.558 78.6609 173.303 78.2701 172.98 77.94L172.9 77.87C172.589 77.564 172.222 77.3197 171.82 77.15C171.596 77.0532 171.361 76.9827 171.12 76.94L170.74 76.86C170.563 76.8287 170.389 76.7818 170.22 76.72C170.054 76.6557 169.894 76.5788 169.74 76.49C169.445 76.3193 169.178 76.1033 168.95 75.85C168.49 75.338 168.227 74.6784 168.21 73.99C168.21 73.7918 168.23 73.5941 168.27 73.4C168.37 72.8816 168.604 72.3987 168.95 72L169.01 71.93C169.171 71.7589 169.353 71.6078 169.55 71.48L169.64 71.42C169.843 71.2909 170.062 71.1869 170.29 71.11C170.635 70.9949 170.969 70.8511 171.29 70.68C171.879 70.3913 172.411 69.9983 172.86 69.52C172.95 69.41 173.06 69.32 173.14 69.21L174.48 67.47L175.32 63.06L184 86.3H157.64Z" fill="black"/>
</g>
<defs>
<clipPath id="clip0">
<path d="M0 0H201V161.3H0V0Z" fill="white"/>
</clipPath>
</defs>
</svg>
