<svg xmlns="http://www.w3.org/2000/svg" xmlns:xlink="http://www.w3.org/1999/xlink" width="64" height="64"><defs/><defs><clipPath id="a"><path d="M76 2v46H54v23H36l-1 2c-1 13 1 24 6 34l2 3 4 5 2 4c13 15 33 22 56 22 51 0 94-22 113-73 13 2 26-2 32-13-9-6-21-4-28-1l18-52-72 46h-23V2z"/></clipPath></defs><path fill="#394d54" d="M37 25h6v6h3a13 13 0 006-2l-2-4c0-1 0-4 2-5v-1l1 1c2 1 3 3 4 6h6l1 1v1c-2 3-5 4-9 3-5 13-15 19-29 19-6 0-13-3-16-9l-1-1-1-8v-1h5v-6h6v-6h11v-6h7v12"/><g clip-path="url(#a)" transform="matrix(.2513 0 0 .2513 0 13)"><g id="d"><g id="c" transform="translate(0 -23)"><path fill="#00acd3" d="M124 4h20v20h-20z"/><path fill="#20c2ef" d="M124 27h20v19h-20z"/><path id="b" stroke="#394d54" stroke-width="1.6" d="M126 22V5m3 17V5m3 17V5m3 17V5m3 17V5m3 17V5"/><use width="100%" height="100%" transform="translate(0 23)" xlink:href="#b"/></g><use width="100%" height="100%" transform="matrix(1 0 0 -1 23 5)" xlink:href="#c"/></g><use width="100%" height="100%" transform="translate(-91 46)" xlink:href="#d"/><use width="100%" height="100%" transform="translate(-46 46)" xlink:href="#d"/><use width="100%" height="100%" transform="translate(0 46)" xlink:href="#d"/></g><path fill="#17b5eb" d="M222 54c1-12-8-21-13-25-7 7-8 26 2 34-5 5-17 10-29 10H34v73h217l-1-91c-9-6-21-4-28-1" clip-path="url(#a)" transform="matrix(.2513 0 0 .2513 0 13)"/><path fill-opacity=".2" d="M34 89v57h217V89" clip-path="url(#a)" transform="matrix(.2513 0 0 .2513 0 13)"/><path fill="#d4edf1" d="M111 141c-13-7-21-15-25-25l-41 2 21 28 45-5" clip-path="url(#a)" transform="matrix(.2513 0 0 .2513 0 13)"/><path fill-opacity=".1" d="M223 54c-21 27-51 50-83 63-29 11-54 11-71 2l-6-3c-12-9-20-24-19-43H34v73h217V50h-25z" clip-path="url(#a)" transform="matrix(.2513 0 0 .2513 0 13)"/><path fill="none" stroke="#394d54" stroke-linecap="round" stroke-width=".9" d="M11 43l11-1"/><path fill="#d4edf1" d="M26 40a1 1 0 11-3 0 1 1 0 013 0z"/><path fill="#394d54" d="M25 39v1a1 1 0 110-1zM0 36h64c-1 0-4-1-4-3-3 3-9 2-10 1-2 2-12 2-13 0-2 2-8 2-11 0 0 2-10 2-12 0-1 1-8 2-10-1 0 2-3 3-4 3"/></svg>