<?xml version="1.0" encoding="UTF-8" standalone="no"?>
<svg
   xmlns:dc="http://purl.org/dc/elements/1.1/"
   xmlns:cc="http://creativecommons.org/ns#"
   xmlns:rdf="http://www.w3.org/1999/02/22-rdf-syntax-ns#"
   xmlns:svg="http://www.w3.org/2000/svg"
   xmlns="http://www.w3.org/2000/svg"
   xmlns:xlink="http://www.w3.org/1999/xlink"
   version="1.1"
   width="64"
   height="64"
   id="svg2">
  <metadata
     id="metadata4">
    <rdf:RDF>
      <cc:Work
         rdf:about="">
        <dc:format>image/svg+xml</dc:format>
        <dc:type
           rdf:resource="http://purl.org/dc/dcmitype/StillImage" />
        <dc:title></dc:title>
      </cc:Work>
    </rdf:RDF>
  </metadata>
  <defs
     id="defs6">
    <clipPath
       id="clipPath8">
      <path
         d="M 76,2 V 48 H 54 V 71 H 35.580737 c -0.07818,0.665694 -0.141485,1.332869 -0.205737,2 -1.151162,12.530963 1.036422,24.087546 6.0625,33.96875 L 43.125,110 c 1.011403,1.81678 2.191241,3.52297 3.4375,5.1875 1.244725,1.66248 1.685716,2.58262 2.46875,3.6875 C 62.319911,133.81083 82.129473,141 105,141 155.64836,141 198.63299,118.56201 217.65625,68.15625 231.15302,69.54122 244.09968,66.080358 250,54.5625 240.60137,49.138835 228.52163,50.877226 221.5625,54.375 L 240,2 168,48 H 145 V 2 Z"
         id="path10" />
    </clipPath>
  </defs>
  <path
     d="m 37.062653,24.85062 h 5.746074 v 5.873913 h 2.905395 c 1.341669,0 2.721691,-0.239022 3.992298,-0.669556 0.624332,-0.211699 1.325111,-0.506302 1.940968,-0.876813 -0.811138,-1.059039 -1.225252,-2.396267 -1.347184,-3.714381 -0.165538,-1.792792 0.196087,-4.126343 1.409494,-5.529514 l 0.604014,-0.698625 0.719755,0.578577 c 1.812171,1.455929 3.336201,3.490299 3.604827,5.809448 2.18201,-0.641831 4.743813,-0.490023 6.667152,0.620028 l 0.789066,0.455299 -0.415327,0.810596 c -1.626594,3.174681 -5.027126,4.158085 -8.351752,3.98407 C 50.352543,43.884531 39.521634,49.75077 26.38921,49.75077 19.604568,49.75077 13.379794,47.214538 9.8351229,41.195004 9.6272995,40.821084 9.4493298,40.430092 9.2605852,40.046061 8.0623844,37.396374 7.6644199,34.49367 7.9343955,31.593387 l 0.081019,-0.868738 h 4.9135235 v -5.873914 h 5.746073 v -5.746073 h 11.492146 v -5.746073 h 6.895405 v 11.492146"
     id="path14"
     style="fill:#394d54;stroke-width:0.251293" />
  <g
     clip-path="url(#clipPath8)"
     id="g16"
     transform="matrix(0.25129334,0,0,0.25129334,3.5113053e-6,13.358472)">
    <g
       id="g18">
      <g
         transform="translate(0,-22.866)"
         id="g20">
        <path
           d="m 123.85901,3.8110794 h 19.81751 V 23.62805 h -19.81751 z"
           id="path22"
           style="fill:#00acd3" />
        <path
           d="m 123.85901,26.676485 h 19.81751 v 19.818043 h -19.81751 z"
           id="path24"
           style="fill:#20c2ef" />
        <path
           d="M 126.29235,21.976904 V 5.4611548 M 129.2642,21.976904 V 5.4611548 m 3.00184,16.5157492 V 5.4611548 m 3.00344,16.5157492 V 5.4611548 M 138.2724,21.976904 V 5.4611548 m 2.97131,16.5157492 V 5.4611548"
           id="path26"
           style="stroke:#394d54;stroke-width:1.56" />
        <use
           transform="translate(0,22.866)"
           id="use28"
           xlink:href="#path26"
           x="0"
           y="0"
           width="100%"
           height="100%" />
      </g>
      <use
         transform="matrix(1,0,0,-1,22.866,4.572651)"
         id="use30"
         xlink:href="#g20"
         x="0"
         y="0"
         width="100%"
         height="100%" />
    </g>
    <use
       transform="translate(-91.464,45.732)"
       id="use32"
       xlink:href="#g18"
       x="0"
       y="0"
       width="100%"
       height="100%" />
    <use
       transform="translate(-45.732,45.732)"
       id="use34"
       xlink:href="#g18"
       x="0"
       y="0"
       width="100%"
       height="100%" />
    <use
       transform="translate(0,45.732)"
       id="use36"
       xlink:href="#g18"
       x="0"
       y="0"
       width="100%"
       height="100%" />
  </g>
  <path
     d="m 221.57014,54.379649 c 1.53332,-11.915247 -7.38383,-21.274779 -12.91407,-25.71836 -6.37269,7.367765 -7.36295,26.677556 2.63498,34.807431 -5.57952,4.956117 -17.33731,9.448435 -29.37574,9.448435 L 34,72.917155 C 32.829255,85.484184 34,146 34,146 h 217 l -0.98657,-91.424 c -9.39863,-5.423665 -21.48419,-3.694326 -28.44332,-0.196552"
     clip-path="url(#clipPath8)"
     id="path38"
     style="fill:#17b5eb"
     transform="matrix(0.25129334,0,0,0.25129334,3.5113053e-6,13.358472)" />
  <path
     d="m 34,89 v 57 H 251 V 89"
     clip-path="url(#clipPath8)"
     id="path40"
     style="fill-opacity:0.17"
     transform="matrix(0.25129334,0,0,0.25129334,3.5113053e-6,13.358472)" />
  <path
     d="M 111.23736,140.88997 C 97.697741,134.4648 90.265707,125.73081 86.130611,116.19562 L 45,118 l 21,28 45.23736,-5.11003"
     clip-path="url(#clipPath8)"
     id="path42"
     style="fill:#d4edf1"
     transform="matrix(0.25129334,0,0,0.25129334,3.5113053e-6,13.358472)" />
  <path
     d="m 222.5,53.9375 v 0.03125 c -20.86119,26.889144 -50.78312,50.37872 -82.90625,62.71875 -28.65478,11.00767 -53.638381,11.06039 -70.875,2.21875 -1.85607,-1.04832 -3.675701,-2.21152 -5.5,-3.3125 C 50.582097,106.76175 43.464274,92.152308 44.0625,72.90625 H 34 V 146 H 251 V 50 h -25 z"
     clip-path="url(#clipPath8)"
     id="path44"
     style="fill-opacity:0.085"
     transform="matrix(0.25129334,0,0,0.25129334,3.5113053e-6,13.358472)" />
  <path
     d="m 11.465261,42.767643 c 3.559608,0.194832 7.358485,0.229768 10.672114,-0.808851"
     id="path46"
     style="fill:none;stroke:#394d54;stroke-width:0.854398;stroke-linecap:round" />
  <path
     d="m 25.674703,40.236619 c 0,0.758649 -0.615048,1.373697 -1.373697,1.373697 -0.758783,0 -1.373966,-0.615048 -1.373966,-1.373697 0,-0.758645 0.615183,-1.373967 1.373966,-1.373967 0.758649,0 1.373697,0.615322 1.373697,1.373967 z"
     id="path48"
     style="fill:#d4edf1;stroke-width:0.251293" />
  <path
     d="m 24.65725,39.319026 c -0.119914,0.06932 -0.201069,0.199186 -0.201069,0.347766 0,0.221793 0.179805,0.401329 0.401599,0.401329 0.151945,0 0.283972,-0.08438 0.352206,-0.209009 0.04818,0.116147 0.07496,0.243732 0.07496,0.377507 0,0.543316 -0.440493,0.983809 -0.983943,0.983809 -0.543314,0 -0.984077,-0.440493 -0.984077,-0.983809 0,-0.543582 0.440763,-0.984207 0.984077,-0.984207 0.125701,0 0.245615,0.02369 0.356243,0.06662 z"
     id="path50"
     style="fill:#394d54;stroke-width:0.251293" />
  <path
     d="M 3.5113053e-6,36.015668 H 63.910789 c -1.391598,-0.353015 -4.40291,-0.829844 -3.906297,-2.65359 -2.53031,2.928006 -8.632615,2.054152 -10.172655,0.610336 -1.715004,2.487379 -11.698837,1.541928 -12.395176,-0.39581 -2.149978,2.523178 -8.812148,2.523178 -10.96226,0 -0.696608,1.937738 -10.680307,2.883189 -12.395443,0.39581 -1.540045,1.443816 -7.6418084,2.31767 -10.1723888,-0.610336 0.4966144,1.823746 -2.5147004,2.300575 -3.9065656886947,2.65359"
     id="path52"
     style="fill:#394d54;stroke-width:0.251293" />
</svg>
