<svg width="24" height="24" viewBox="0 0 24 24" fill="none" xmlns="http://www.w3.org/2000/svg">
<path d="M14.0001 8H12.0001V10H14.0001V8ZM14.0001 5H12.0001V7H14.0001V5ZM11.0001 5H9.00012V7H11.0001V5ZM11.0001 8H9.00012V10H11.0001V8ZM19.0601 11.22C18.9101 11.2 19.2501 8.93 17.2901 9C17.2901 9 16.3301 10.24 16.7001 11.22C17.0001 12 15.0001 12 15.0001 12H3.50012C2.24012 12 1.57012 13.66 2.26012 14.65C3.62012 16.58 5.52012 19 9.05012 19C10.2301 19 9.83012 19 10.2301 19C11.8101 19 13.1301 18.62 14.1801 18.12C15.7701 17.36 16.9301 16.02 17.6801 14.49C17.9701 13.89 18.4701 13.28 19.2601 13.22C20.8301 13.1 22.0101 12.48 22.0001 11.22C22.0001 11.22 20.4101 10.64 19.0601 11.22ZM8.00012 8H6.00012V10H8.00012V8Z" fill="white"/>
</svg>
