<svg width="16" height="15" viewBox="0 0 16 15" fill="none" xmlns="http://www.w3.org/2000/svg">
<path d="M13.8177 3.26512C13.7257 2.98659 13.5303 2.75593 13.2733 2.62266L8.0818 0.0871667C7.94833 0.0255447 7.8027 -0.00384818 7.65626 0.00127614C7.51499 -0.00408263 7.37359 0.00744804 7.23494 0.0356324L2.03921 2.58658C1.91143 2.64631 1.79889 2.73528 1.71032 2.84655C1.62176 2.95783 1.55956 3.08842 1.52857 3.22818L0.251966 8.93389C0.226663 9.07845 0.230187 9.22672 0.262326 9.36987C0.294466 9.51301 0.354563 9.64808 0.439032 9.76703L4.027 14.2978C4.23678 14.5107 4.51453 14.6399 4.80982 14.6619H10.5297C10.6802 14.6781 10.8322 14.6528 10.9698 14.5887C11.1075 14.5247 11.2258 14.4242 11.3125 14.2978L14.9038 9.76961C15.0717 9.52768 15.1448 9.2305 15.1086 8.93647L13.8177 3.26512Z" fill="#326CE5"/>
<path d="M12.8789 8.92299C12.8625 8.92299 12.8461 8.92299 12.8461 8.90478C12.8461 8.88656 12.8125 8.88743 12.7797 8.88743C12.7142 8.87307 12.6473 8.86725 12.5805 8.87009C12.5466 8.87275 12.5126 8.86681 12.4813 8.85274H12.4649C12.2747 8.83464 12.0863 8.79954 11.9017 8.74779C11.8756 8.73722 11.8519 8.72105 11.832 8.7003C11.8121 8.67956 11.7965 8.65468 11.7861 8.62723L11.6533 8.59254C11.7144 8.07826 11.6919 7.55672 11.5869 7.05044C11.4705 6.54093 11.2746 6.05551 11.0073 5.61415L11.1074 5.50487V5.48665C11.106 5.42987 11.1234 5.37437 11.1565 5.32967C11.3003 5.19847 11.4557 5.08228 11.6205 4.98274L11.7197 4.92983C11.7861 4.89514 11.8353 4.85958 11.9017 4.82489C11.9181 4.80754 11.9353 4.80754 11.9517 4.78933C11.9681 4.77111 11.9517 4.77198 11.9517 4.75463C11.9869 4.72733 12.0166 4.69286 12.0391 4.65325C12.0615 4.61364 12.0763 4.56968 12.0825 4.52395C12.0887 4.47823 12.0862 4.43166 12.0751 4.38697C12.0641 4.34229 12.0447 4.30039 12.0181 4.26373C11.9898 4.22717 11.9545 4.19738 11.9145 4.1763C11.8745 4.15522 11.8308 4.14334 11.7861 4.14144C11.702 4.14343 11.6207 4.17382 11.5541 4.22817L11.5377 4.24551C11.5213 4.26286 11.5041 4.28021 11.4877 4.28021C11.4394 4.3286 11.3952 4.38142 11.3557 4.43806C11.3385 4.47362 11.3057 4.49097 11.2893 4.50831C11.1685 4.65455 11.0308 4.78421 10.8795 4.89427C10.8492 4.9134 10.8153 4.92524 10.7803 4.92897C10.7569 4.93162 10.7334 4.92548 10.7139 4.91162H10.6901L10.5573 4.99835C10.4245 4.85785 10.2761 4.71821 10.1474 4.5777C9.52353 4.06809 8.77781 3.75244 7.99387 3.66614L7.97747 3.5265V3.54385C7.9351 3.50894 7.906 3.45907 7.8955 3.40334C7.89053 3.20439 7.9015 3.00535 7.92829 2.80836V2.79014C7.92829 2.75545 7.94468 2.72076 7.94468 2.6852C7.96108 2.61495 7.96108 2.54556 7.97829 2.47531V2.37036C7.98428 2.28253 7.95848 2.19557 7.90611 2.12712C7.85375 2.05867 7.77874 2.01385 7.69629 2.00175C7.64308 1.99612 7.58938 2.00414 7.53972 2.02512C7.49006 2.04611 7.44591 2.07944 7.41101 2.12231C7.37998 2.15426 7.35523 2.19241 7.33821 2.23453C7.32118 2.27666 7.31221 2.32194 7.31182 2.36776V2.45449C7.31479 2.52559 7.3258 2.59605 7.34461 2.66438C7.35797 2.69746 7.36359 2.73346 7.36101 2.76933V2.78668C7.3894 2.98379 7.40065 3.18324 7.39462 3.38253C7.38326 3.43789 7.35433 3.48748 7.31264 3.52303V3.55773L7.29542 3.69823C7.11343 3.71558 6.93145 3.75027 6.73306 3.78497C5.95273 3.96785 5.24323 4.39701 4.69839 5.0157L4.5992 4.94544H4.58281C4.56559 4.94544 4.5492 4.96279 4.5164 4.96279C4.48128 4.95933 4.44737 4.94746 4.41721 4.9281C4.26895 4.80754 4.13171 4.67252 4.00733 4.52479C3.99011 4.4901 3.95732 4.47275 3.94093 4.45541C3.89092 4.4025 3.85895 4.34959 3.80812 4.29755C3.79173 4.28021 3.77533 4.28021 3.75894 4.26199L3.74172 4.24465C3.67548 4.1902 3.59441 4.15978 3.51055 4.15791C3.46487 4.15351 3.41894 4.16271 3.37794 4.18448C3.33695 4.20624 3.30252 4.2397 3.27855 4.28107C3.23175 4.35745 3.21269 4.44917 3.2249 4.53927C3.23711 4.62936 3.27976 4.71173 3.34495 4.77111C3.3493 4.77111 3.35347 4.77294 3.35655 4.77619C3.35962 4.77945 3.36135 4.78386 3.36135 4.78846C3.36135 4.78846 3.39414 4.82402 3.41054 4.82402C3.46955 4.86262 3.53059 4.89766 3.59334 4.92897L3.69254 4.98187C3.8598 5.07697 4.01536 5.19349 4.15571 5.3288C4.17576 5.34848 4.19083 5.37315 4.19957 5.40057C4.2083 5.42799 4.21041 5.45728 4.20571 5.48579V5.46844L4.3049 5.57339C4.28851 5.60895 4.27211 5.62629 4.25572 5.66012C3.73537 6.51268 3.52776 7.53718 3.67204 8.5405L3.53924 8.57606C3.53924 8.57834 3.53882 8.5806 3.53799 8.5827C3.53717 8.58481 3.53596 8.58672 3.53444 8.58833C3.53292 8.58994 3.53111 8.59122 3.52912 8.59209C3.52713 8.59296 3.525 8.59341 3.52284 8.59341C3.49726 8.64576 3.45645 8.68802 3.40644 8.71397C3.22252 8.76758 3.03423 8.80272 2.84407 8.81891C2.80982 8.81605 2.77544 8.82232 2.74406 8.83713C2.67848 8.83713 2.61208 8.85447 2.54568 8.85447C2.52928 8.85447 2.51289 8.87182 2.47928 8.87182C2.46288 8.87182 2.46288 8.87182 2.44649 8.88917C2.40405 8.89722 2.36354 8.91404 2.32726 8.93867C2.29098 8.96331 2.25964 8.99527 2.23505 9.03273C2.21046 9.07019 2.19309 9.11241 2.18393 9.15698C2.17478 9.20155 2.17402 9.24759 2.1817 9.29247C2.19945 9.36819 2.24233 9.43464 2.30252 9.4797C2.36272 9.52475 2.43621 9.54542 2.50961 9.53792C2.53803 9.54046 2.56653 9.53413 2.59159 9.51971C2.60798 9.51971 2.60798 9.51971 2.60798 9.50236C2.60798 9.48502 2.65717 9.50236 2.67438 9.50236C2.73996 9.48502 2.80637 9.45033 2.85637 9.43211C2.88657 9.41286 2.92047 9.401 2.95556 9.39742H2.97196C3.1502 9.32442 3.33468 9.26982 3.52284 9.23436H3.53924C3.58836 9.23284 3.63607 9.25185 3.67204 9.28727C3.67639 9.28727 3.68056 9.2891 3.68364 9.29235C3.68671 9.2956 3.68844 9.30001 3.68844 9.30461L3.83764 9.28727C4.08429 10.1014 4.55849 10.8172 5.19763 11.3402C5.33587 11.4615 5.48559 11.5673 5.64441 11.6559L5.56243 11.7782C5.56243 11.7806 5.56288 11.7829 5.56375 11.7851C5.56463 11.7872 5.56591 11.7892 5.56752 11.7908C5.56913 11.7924 5.57104 11.7937 5.57312 11.7945C5.5752 11.7953 5.57743 11.7957 5.57965 11.7956C5.59402 11.8215 5.60292 11.8505 5.60575 11.8804C5.60858 11.9103 5.60527 11.9406 5.59604 11.969C5.52404 12.1474 5.43534 12.3176 5.33126 12.4773V12.4946C5.31418 12.5275 5.29169 12.5569 5.26485 12.5814C5.23124 12.6169 5.19845 12.6872 5.14845 12.7548C5.13205 12.773 5.13205 12.7904 5.11566 12.8077C5.11566 12.8123 5.11393 12.8167 5.11085 12.82C5.10778 12.8233 5.10361 12.8251 5.09926 12.8251C5.06046 12.907 5.0525 13.0015 5.077 13.0894C5.1015 13.1773 5.15663 13.2521 5.23124 13.2986C5.26753 13.3181 5.30708 13.3299 5.34765 13.3333C5.41292 13.3306 5.47636 13.3098 5.53162 13.273C5.58687 13.2362 5.63199 13.1846 5.66244 13.1234C5.66244 13.1188 5.66417 13.1144 5.66725 13.1112C5.67032 13.1079 5.67449 13.1061 5.67884 13.1061C5.67884 13.0879 5.69523 13.0705 5.71163 13.0532C5.72802 12.9829 5.76164 12.9309 5.77803 12.8606L5.81082 12.7548C5.86565 12.5668 5.93786 12.3849 6.02642 12.2119C6.05854 12.1624 6.10523 12.1255 6.15922 12.1069C6.17562 12.1069 6.17562 12.1069 6.17562 12.0896L6.24202 11.9491C6.70109 12.1379 7.18983 12.233 7.68235 12.2292C7.98435 12.2317 8.28525 12.1906 8.57672 12.1069C8.75595 12.0651 8.93277 12.0124 9.1063 11.9491L9.1727 12.0722C9.18909 12.0722 9.18909 12.0722 9.18909 12.0896C9.24326 12.1078 9.29005 12.1447 9.32189 12.1945C9.41045 12.3676 9.48267 12.5494 9.53749 12.7375V12.7548L9.57028 12.8606C9.58194 12.9283 9.6044 12.9935 9.63669 13.0532C9.65308 13.0705 9.65308 13.0879 9.66948 13.1061C9.66948 13.1107 9.6712 13.1151 9.67428 13.1184C9.67735 13.1216 9.68152 13.1234 9.68587 13.1234C9.71632 13.1846 9.76144 13.2362 9.8167 13.273C9.87195 13.3098 9.9354 13.3306 10.0007 13.3333C10.0465 13.33 10.0914 13.3183 10.1335 13.2986C10.1701 13.28 10.2024 13.253 10.2281 13.2198C10.2539 13.1865 10.2725 13.1477 10.2827 13.1061C10.3012 13.0195 10.2952 12.929 10.2654 12.8459C10.2654 12.8413 10.2637 12.8369 10.2606 12.8336C10.2576 12.8304 10.2534 12.8286 10.2491 12.8286C10.2491 12.8112 10.2327 12.7939 10.2163 12.7765C10.1871 12.7121 10.1478 12.6534 10.0999 12.603C10.0834 12.57 10.0611 12.5406 10.0343 12.5163V12.4808C9.92355 12.3254 9.83413 12.1543 9.76867 11.9725C9.7594 11.944 9.75614 11.9137 9.75911 11.8838C9.76208 11.8538 9.77122 11.8249 9.78588 11.799C9.78588 11.7944 9.78761 11.79 9.79069 11.7868C9.79376 11.7835 9.79793 11.7817 9.80228 11.7817L9.75227 11.6421C10.6011 11.1023 11.2365 10.2557 11.541 9.25865L11.673 9.27686C11.6753 9.27686 11.6775 9.27639 11.6796 9.27547C11.6817 9.27456 11.6836 9.27322 11.6852 9.27153C11.6868 9.26983 11.688 9.26783 11.6889 9.26562C11.6898 9.26341 11.6902 9.26104 11.6902 9.25865C11.7262 9.22391 11.7735 9.20526 11.8222 9.20661H11.8386C12.0199 9.24024 12.1976 9.29312 12.369 9.36446H12.3854C12.4156 9.38372 12.4495 9.39557 12.4846 9.39915C12.5421 9.43499 12.6031 9.46408 12.6666 9.48589C12.6838 9.48589 12.7002 9.50323 12.733 9.50323C12.7494 9.50323 12.7494 9.50323 12.7666 9.52058C12.7916 9.53514 12.8201 9.54148 12.8485 9.53879C12.92 9.53666 12.9892 9.51221 13.0476 9.46854C13.1059 9.42486 13.1508 9.36391 13.1765 9.29334C13.1696 9.20663 13.1371 9.12442 13.0835 9.0584C13.0299 8.99237 12.958 8.9459 12.8781 8.92559L12.8789 8.92299ZM8.09306 8.37918L7.64629 8.60729L7.19869 8.37918L7.0831 7.8718L7.39789 7.45114H7.89468L8.20865 7.8718L8.09306 8.37918ZM10.7926 7.23952C10.8721 7.60116 10.8945 7.97423 10.859 8.34362L9.28582 7.87093C9.21605 7.85265 9.15594 7.80592 9.11862 7.74092C9.08129 7.67592 9.06979 7.59794 9.08662 7.524C9.09834 7.47757 9.12121 7.43514 9.15302 7.40084L10.395 6.2074C10.5779 6.52723 10.7121 6.87553 10.7926 7.23952ZM9.89819 5.55864L8.53983 6.57515C8.4814 6.612 8.41231 6.6252 8.34539 6.61228C8.27846 6.59936 8.21823 6.56121 8.17586 6.50489C8.15973 6.48949 8.14692 6.4706 8.13829 6.4495C8.12966 6.4284 8.12542 6.40559 8.12585 6.3826L8.02666 4.61239C8.73435 4.69235 9.39483 5.02629 9.89819 5.55864ZM6.90111 4.6653L7.22902 4.59505L7.14705 6.34704C7.14406 6.4235 7.11285 6.49567 7.06012 6.54805C7.0074 6.60043 6.93736 6.62884 6.86504 6.62719C6.81947 6.62388 6.7748 6.61214 6.73306 6.59249L5.36159 5.55864C5.78884 5.11886 6.32095 4.81009 6.90111 4.6653ZM4.88038 6.2074L6.10594 7.36354C6.13357 7.38732 6.1564 7.41674 6.17307 7.45005C6.18974 7.48335 6.1999 7.51986 6.20296 7.55741C6.20602 7.59496 6.20191 7.63277 6.19088 7.6686C6.17984 7.70443 6.16211 7.73755 6.13873 7.76598C6.1241 7.78981 6.10469 7.80993 6.08188 7.82492C6.05907 7.83991 6.03342 7.8494 6.00675 7.85271L4.4 8.34362C4.35176 7.59649 4.51929 6.85149 4.88038 6.2074ZM4.5992 9.16758L6.23874 8.87009C6.30367 8.86615 6.36777 8.88701 6.41938 8.92888C6.47099 8.97074 6.50667 9.03083 6.51992 9.09819C6.52915 9.12665 6.53246 9.15688 6.52963 9.18682C6.5268 9.21676 6.5179 9.24569 6.50353 9.27166L5.87394 10.8823C5.28489 10.4717 4.83759 9.87 4.5992 9.16758ZM8.35785 11.3359C8.1243 11.3918 7.88573 11.4209 7.64629 11.4226C7.2924 11.4177 6.94099 11.3593 6.60272 11.2492L7.41429 9.68797C7.45208 9.63684 7.50594 9.60173 7.56609 9.589C7.62625 9.57627 7.68873 9.58677 7.7422 9.61859C7.79033 9.65406 7.8346 9.69507 7.87418 9.74088L8.66936 11.2648C8.56431 11.2839 8.46032 11.3091 8.35785 11.3402V11.3359ZM10.3786 9.812C10.1262 10.2369 9.7866 10.5962 9.38502 10.8632L8.73904 9.21528C8.72367 9.151 8.73001 9.08307 8.75695 9.02321C8.78389 8.96335 8.82975 8.91532 8.8866 8.88743C8.93402 8.86767 8.9841 8.85596 9.03497 8.85274L10.6901 9.14763C10.6166 9.38497 10.5117 9.61011 10.3786 9.81634V9.812Z" fill="white"/>
</svg>

