<svg width="24" height="24" viewBox="0 0 24 24" fill="none" xmlns="http://www.w3.org/2000/svg">
<path d="M9.02986 20.26C8.85986 20.03 8.65986 19.82 8.48986 19.59C8.22986 19.24 8.02986 18.86 7.81986 18.48C7.53986 17.98 7.24986 17.49 6.94986 17C6.82986 16.8 6.68986 16.6 6.50986 16.45C6.41986 16.38 6.30986 16.32 6.18986 16.3C6.06986 16.27 5.94986 16.28 5.83986 16.32C5.71986 16.37 5.61986 16.46 5.54986 16.56C5.47986 16.66 5.42986 16.78 5.37986 16.9C5.32986 17.02 5.28986 17.14 5.22986 17.25C5.16986 17.36 5.08986 17.47 4.97986 17.54C4.85986 17.62 4.71986 17.65 4.57986 17.66C4.43986 17.67 4.29986 17.65 4.15986 17.64C4.01986 17.63 3.87986 17.62 3.73986 17.64C3.59986 17.66 3.45986 17.72 3.35986 17.81C3.26986 17.9 3.20986 18.02 3.18986 18.15C3.15986 18.28 3.16986 18.41 3.16986 18.54C3.18986 18.83 3.23986 19.11 3.25986 19.4C3.27986 19.69 3.26986 19.99 3.15986 20.26C3.08986 20.44 2.97986 20.6 2.91986 20.78C2.88986 20.87 2.85986 20.96 2.85986 21.06C2.85986 21.16 2.87986 21.25 2.91986 21.34C2.97986 21.45 3.09986 21.53 3.20986 21.58C3.32986 21.63 3.45986 21.66 3.57986 21.69C3.85986 21.76 4.13986 21.86 4.41986 21.94C5.19986 22.16 6.02986 22.19 6.78986 22.47C7.18986 22.61 7.56986 22.82 7.99986 22.84C8.25986 22.85 8.52986 22.79 8.75986 22.65C8.98986 22.52 9.17986 22.32 9.29986 22.08C9.46986 21.75 9.50986 21.36 9.40986 21.01C9.35986 20.74 9.20986 20.49 9.02986 20.26ZM21.3499 19.6C21.2999 19.52 21.2399 19.45 21.1699 19.39C21.0999 19.33 21.0199 19.28 20.9399 19.23C20.7799 19.12 20.6299 18.99 20.4699 18.87C20.3199 18.74 20.1699 18.61 20.0399 18.46C19.9099 18.31 19.8099 18.13 19.7699 17.94C19.7499 17.82 19.7499 17.7 19.7399 17.58C19.7299 17.44 19.6999 17.31 19.6499 17.18C19.6199 17.1 19.5699 17.01 19.5099 16.95C19.4299 16.86 19.3099 16.81 19.1999 16.78C19.1899 16.78 19.1799 16.78 19.1799 16.78C19.3399 16.53 19.4499 16.24 19.4999 15.95C19.5999 15.43 19.5499 14.9 19.4599 14.38C19.3399 13.67 19.1299 12.98 18.8599 12.31C18.6699 11.82 18.4399 11.33 18.1199 10.91C17.8099 10.5 17.4199 10.15 17.1099 9.73C16.9599 9.53 16.8299 9.32 16.6799 9.12C16.5999 8.96 16.5199 8.8 16.4499 8.64C16.2499 8.2 16.0699 7.75 15.8299 7.34C15.7899 7.28 15.7599 7.22 15.7099 7.16C15.6799 6.75 15.6399 6.35 15.6199 5.94C15.5799 5.14 15.6299 4.32 15.4199 3.54C15.3099 3.16 15.1499 2.8 14.9399 2.47C14.6899 2.08 14.3799 1.73 14.0099 1.46C13.4099 1.03 12.6799 0.81 11.9399 0.8C11.3999 0.79 10.8499 0.9 10.3799 1.16C9.86986 1.43 9.44986 1.87 9.19986 2.39C8.93986 2.9 8.84986 3.48 8.82986 4.06C8.80986 4.62 8.85986 5.19 8.87986 5.75C8.89986 6.34 8.88986 6.93 8.93986 7.51C8.95986 7.7 8.97986 7.89 8.97986 8.08C8.97986 8.18 8.96986 8.28 8.96986 8.37C8.96986 8.36 8.96986 8.36 8.96986 8.35C8.96986 8.36 8.95986 8.37 8.95986 8.38C8.87986 8.57 8.77986 8.75 8.66986 8.93C8.47986 9.16 8.29986 9.4 8.10986 9.63C7.88986 9.9 7.67986 10.17 7.45986 10.44C7.18986 10.77 6.91986 11.1 6.74986 11.49C6.59986 11.82 6.52986 12.19 6.42986 12.54C6.30986 12.94 6.15986 13.32 5.97986 13.7C5.81986 14.05 5.63986 14.38 5.45986 14.72C5.32986 14.97 5.19986 15.22 5.14986 15.49C5.10986 15.71 5.13986 15.93 5.18986 16.14C5.20986 16.23 5.25986 16.31 5.28986 16.4C5.34986 16.3 5.40986 16.21 5.47986 16.12C5.55986 16.03 5.66986 15.94 5.78986 15.9C5.90986 15.85 6.04986 15.85 6.17986 15.88C6.30986 15.91 6.42986 15.97 6.52986 16.05C6.73986 16.2 6.88986 16.42 7.03986 16.64C7.36986 17.14 7.69986 17.65 7.97986 18.17C8.20986 18.6 8.42986 19.04 8.69986 19.44C8.87986 19.7 9.07986 19.95 9.25986 20.21C9.36986 20.36 9.45986 20.53 9.52986 20.7C9.60986 20.84 9.67986 20.99 9.71986 21.15C9.80986 21.46 9.76986 21.79 9.66986 22.1C9.72986 22.09 9.77986 22.07 9.83986 22.06C10.1799 21.99 10.5199 21.93 10.8699 21.92C10.9399 21.92 11.0099 21.91 11.0799 21.91C11.3299 21.94 11.5899 21.95 11.8399 21.94C11.8799 21.94 11.9199 21.93 11.9699 21.93C12.0199 21.93 12.0599 21.95 12.1099 21.95C12.5299 21.97 12.9399 22.01 13.3499 22.08C13.7099 22.13 14.0699 22.21 14.4299 22.29C14.5699 22.32 14.6999 22.36 14.8399 22.39C14.8099 22.24 14.7899 22.09 14.7999 21.93C14.8199 21.47 14.9199 21.02 15.0099 20.57C15.0399 20.44 15.0599 20.31 15.0799 20.18C15.1299 19.9 15.1799 19.62 15.2099 19.33C15.1699 19.71 15.1099 20.09 15.0399 20.46C14.9599 20.91 14.8699 21.37 14.8799 21.83C14.8799 22.09 14.9099 22.36 15.0499 22.58C15.1899 22.8 15.4099 22.95 15.6499 23.05C15.9899 23.2 16.3699 23.27 16.7299 23.21C17.0299 23.17 17.3099 23.04 17.5599 22.86C17.7999 22.68 18.0099 22.46 18.2299 22.25C18.4799 22.01 18.7599 21.78 19.0499 21.59C19.4899 21.3 19.9699 21.09 20.4399 20.86C20.7099 20.72 20.9899 20.57 21.1899 20.33C21.2799 20.22 21.3499 20.1 21.3999 19.97C21.4299 19.84 21.4099 19.71 21.3499 19.6ZM11.8399 4.72C11.8499 4.71 11.8499 4.69 11.8599 4.68C11.9499 4.46 12.1099 4.27 12.3099 4.14C12.3799 4.09 12.4499 4.05 12.5199 4.02C12.6499 3.97 12.7899 3.96 12.9299 3.98C13.0699 4 13.1999 4.05 13.3199 4.12C13.5499 4.27 13.7199 4.52 13.8099 4.78C13.8299 4.85 13.8499 4.92 13.8599 5C13.8999 5.17 13.9099 5.35 13.8999 5.53C13.8899 5.73 13.8499 5.93 13.7699 6.12C13.7099 6.25 13.6199 6.35 13.5099 6.44C13.4699 6.43 13.4299 6.41 13.3799 6.4C13.2099 6.36 13.0499 6.28 12.8899 6.22C12.9999 6.22 13.1099 6.19 13.1999 6.13C13.2799 6.07 13.3399 6 13.3899 5.91C13.4399 5.82 13.4599 5.73 13.4799 5.63C13.4999 5.46 13.4799 5.28 13.3999 5.13C13.3199 4.98 13.1899 4.85 13.0299 4.79C12.9599 4.76 12.8899 4.75 12.8099 4.76C12.7299 4.77 12.6499 4.79 12.5899 4.83C12.5199 4.87 12.4699 4.93 12.4199 4.99C12.3299 5.12 12.2899 5.28 12.2799 5.44C12.2799 5.56 12.2899 5.68 12.3299 5.79C12.3699 5.89 12.4299 5.98 12.5099 6.05C12.3999 5.99 12.2999 5.94 12.1899 5.88C12.1499 5.86 12.1199 5.85 12.0799 5.83C12.0099 5.75 11.9799 5.64 11.9299 5.55C11.8999 5.49 11.8599 5.45 11.8199 5.4C11.7699 5.18 11.7599 4.94 11.8399 4.72ZM12.0099 7.73C12.2899 7.62 12.5399 7.45 12.7699 7.27C12.8799 7.19 12.9799 7.11 13.0799 7.01L13.0899 7C13.1499 7 13.2099 6.99 13.2799 6.98C13.2099 7.01 13.1399 7.04 13.0799 7.08C12.9699 7.15 12.8699 7.25 12.7699 7.34C12.5499 7.54 12.2899 7.69 12.0099 7.8C11.8299 7.87 11.6399 7.91 11.4499 7.95C11.2099 8 10.9599 8.06 10.7199 8.05C10.4799 8.04 10.2199 7.98 10.0299 7.83C9.95986 7.77 9.89986 7.7 9.82986 7.64C9.75986 7.58 9.67986 7.52 9.59986 7.5C9.57986 7.5 9.55986 7.49 9.53986 7.49C9.51986 7.49 9.49986 7.48 9.48986 7.46C9.47986 7.45 9.47986 7.44 9.46986 7.43C9.56986 7.45 9.66986 7.49 9.75986 7.55C9.84986 7.61 9.93986 7.69 10.0299 7.74C10.2399 7.87 10.4799 7.93 10.7299 7.94C10.9699 7.95 11.2199 7.91 11.4599 7.86C11.6399 7.85 11.8299 7.8 12.0099 7.73ZM9.35986 4.64C9.39986 4.51 9.46986 4.39 9.56986 4.3C9.66986 4.21 9.79986 4.14 9.92986 4.14C10.0299 4.13 10.1399 4.16 10.2299 4.2C10.3199 4.24 10.3999 4.31 10.4699 4.38C10.6099 4.53 10.7199 4.72 10.7799 4.92C10.8399 5.1 10.8699 5.29 10.8799 5.48C10.7899 5.61 10.6999 5.74 10.5999 5.86C10.5499 5.88 10.5099 5.91 10.4599 5.93C10.4599 5.92 10.4699 5.92 10.4699 5.91C10.5299 5.72 10.5199 5.51 10.4599 5.31C10.4199 5.17 10.3399 5.03 10.2299 4.94C10.1799 4.9 10.1099 4.86 10.0399 4.84C9.96986 4.82 9.89986 4.83 9.82986 4.86C9.75986 4.89 9.69986 4.95 9.66986 5.02C9.62986 5.09 9.61986 5.17 9.59986 5.24C9.56986 5.41 9.56986 5.59 9.62986 5.75C9.66986 5.86 9.72986 5.95 9.80986 6.04C9.85986 6.09 9.91986 6.14 9.98986 6.18C10.0199 6.2 10.0599 6.19 10.0999 6.19C10.0299 6.25 9.94986 6.31 9.88986 6.38C9.82986 6.42 9.77986 6.48 9.72986 6.53C9.69986 6.51 9.66986 6.48 9.63986 6.46C9.54986 6.38 9.48986 6.27 9.43986 6.16C9.34986 5.93 9.32986 5.68 9.31986 5.44C9.29986 5.17 9.27986 4.89 9.35986 4.64ZM18.9699 17.2C18.7099 17.57 18.3199 17.86 17.8799 18.01C17.6199 18.1 17.3299 18.1 17.0599 18.02C16.9099 17.98 16.7599 17.9 16.6499 17.78C16.5199 17.63 16.4699 17.42 16.4599 17.22C16.4399 17.01 16.4699 16.8 16.5299 16.6C16.3599 16.56 16.1799 16.53 15.9999 16.51C15.8899 16.49 15.7899 16.48 15.6799 16.48C15.5699 16.48 15.4599 16.52 15.3799 16.59C15.2899 16.67 15.2399 16.78 15.2299 16.9C15.2099 17.01 15.2199 17.13 15.2299 17.25C15.2599 17.69 15.2599 18.14 15.2499 18.59C15.0599 18.54 14.8599 18.5 14.6599 18.52C14.3099 18.56 13.9599 18.68 13.6499 18.85C13.2099 19.08 12.7899 19.4 12.5499 19.83C12.4699 19.98 12.3999 20.15 12.3299 20.3C12.2599 20.46 12.1699 20.61 12.0499 20.74C11.9499 20.84 11.8299 20.92 11.7199 21.01C11.6199 21.02 11.5199 21.04 11.4199 21.05C11.3399 20.95 11.2499 20.85 11.1799 20.74C10.9799 20.46 10.8699 20.12 10.6999 19.83C10.4599 19.43 10.0899 19.12 9.67986 18.89C9.64986 18.79 9.61986 18.69 9.55986 18.61C9.37986 18.31 9.08986 18.1 8.81986 17.89C8.22986 17.43 7.64986 16.95 7.10986 16.44C7.04986 16.39 6.99986 16.33 6.94986 16.28C6.92986 15.96 6.92986 15.64 6.95986 15.32C7.03986 14.5 7.26986 13.7 7.59986 12.95C7.69986 12.73 7.80986 12.52 7.91986 12.31C8.07986 12.14 8.23986 11.98 8.42986 11.84C8.74986 11.6 9.16986 11.42 9.64986 11.26C9.95986 11.19 10.2699 11.15 10.2699 11.15C8.47986 11.4 8.60986 11.01 8.52986 10.89C8.48986 10.83 8.47986 10.74 8.46986 10.65C8.60986 10.22 8.86986 9.84 9.12986 9.46C9.19986 9.37 9.25986 9.27 9.31986 9.17C9.37986 9.21 9.41986 9.27 9.48986 9.3C9.68986 9.41 9.90986 9.46 10.1299 9.49C10.1699 9.49 10.2099 9.49 10.2399 9.5C9.95986 9.26 9.72986 8.97 9.60986 8.62C9.51986 8.35 9.48986 8.05 9.38986 7.79C9.35986 7.72 9.32986 7.64 9.30986 7.57C9.29986 7.53 9.28986 7.49 9.29986 7.45C9.31986 7.48 9.34986 7.51 9.37986 7.53C9.40986 7.55 9.44986 7.57 9.47986 7.59C9.65986 7.7 9.79986 7.86 9.92986 8.02C10.0999 8.24 10.2499 8.49 10.4799 8.65C10.6399 8.76 10.8299 8.83 11.0299 8.85C11.2599 8.87 11.4899 8.84 11.7199 8.77C11.9299 8.71 12.1299 8.62 12.3099 8.51C12.6599 8.3 12.9499 7.98 13.3299 7.84C13.4099 7.81 13.4999 7.79 13.5799 7.75C13.6599 7.71 13.7399 7.66 13.7699 7.58C13.8099 7.5 13.8099 7.41 13.8199 7.33C13.8299 7.29 13.8299 7.26 13.8399 7.22C13.8399 7.23 13.8499 7.23 13.8499 7.23C13.8999 7.32 13.8999 7.42 13.8999 7.52C13.8999 7.62 13.8899 7.72 13.9199 7.82C13.9599 7.93 14.0299 8.01 14.0899 8.11C14.1199 8.16 14.1399 8.21 14.1399 8.27C14.1399 8.33 14.1299 8.38 14.0899 8.42C14.0599 8.45 14.0099 8.47 13.9699 8.48C13.9299 8.49 13.8799 8.48 13.8299 8.47C13.7399 8.45 13.6599 8.41 13.5599 8.41C13.4399 8.4 13.3199 8.45 13.2199 8.52C13.1199 8.59 13.0399 8.68 12.9499 8.76C12.7499 8.94 12.5299 9.08 12.2999 9.21C12.1099 9.32 11.9099 9.41 11.7199 9.53C11.6899 9.55 11.6699 9.56 11.6399 9.58C11.9199 9.59 12.2099 9.58 12.4899 9.54C12.9599 9.46 13.3999 9.29 13.8699 9.25C14.1899 9.22 14.5199 9.25 14.8399 9.2C14.7199 9.22 14.5999 9.22 14.4799 9.22C14.5099 9.28 14.5499 9.35 14.5799 9.41C14.8299 9.95 14.9999 10.53 15.0899 11.11C15.4099 11.45 15.6899 11.83 15.8899 12.25C16.4799 13.47 16.4799 14.89 16.3099 16.24C16.2999 16.35 16.2799 16.45 16.2599 16.56C16.3499 16.57 16.4399 16.59 16.5299 16.61C16.5499 16.56 16.5499 16.5 16.5799 16.45C16.6399 16.31 16.7299 16.18 16.8399 16.08C16.9599 15.98 17.0899 15.9 17.2399 15.87C17.4099 15.83 17.5899 15.85 17.7599 15.87C17.9299 15.9 18.0899 15.94 18.2499 15.97C18.4299 16 18.6099 16.03 18.7699 16.1C18.8499 16.13 18.9299 16.18 18.9999 16.24C19.0599 16.3 19.1199 16.37 19.1499 16.46C19.1899 16.56 19.1899 16.68 19.1599 16.8C19.1299 16.93 19.0499 17.07 18.9699 17.2ZM14.9099 11.05C14.7899 10.66 14.7399 9.91 14.7399 9.91C14.7399 9.91 14.6599 10.52 14.2999 10.78C13.9399 11.03 13.7199 11 13.2799 11.05C12.8399 11.1 11.6399 11.08 11.6399 11.08C11.6399 11.08 11.8099 11.08 12.1999 11.15C12.5799 11.22 13.3699 11.29 13.8099 11.46C14.2499 11.63 14.4099 11.68 14.6799 11.85C15.0599 12.09 15.3399 12.47 15.7099 12.73C15.7099 12.73 15.7299 12.38 15.5799 12.12C15.4299 11.85 15.0299 11.43 14.9099 11.05ZM10.4099 12.8C10.3199 13.15 10.2499 13.51 10.2199 13.88C10.1699 14.39 10.1799 14.91 10.1599 15.43C10.1399 15.87 10.0899 16.31 10.1599 16.74C10.1999 16.95 10.2599 17.15 10.3499 17.33C10.3599 17.26 10.3799 17.19 10.3799 17.11C10.4099 16.76 10.3499 16.41 10.3299 16.06C10.2999 15.44 10.3799 14.83 10.4099 14.21C10.4399 13.75 10.4399 13.27 10.4099 12.8ZM11.1199 10.89C11.0399 10.83 10.9699 10.76 10.9299 10.67C10.8599 10.54 10.8399 10.38 10.8699 10.23C10.8599 10.34 10.8399 10.45 10.8199 10.56C10.8099 10.61 10.7999 10.67 10.7799 10.72C10.7599 10.77 10.7299 10.82 10.6899 10.86C10.6499 10.89 10.6099 10.91 10.5699 10.93C10.3999 11.01 10.2199 11.06 10.0299 11.08C10.0999 11.09 10.1799 11.09 10.2499 11.1C10.2999 11.11 10.3399 11.11 10.3899 11.12C10.4399 11.13 10.4799 11.15 10.5199 11.18C10.5599 11.21 10.5899 11.25 10.6199 11.3C10.6699 11.39 10.6799 11.49 10.6899 11.6C10.6999 11.73 10.6999 11.86 10.6899 11.99C10.6999 11.9 10.7199 11.82 10.7399 11.73C10.7899 11.58 10.8699 11.44 10.9799 11.32C11.0199 11.27 11.0699 11.23 11.1199 11.2C11.2799 11.09 11.4799 11.04 11.6699 11.07C11.4799 11.07 11.2799 11.01 11.1199 10.89Z" fill="white"/>
</svg>
