<svg width="22" height="22" viewBox="0 0 22 22" fill="none" xmlns="http://www.w3.org/2000/svg">
<path d="M10.3101 12.14L10.9501 12.45L11.5901 12.14L11.7601 11.45L11.3101 10.88H10.6001L10.1501 11.45L10.3101 12.14ZM11.7001 9.60999C11.8201 9.77999 12.0501 9.79999 12.2201 9.69999L14.1601 8.32999C13.4501 7.61999 12.5301 7.16999 11.4901 7.04999L11.6301 9.43999C11.6301 9.51999 11.6601 9.56999 11.7001 9.60999ZM8.79006 11.32C8.93006 11.15 8.91006 10.92 8.74006 10.78L7.00006 9.20999C6.48006 10.09 6.24006 11.1 6.31006 12.1L8.61006 11.44C8.70006 11.41 8.75006 11.39 8.79006 11.32ZM9.83006 9.77999C10.0401 9.77999 10.2301 9.60999 10.2301 9.39999L10.3501 7.02999L9.88006 7.11999C9.05006 7.30999 8.29006 7.73999 7.68006 8.32999L9.64006 9.72999C9.72006 9.74999 9.76006 9.77999 9.83006 9.77999ZM14.8701 9.20999L13.1001 10.82C13.0501 10.87 13.0301 10.91 13.0101 10.99C12.9601 11.2 13.0801 11.42 13.2901 11.46L15.5401 12.1C15.5901 11.6 15.5601 11.11 15.4501 10.61C15.3201 10.11 15.1301 9.63999 14.8701 9.20999ZM21.3301 13.18L19.5301 5.43999C19.4101 5.05999 19.1301 4.74999 18.7701 4.55999L11.5501 1.10999C11.3601 1.01999 11.1501 0.98999 10.9601 0.98999C10.7701 0.98999 10.5601 0.98999 10.3701 1.03999L3.16006 4.52999C2.81006 4.69999 2.54006 4.99999 2.45006 5.40999L0.680057 13.19C0.610057 13.59 0.700057 13.99 0.940057 14.33L5.93006 20.5C6.21006 20.78 6.62006 20.97 7.02006 21H14.9701C15.4001 21.05 15.8001 20.86 16.0601 20.5L21.0501 14.32C21.2901 13.99 21.3801 13.59 21.3301 13.18ZM18.3801 13.71C18.3301 13.71 18.3101 13.71 18.2601 13.69C18.2401 13.67 18.2401 13.67 18.2101 13.67C18.1601 13.67 18.1401 13.65 18.1201 13.65C18.0301 13.63 17.9501 13.58 17.8601 13.53C17.8101 13.53 17.7701 13.51 17.7201 13.48H17.7001C17.4601 13.39 17.2001 13.31 16.9401 13.27H16.9201C16.8501 13.27 16.7801 13.29 16.7301 13.34C16.7301 13.34 16.7301 13.36 16.7101 13.36L16.5201 13.34C16.0901 14.69 15.1701 15.82 13.9601 16.56L14.0301 16.75C14.0301 16.75 14.0101 16.75 14.0101 16.77C13.9601 16.84 13.9601 16.94 13.9901 17.01C14.0801 17.25 14.2001 17.48 14.3701 17.7V17.75C14.4201 17.8 14.4401 17.82 14.4601 17.87C14.5301 17.94 14.5801 18.01 14.6301 18.11C14.6501 18.13 14.6801 18.16 14.6801 18.18C14.6801 18.18 14.7001 18.18 14.7001 18.2C14.7501 18.32 14.7501 18.44 14.7201 18.55C14.7001 18.67 14.6001 18.76 14.5101 18.81C14.4401 18.83 14.3901 18.86 14.3201 18.86C14.1301 18.86 13.9701 18.74 13.8701 18.58C13.8501 18.58 13.8501 18.56 13.8501 18.56C13.8301 18.54 13.8301 18.51 13.8001 18.49C13.7501 18.42 13.7301 18.32 13.7101 18.23L13.6601 18.09V18.07C13.5901 17.81 13.4701 17.57 13.3501 17.34C13.3001 17.27 13.2301 17.22 13.1601 17.2C13.1601 17.18 13.1601 17.18 13.1401 17.18L13.0501 17.01C12.8101 17.08 12.5501 17.18 12.2901 17.22C11.8601 17.34 11.4401 17.39 11.0101 17.39C10.3001 17.39 9.61006 17.27 8.95006 17.01L8.86006 17.2C8.86006 17.22 8.86006 17.22 8.84006 17.22C8.77006 17.24 8.70006 17.29 8.65006 17.36C8.53006 17.6 8.41006 17.83 8.34006 18.09L8.29006 18.23C8.27006 18.32 8.22006 18.4 8.20006 18.49C8.18006 18.51 8.15006 18.54 8.15006 18.56C8.13006 18.56 8.13006 18.58 8.13006 18.58C8.04006 18.75 7.87006 18.86 7.68006 18.86C7.63006 18.86 7.56006 18.84 7.51006 18.81C7.30006 18.69 7.20006 18.41 7.32006 18.17C7.34006 18.17 7.34006 18.15 7.34006 18.15C7.36006 18.13 7.36006 18.1 7.39006 18.08C7.46006 17.99 7.51006 17.89 7.56006 17.84C7.61006 17.79 7.63006 17.77 7.65006 17.72V17.7C7.79006 17.49 7.93006 17.25 8.03006 17.01C8.05006 16.94 8.05006 16.84 8.01006 16.77C8.01006 16.77 7.99006 16.77 7.99006 16.75L8.11006 16.58C7.87006 16.46 7.68006 16.32 7.47006 16.15C6.55006 15.44 5.88006 14.47 5.53006 13.38L5.32006 13.4C5.32006 13.4 5.32006 13.38 5.30006 13.38C5.25006 13.33 5.18006 13.31 5.11006 13.31H5.09006C4.81006 13.36 4.57006 13.43 4.31006 13.52H4.29006C4.24006 13.52 4.20006 13.54 4.15006 13.57C4.08006 13.59 3.98006 13.64 3.89006 13.66C3.87006 13.66 3.80006 13.64 3.80006 13.66C3.80006 13.68 3.80006 13.68 3.78006 13.68C3.73006 13.7 3.71006 13.7 3.66006 13.7C3.45006 13.72 3.23006 13.58 3.19006 13.37C3.14006 13.11 3.31006 12.87 3.57006 12.83C3.59006 12.81 3.59006 12.81 3.62006 12.81C3.67006 12.81 3.69006 12.79 3.71006 12.79C3.80006 12.79 3.90006 12.77 3.99006 12.77C4.04006 12.75 4.08006 12.75 4.13006 12.75C4.41006 12.73 4.67006 12.68 4.93006 12.61C5.00006 12.56 5.07006 12.52 5.10006 12.44C5.10006 12.44 5.12006 12.44 5.12006 12.42L5.31006 12.37C5.10006 11.02 5.40006 9.64999 6.14006 8.48999C6.16006 8.43999 6.19006 8.41999 6.21006 8.36999L6.07006 8.22999C6.07006 8.23999 6.07006 8.23999 6.07006 8.24999V8.22999C6.08006 8.15999 6.04006 8.07999 6.00006 8.03999C5.81006 7.84999 5.57006 7.70999 5.34006 7.56999C5.29006 7.54999 5.25006 7.51999 5.20006 7.49999C5.11006 7.44999 5.01006 7.40999 4.94006 7.35999C4.92006 7.35999 4.87006 7.30999 4.87006 7.30999C4.87006 7.30999 4.87006 7.28999 4.85006 7.28999C4.66006 7.11999 4.61006 6.83999 4.76006 6.62999C4.83006 6.50999 4.95006 6.45999 5.09006 6.45999C5.21006 6.45999 5.33006 6.50999 5.42006 6.57999C5.42006 6.57999 5.42006 6.57999 5.44006 6.59999C5.46006 6.61999 5.49006 6.61999 5.51006 6.64999C5.58006 6.71999 5.63006 6.78999 5.70006 6.85999C5.72006 6.87999 5.77006 6.90999 5.79006 6.94999C5.96006 7.13999 6.17006 7.32999 6.38006 7.48999C6.43006 7.50999 6.47006 7.53999 6.52006 7.53999C6.57006 7.53999 6.59006 7.51999 6.61006 7.51999H6.63006L6.77006 7.60999C7.55006 6.77999 8.57006 6.18999 9.68006 5.94999C9.96006 5.89999 10.2201 5.85999 10.4801 5.82999L10.5001 5.63999V5.58999C10.5701 5.53999 10.5901 5.46999 10.6201 5.39999C10.6201 5.11999 10.6201 4.85999 10.5701 4.59999V4.57999C10.5701 4.52999 10.5701 4.48999 10.5501 4.43999C10.5301 4.34999 10.5001 4.24999 10.5001 4.15999V4.03999C10.5001 3.91999 10.5501 3.79999 10.6401 3.70999C10.7601 3.58999 10.9001 3.51999 11.0401 3.53999C11.2801 3.55999 11.4701 3.79999 11.4401 4.03999V4.17999C11.4201 4.26999 11.4201 4.36999 11.3901 4.45999C11.3901 4.50999 11.3701 4.54999 11.3701 4.59999V4.61999C11.3201 4.89999 11.3201 5.15999 11.3201 5.41999C11.3401 5.48999 11.3701 5.55999 11.4401 5.60999V5.58999L11.4601 5.77999C12.5701 5.89999 13.6601 6.31999 14.5401 7.00999C14.7301 7.19999 14.9401 7.38999 15.1301 7.57999L15.3201 7.45999H15.3401C15.3601 7.47999 15.4101 7.47999 15.4301 7.47999C15.4801 7.47999 15.5201 7.45999 15.5701 7.42999C15.7801 7.28999 16.0001 7.09999 16.1601 6.90999C16.1801 6.88999 16.2301 6.85999 16.2501 6.81999C16.3001 6.74999 16.3701 6.67999 16.4401 6.60999C16.4601 6.60999 16.4901 6.58999 16.5101 6.55999L16.5301 6.53999C16.6201 6.46999 16.7401 6.41999 16.8601 6.41999C16.9801 6.41999 17.1201 6.48999 17.1901 6.58999C17.3601 6.79999 17.3101 7.08999 17.1001 7.24999C17.1001 7.26999 17.1201 7.26999 17.1001 7.29999C17.0801 7.31999 17.0501 7.31999 17.0301 7.34999C16.9401 7.39999 16.8601 7.43999 16.7701 7.48999L16.6301 7.55999C16.3901 7.69999 16.1801 7.83999 15.9701 8.02999C15.9201 8.07999 15.9001 8.16999 15.9001 8.23999V8.25999L15.7601 8.39999C16.1401 8.98999 16.4201 9.64999 16.5901 10.34C16.7301 11.03 16.7801 11.74 16.6801 12.42L16.8701 12.47C16.8901 12.54 16.9601 12.61 17.0401 12.64C17.3001 12.71 17.5801 12.76 17.8401 12.78H17.8601C17.9101 12.8 17.9501 12.8 18.0001 12.8C18.0901 12.8 18.1901 12.8 18.2801 12.82C18.3301 12.82 18.3701 12.82 18.3701 12.84C18.3701 12.86 18.3901 12.86 18.4201 12.86C18.6301 12.91 18.8201 13.1 18.8501 13.36C18.7801 13.56 18.5901 13.71 18.3801 13.71ZM12.7201 12.83C12.5501 12.9 12.4601 13.09 12.5101 13.28L13.4301 15.5C14.0001 15.15 14.4901 14.65 14.8501 14.08C15.0401 13.82 15.1801 13.51 15.3001 13.18L12.9301 12.78C12.8601 12.78 12.7901 12.81 12.7201 12.83ZM8.94006 12.81L6.60006 13.21C6.93006 14.16 7.59006 14.98 8.42006 15.53L9.32006 13.35C9.37006 13.28 9.37006 13.18 9.34006 13.11C9.31006 12.92 9.12006 12.81 8.94006 12.81ZM11.0901 13.82C10.9201 13.73 10.7401 13.77 10.6201 13.91L9.46006 16.02C9.93006 16.16 10.4501 16.26 10.9501 16.26C11.3001 16.26 11.6401 16.21 11.9701 16.14C12.1401 16.09 12.2801 16.07 12.4201 16.05L11.2801 13.99C11.2101 13.92 11.1601 13.87 11.0901 13.82Z" fill="white"/>
</svg>
